<?xml version="1.0" standalone="no"?>
<!DOCTYPE svg PUBLIC "-//W3C//DTD SVG 1.1//EN" "http://www.w3.org/Graphics/SVG/1.1/DTD/svg11.dtd" >
<svg xmlns="http://www.w3.org/2000/svg" xmlns:xlink="http://www.w3.org/1999/xlink" version="1.1">
<metadata></metadata>
<defs>
<font id="elzablack" horiz-adv-x="1259" >
<font-face units-per-em="2048" ascent="1638" descent="-410" />
<missing-glyph horiz-adv-x="337" />
<glyph unicode="&#xfb01;" horiz-adv-x="1466" d="M23 774v289h182v104q0 188 103.5 281.5t324.5 93.5q121 0 231 -29v-292q-66 20 -123 20q-68 0 -97.5 -19.5t-29.5 -70.5v-88h246v-289h-246v-774h-409v774h-182zM968 1167v349h422v-349h-422zM975 0v1063h410v-1063h-410z" />
<glyph unicode="&#xfb02;" horiz-adv-x="1466" d="M23 774v289h182v104q0 188 103.5 281.5t324.5 93.5q121 0 231 -29v-292q-66 20 -123 20q-68 0 -97.5 -19.5t-29.5 -70.5v-88h246v-289h-246v-774h-409v774h-182zM975 0v1516h410v-1516h-410z" />
<glyph horiz-adv-x="0" />
<glyph unicode="&#xd;" horiz-adv-x="681" />
<glyph unicode=" "  horiz-adv-x="337" />
<glyph unicode="&#x09;" horiz-adv-x="337" />
<glyph unicode="&#xa0;" horiz-adv-x="337" />
<glyph unicode="!" horiz-adv-x="610" d="M88 1122v332h434v-332l-88 -671h-258zM115 0v348h381v-348h-381z" />
<glyph unicode="&#x22;" horiz-adv-x="1234" d="M184 1356v160h381v-160l-61 -393h-258zM669 1356v160h381v-160l-61 -393h-258z" />
<glyph unicode="#" horiz-adv-x="1243" d="M61 383v227h193l14 226h-176v227h193l24 391h250l-24 -391h231l27 391h249l-26 -391h166v-227h-185l-16 -226h170v-227h-184l-27 -383h-248l27 383h-232l-28 -383h-248l29 383h-179zM502 610h231l15 226h-230z" />
<glyph unicode="$" horiz-adv-x="1384" d="M45 485h424q27 -145 170 -176v248l-31 6q-264 45 -390 148.5t-126 296.5v20q0 131 72 230.5t195.5 155.5t279.5 65v149h115v-149q250 -14 398 -140.5t163 -345.5h-422q-12 133 -139 158v-233l57 -9q528 -78 528 -440v-20q0 -141 -76.5 -247t-208.5 -163t-300 -66v-147 h-115v149q-272 16 -425 150.5t-169 359.5zM520 1040q0 -37 23.5 -59.5t95.5 -40.5v213q-57 -8 -88 -37t-31 -65v-11zM754 303q74 6 114.5 36t40.5 69v12q0 43 -30.5 67.5t-124.5 47.5v-232z" />
<glyph unicode="%" horiz-adv-x="1695" d="M33 1118q0 119 54 201t138 122t172 40t172 -40t138.5 -122t54.5 -201q0 -117 -54.5 -197.5t-139.5 -121.5t-171 -41t-171 41t-139 121.5t-54 197.5zM147 0l1074 1454h307l-1073 -1454h-308zM274 1118q0 -57 36 -92t87 -35q54 0 89.5 35t35.5 92q0 61 -35.5 95t-89.5 34 q-51 0 -87 -34.5t-36 -94.5zM934 334q0 119 54 200.5t138 121.5t172 40t172 -40t138.5 -121.5t54.5 -200.5q0 -117 -54.5 -198t-139.5 -122t-171 -41t-171 41t-139 122t-54 198zM1176 334q0 -57 35.5 -92t86.5 -35q54 0 89.5 34.5t35.5 92.5q0 61 -35.5 95t-89.5 34 q-51 0 -86.5 -35t-35.5 -94z" />
<glyph unicode="&#x26;" horiz-adv-x="1454" d="M57 373q0 115 58.5 206t226.5 193l-43 49q-51 57 -80 132t-29 157q0 106 54.5 190t159 132.5t247.5 48.5q131 0 230.5 -45t155 -125t55.5 -178q0 -115 -64.5 -211.5t-214.5 -196.5l195 -223q27 59 26 137q0 39 -6 76h348q4 -27 4 -80q0 -111 -37.5 -211t-107.5 -182 l211 -242h-424l-43 49q-168 -76 -356 -76q-180 0 -307.5 52.5t-193 143.5t-65.5 204zM453 408q0 -61 47 -100.5t143 -39.5q66 1 127 19l-235 266q-49 -37 -65.5 -70.5t-16.5 -74.5zM545 1108q0 -39 13 -71.5t44 -69.5l29 -33q57 41 83.5 84t26.5 96q0 43 -25.5 69.5 t-70.5 26.5t-72.5 -28.5t-27.5 -73.5z" />
<glyph unicode="'" horiz-adv-x="749" d="M184 1356v160h381v-160l-61 -393h-258z" />
<glyph unicode="(" horiz-adv-x="831" d="M113 627q0 229 97 464.5t271 424.5h310q-127 -190 -202 -427t-75 -462t75 -463t202 -428h-310q-182 197 -275 423t-93 468z" />
<glyph unicode=")" horiz-adv-x="831" d="M41 -264q127 190 201.5 427.5t74.5 463.5q0 225 -74.5 461.5t-201.5 427.5h309q174 -188 271.5 -424t97.5 -465q0 -242 -93.5 -468.5t-275.5 -422.5h-309z" />
<glyph unicode="*" horiz-adv-x="983" d="M184 1196l41 207l193 -82l-41 195h229l-41 -195l193 82l41 -207h-187l148 -149l-195 -117l-73 192l-74 -192l-195 117l148 149h-187z" />
<glyph unicode="+" horiz-adv-x="1126" d="M53 590v278h371v398h281v-398h370v-278h-370v-395h-281v395h-371z" />
<glyph unicode="," horiz-adv-x="716" d="M160 -180q88 0 119.5 26.5t31.5 100.5v53h-127v344h348v-332q0 -193 -92 -287t-280 -94v189z" />
<glyph unicode="-" horiz-adv-x="845" d="M72 438v291h702v-291h-702z" />
<glyph unicode="." horiz-adv-x="716" d="M184 0v344h348v-344h-348z" />
<glyph unicode="/" horiz-adv-x="972" d="M82 -205l532 1721h277l-531 -1721h-278z" />
<glyph unicode="0" d="M61 705v40q0 209 60.5 375t187.5 263.5t320 97.5t320.5 -97.5t188 -263.5t60.5 -375v-40q0 -209 -60.5 -374t-188.5 -261.5t-320 -96.5q-191 0 -319 96.5t-188.5 261.5t-60.5 374zM485 713q0 -162 13.5 -247t43 -120t87.5 -35q57 0 88 35t44 120t13 247v24q0 164 -13 250 t-44 121t-88 35t-87 -35t-43.5 -121t-13.5 -250v-24z" />
<glyph unicode="1" horiz-adv-x="901" d="M57 852v356q119 20 226.5 84t195.5 162h299v-1454h-426v969q-133 -78 -295 -117z" />
<glyph unicode="2" horiz-adv-x="1206" d="M49 0v203q0 152 41 259t134 192t255 161q113 53 169.5 87t78 64.5t21.5 71.5v6q0 49 -36 83t-98 34q-74 0 -118.5 -48t-44.5 -140h-385q10 242 155.5 375t403.5 133q156 0 272.5 -55.5t179 -151.5t62.5 -215v-15q0 -96 -27 -166.5t-99.5 -135t-209.5 -132.5 q-141 -70 -204.5 -110.5t-84 -75.5t-22.5 -88h649v-336h-1092z" />
<glyph unicode="3" d="M47 473h406q4 -184 157 -184q76 0 112 43t36 117v6q0 162 -158 161h-129v283h131q74 0 106.5 33t32.5 96v6q0 66 -34.5 101.5t-98.5 35.5q-72 0 -106.5 -42t-38.5 -132h-383q4 150 75.5 259.5t193.5 167t272 57.5q152 0 270.5 -50.5t185 -142.5t66.5 -213v-18 q0 -98 -56.5 -176t-152.5 -119q117 -35 190.5 -123t73.5 -213v-18q0 -201 -152.5 -318t-422.5 -117q-179 0 -309 61.5t-198.5 174.5t-68.5 264z" />
<glyph unicode="4" d="M31 279v311l581 864h445v-848h170v-327h-170v-279h-406v279h-620zM379 602h272v424z" />
<glyph unicode="5" d="M70 434h401q10 -68 51 -104.5t109 -36.5q74 0 113.5 46t39.5 128v6q0 86 -41 132t-114 46q-53 0 -93 -23.5t-63 -56.5l-354 25l129 858h862v-344h-586l-32 -236q100 78 256 78q127 0 229 -55t161.5 -159.5t59.5 -241.5v-19q0 -152 -68.5 -266.5t-195.5 -176t-297 -61.5 q-262 0 -406.5 120t-160.5 341z" />
<glyph unicode="6" d="M59 676v72q0 360 151.5 546.5t428.5 186.5q233 0 374.5 -117t172.5 -324h-391q-12 61 -50 96t-108 35q-92 0 -141.5 -77.5t-49.5 -227.5v-53q109 133 299 133q129 0 230.5 -55t158 -157.5t56.5 -237.5v-19q0 -150 -66.5 -263.5t-190.5 -177t-292 -63.5 q-281 0 -431.5 187.5t-150.5 515.5zM489 467q0 -180 142 -180q76 0 110.5 49t34.5 131v6q0 78 -35.5 124t-107.5 46t-108 -46t-36 -122v-8z" />
<glyph unicode="7" horiz-adv-x="1179" d="M45 1110v344h1106v-289q-199 -250 -322.5 -538.5t-185.5 -626.5h-467q156 633 518 1110h-649z" />
<glyph unicode="8" d="M63 410v20q0 125 67 212t183 120q-94 37 -145 115.5t-51 179.5v20q0 121 64.5 212t180 141.5t267.5 50.5t268.5 -50.5t181 -141.5t64.5 -212v-20q0 -100 -50.5 -179t-144.5 -116q117 -33 182.5 -119t65.5 -213v-20q0 -131 -67.5 -230.5t-195.5 -153t-304 -53.5t-303 53.5 t-195 153t-68 230.5zM467 440q0 -74 44 -117.5t118 -43.5q76 0 119 44t43 117v15q0 72 -42 114.5t-120 42.5q-76 0 -119 -43t-43 -114v-15zM485 1032q0 -63 36 -99t108 -36q73 0 108 36t35 99v15q0 63 -36 99t-107 36q-70 0 -107 -36t-37 -99v-15z" />
<glyph unicode="9" d="M70 958v19q0 150 66.5 263.5t190.5 177t291 63.5q281 0 431.5 -187.5t150.5 -515.5v-71q0 -360 -151.5 -547t-427.5 -187q-234 0 -375.5 117t-171.5 324h391q25 -131 164 -131q92 0 138 69.5t46 204.5v84q-109 -133 -299 -133q-129 0 -230.5 55t-157.5 157.5t-56 237.5z M483 981q0 -78 36 -124t108 -46q71 0 107 46t36 122v8q0 180 -141 180q-76 0 -111 -49t-35 -131v-6z" />
<glyph unicode=":" horiz-adv-x="716" d="M184 0v344h348v-344h-348zM184 719v344h348v-344h-348z" />
<glyph unicode=";" horiz-adv-x="716" d="M160 -180q88 0 119.5 26.5t31.5 100.5v53h-127v344h348v-332q0 -193 -92 -287t-280 -94v189zM184 719v344h348v-344h-348z" />
<glyph unicode="&#x3c;" horiz-adv-x="1126" d="M102 582v239l883 344v-256l-543 -207l543 -204v-262z" />
<glyph unicode="=" horiz-adv-x="1126" d="M74 352v262h979v-262h-979zM74 815v262h979v-262h-979z" />
<glyph unicode="&#x3e;" horiz-adv-x="1126" d="M141 236v262l543 204l-543 207v256l883 -344v-239z" />
<glyph unicode="?" horiz-adv-x="1196" d="M25 993q16 233 175.5 360.5t428.5 127.5q160 0 283.5 -54.5t191 -146.5t67.5 -205v-20q0 -90 -34.5 -157t-85 -111t-129.5 -99q-92 -61 -136.5 -108.5t-44.5 -116.5v-17h-389v66q0 90 34 152.5t81 102.5t121 87q80 53 117.5 91t37.5 95v11q0 47 -35.5 76.5t-95.5 29.5 q-74 0 -116.5 -42t-49.5 -122h-421zM352 0v344h389v-344h-389z" />
<glyph unicode="@" horiz-adv-x="1986" d="M49 477q0 279 124 494t347 333.5t514 118.5q262 0 468 -95t320.5 -269t114.5 -400q0 -178 -66.5 -320t-187 -224t-280.5 -82q-106 0 -181 48t-96 128q-51 -80 -137 -128t-186 -48q-168 0 -264.5 112.5t-96.5 288.5q0 41 7 84l4 27q35 217 149.5 351t300.5 134 q96 0 165 -44t97 -112l39 132h334l-80 -658l-2 -22q0 -84 84 -84q59 0 112.5 47t87.5 142t34 228q0 190 -90.5 329.5t-257 214.5t-392.5 75q-252 0 -437 -97.5t-284.5 -278.5t-99.5 -425q0 -340 196.5 -523t559.5 -183q121 0 241 28v-143q-53 -14 -118.5 -22.5t-122.5 -8.5 q-279 0 -487 102.5t-320.5 295t-112.5 454.5zM811 453q0 -152 141 -152q78 0 119 52.5t62 172.5l2 13q6 41 6 75q0 147 -140 148q-82 0 -121.5 -52.5t-60.5 -170.5l-2 -13q-6 -39 -6 -73z" />
<glyph unicode="A" horiz-adv-x="1562" d="M10 0l535 1454h473l536 -1454h-448l-78 242h-502l-80 -242h-436zM631 563h291l-146 447z" />
<glyph unicode="B" horiz-adv-x="1409" d="M88 0v1454h713q229 0 366.5 -94t137.5 -293v-12q0 -96 -45.5 -174t-129.5 -127q111 -47 169.5 -134.5t58.5 -197.5v-12q0 -121 -65.5 -214.5t-185.5 -144.5t-278 -51h-741zM506 330h289q72 0 108.5 33.5t36.5 91.5v12q0 55 -37 89t-108 34h-289v-260zM506 879h227 q154 0 154 116v13q0 116 -151 116h-3h-227v-245z" />
<glyph unicode="C" horiz-adv-x="1515" d="M49 711v32q0 213 92 381t261 262.5t393 94.5q197 0 347 -76t235 -215t89 -328h-426q-4 131 -72.5 201t-181.5 70q-141 0 -214.5 -104.5t-73.5 -285.5v-32q0 -180 75.5 -284.5t214.5 -104.5q111 0 177.5 68.5t72.5 211.5h428q-10 -295 -189 -462t-482 -167 q-230 0 -399 94.5t-258 262.5t-89 381z" />
<glyph unicode="D" horiz-adv-x="1509" d="M88 0v1454h598q231 0 405.5 -83t271.5 -243.5t97 -384.5v-32q0 -225 -97 -385t-272.5 -243t-404.5 -83h-598zM510 344h152q170 0 260 85t90 282v32q0 197 -89 282t-257 85h-156v-766z" />
<glyph unicode="E" horiz-adv-x="1288" d="M88 0v1454h1129v-344h-707v-207h614v-330h-614v-229h727v-344h-1149z" />
<glyph unicode="F" horiz-adv-x="1210" d="M88 0v1454h1083v-344h-657v-248h567v-344h-567v-518h-426z" />
<glyph unicode="G" horiz-adv-x="1550" d="M49 711v32q0 213 91 381t260 262.5t395 94.5q190 0 334.5 -69t228.5 -187.5t104 -268.5h-434q-47 176 -240 177q-143 0 -216.5 -103.5t-73.5 -286.5v-32q0 -184 77.5 -286.5t237.5 -102.5q139 0 211 60t88 155h-332v297h693v-834h-306l-32 176q-57 -92 -164 -147.5 t-256 -55.5q-209 0 -358.5 92.5t-228.5 259.5t-79 386z" />
<glyph unicode="H" horiz-adv-x="1511" d="M88 0v1454h430v-536h475v536h430v-1454h-430v569h-475v-569h-430z" />
<glyph unicode="I" horiz-adv-x="616" d="M92 0v1454h432v-1454h-432z" />
<glyph unicode="J" horiz-adv-x="1247" d="M27 481v97h399v-95q0 -70 37 -112.5t115 -42.5q154 0 153 155v971h436v-938q0 -252 -147.5 -397.5t-433.5 -145.5q-277 0 -418 134.5t-141 373.5z" />
<glyph unicode="K" horiz-adv-x="1478" d="M88 0v1454h434v-491l428 491h488l-537 -592l569 -862h-495l-369 567l-84 -90v-477h-434z" />
<glyph unicode="L" horiz-adv-x="1087" d="M88 0v1454h430v-1110h518v-344h-948z" />
<glyph unicode="M" horiz-adv-x="1849" d="M88 0v1454h602l250 -895l252 895h569v-1454h-401v936l-268 -936h-324l-270 944v-944h-410z" />
<glyph unicode="N" horiz-adv-x="1521" d="M88 0v1454h498l444 -836v836h404v-1454h-476l-462 881v-881h-408z" />
<glyph unicode="O" horiz-adv-x="1595" d="M49 711v32q0 211 91 378t261 263.5t396 96.5q227 0 397 -96.5t261 -263.5t91 -378v-32q0 -211 -91 -378t-261 -263.5t-397 -96.5q-226 0 -396 96.5t-261 263.5t-91 378zM498 711q0 -184 77.5 -286.5t221.5 -102.5q145 0 223 102t78 287v32q0 184 -77 287t-224 103 t-223 -102.5t-76 -287.5v-32z" />
<glyph unicode="P" horiz-adv-x="1374" d="M88 0v1454h684q162 0 290 -58.5t201.5 -171t73.5 -270.5v-12q0 -160 -72.5 -272.5t-199.5 -170t-293 -57.5h-258v-442h-426zM514 786h205q82 0 129 38t47 118v12q0 80 -47 118t-129 38h-205v-324z" />
<glyph unicode="Q" horiz-adv-x="1595" d="M49 711v32q0 211 91 378t261 263.5t396 96.5q227 0 397 -96.5t261 -263.5t91 -378v-32q0 -197 -80 -356.5t-227 -256.5l172 -272h-324l-102 166q-88 -18 -188 -19q-225 0 -395.5 96.5t-261.5 263.5t-91 378zM498 711q0 -178 74.5 -281.5t211.5 -107.5l-147 239h311 l80 -127q70 104 70 277v32q0 184 -77 287t-224 103t-223 -102.5t-76 -287.5v-32z" />
<glyph unicode="R" horiz-adv-x="1402" d="M88 0v1454h705q162 0 289.5 -58.5t201.5 -171t74 -270.5v-12q0 -160 -70.5 -271.5t-200.5 -170.5l302 -500h-459l-250 442h-166v-442h-426zM514 786h225q82 0 129 38t47 118v12q0 80 -47 118t-129 38h-225v-324z" />
<glyph unicode="S" horiz-adv-x="1384" d="M45 485h424q16 -88 78.5 -136t171.5 -48q88 0 139 30.5t51 76.5v12q0 39 -22.5 61.5t-85 41t-193.5 40.5q-264 45 -390 148.5t-126 296.5v20q0 139 80 241.5t216 157t304 54.5q276 0 441 -127t182 -361h-422q-14 164 -207 164q-80 0 -123 -30.5t-43 -75.5v-11 q0 -35 20.5 -56t82 -38.5t188.5 -36.5q528 -78 528 -440v-20q0 -147 -81.5 -255t-224 -164.5t-320.5 -56.5q-305 0 -478.5 136.5t-189.5 375.5z" />
<glyph unicode="T" horiz-adv-x="1282" d="M47 1110v344h1186v-344h-377v-1110h-430v1110h-379z" />
<glyph unicode="U" horiz-adv-x="1464" d="M80 584v870h430v-866q0 -127 51 -192.5t172 -65.5q119 0 171 65.5t52 194.5v864h428v-870q0 -301 -163.5 -456t-489.5 -155q-323 0 -487 155t-164 456z" />
<glyph unicode="V" horiz-adv-x="1466" d="M10 1454h461l270 -969l273 969h442l-483 -1454h-481z" />
<glyph unicode="W" horiz-adv-x="2088" d="M10 1454h445l176 -901l213 901h430l205 -911l182 911h418l-369 -1454h-469l-190 848l-195 -848h-483z" />
<glyph unicode="X" horiz-adv-x="1538" d="M8 0l510 754l-475 700h492l245 -393l246 393h473l-477 -700l508 -754h-498l-270 436l-279 -436h-475z" />
<glyph unicode="Y" horiz-adv-x="1390" d="M10 1454h459l238 -561l229 561h442l-465 -975v-479h-428v479z" />
<glyph unicode="Z" horiz-adv-x="1218" d="M47 0v307l586 803h-549v344h1059v-311l-578 -799h606v-344h-1124z" />
<glyph unicode="[" horiz-adv-x="768" d="M102 -281v1797h574v-322h-174v-1153h174v-322h-574z" />
<glyph unicode="\" horiz-adv-x="972" d="M82 1516h276l533 -1721h-279z" />
<glyph unicode="]" horiz-adv-x="768" d="M92 41h174v1153h-174v322h574v-1797h-574v322z" />
<glyph unicode="^" horiz-adv-x="958" d="M72 242l278 901h258l279 -901h-246l-162 565l-162 -565h-245z" />
<glyph unicode="_" horiz-adv-x="747" d="M43 -27h662v-247h-662v247z" />
<glyph unicode="`" horiz-adv-x="1099" d="M205 1516h438l252 -349h-305z" />
<glyph unicode="a" horiz-adv-x="1200" d="M43 293q0 139 89 221t255 100l326 37v80q0 43 -28 67.5t-81 24.5q-59 0 -90 -25.5t-35 -72.5h-391q2 170 145.5 267.5t380.5 97.5q152 0 267.5 -43t179 -123t63.5 -187v-737h-393l-12 150q-47 -86 -132 -131.5t-206 -45.5q-148 0 -243 90.5t-95 229.5zM440 328 q0 -43 27 -67.5t80 -24.5q71 0 118.5 39.5t47.5 107.5v59l-170 -20q-51 -6 -77 -31.5t-26 -62.5z" />
<glyph unicode="b" horiz-adv-x="1302" d="M82 0v1516h412v-590q43 76 119.5 120t181.5 44q141 0 243.5 -73t156.5 -198t54 -280v-13q0 -158 -56 -283.5t-162.5 -197.5t-250.5 -72q-114 0 -194 59.5t-109 143.5l-12 -176h-383zM483 526q0 -131 41 -191.5t135 -60.5q95 0 136 60.5t41 191.5v13q0 131 -41 191.5 t-136 60.5q-94 0 -135 -60.5t-41 -191.5v-13z" />
<glyph unicode="c" horiz-adv-x="1189" d="M53 526v13q0 166 70 290.5t198 192.5t297 68q227 0 369.5 -123t167.5 -344h-401q-8 80 -38 121.5t-102 41.5q-78 0 -112.5 -62t-34.5 -185v-13q0 -127 34 -188.5t113 -61.5q72 0 100.5 40t37.5 118h399q-20 -217 -162.5 -339t-370.5 -122q-169 0 -297 68t-198 192.5 t-70 292.5z" />
<glyph unicode="d" horiz-adv-x="1302" d="M53 526v13q0 156 54.5 280.5t157 197.5t243.5 73q104 0 181 -44.5t120 -119.5v590h412v-1516h-383l-13 176q-29 -84 -108.5 -143.5t-194.5 -59.5q-143 0 -249.5 72t-163 198t-56.5 283zM467 526q0 -131 41 -191.5t135 -60.5t135 60.5t41 191.5v13q0 131 -41 191.5 t-135 60.5t-135 -60.5t-41 -191.5v-13z" />
<glyph unicode="e" horiz-adv-x="1251" d="M53 526v13q0 164 74 288.5t206 193.5t306 69q268 0 413.5 -159t145.5 -425q0 -43 -2 -64h-752q12 -96 57.5 -138t133.5 -42q61 0 102 26.5t54 61.5h399q-39 -172 -185.5 -274.5t-365.5 -102.5q-178 0 -310 68t-204 192.5t-72 292.5zM446 637h345q0 76 -40 120t-118 44 q-86 0 -129 -38t-58 -126z" />
<glyph unicode="f" horiz-adv-x="892" d="M23 774v289h182v104q0 188 103.5 281.5t324.5 93.5q121 0 231 -29v-292q-66 20 -123 20q-68 0 -97.5 -19.5t-29.5 -70.5v-88h246v-289h-246v-774h-409v774h-182z" />
<glyph unicode="g" horiz-adv-x="1302" d="M53 561v12q0 139 56.5 258t163 189t249.5 70q115 0 195 -59.5t108 -143.5l13 176h383v-981q0 -225 -158 -341t-422 -116q-242 0 -387 96.5t-152 260.5h396q10 -45 46 -68t105 -23q80 0 120 34t40 98v188q-43 -76 -121 -120t-180 -44q-139 0 -242.5 70.5t-158 188.5 t-54.5 255zM467 563q0 -104 42 -159.5t134 -55.5t134 55.5t42 159.5v12q0 104 -42 160t-134 56t-134 -55.5t-42 -160.5v-12z" />
<glyph unicode="h" d="M82 0v1516h412v-592q45 72 123.5 119t195.5 47q197 0 284 -111t87 -299v-680h-410v573q0 96 -29.5 145.5t-103.5 49.5q-68 0 -108.5 -49t-40.5 -144v-575h-410z" />
<glyph unicode="i" horiz-adv-x="573" d="M75 1167v349h422v-349h-422zM82 0v1063h410v-1063h-410z" />
<glyph unicode="j" horiz-adv-x="606" d="M-63 -59q35 -20 86 -21q49 0 70.5 23.5t21.5 72.5v1047h409v-1063q0 -375 -403 -375q-112 0 -184 33v283zM110 1167v349h422v-349h-422z" />
<glyph unicode="k" d="M82 0v1516h410v-789l305 336h438l-393 -420l409 -643h-442l-242 395l-75 -82v-313h-410z" />
<glyph unicode="l" horiz-adv-x="573" d="M82 0v1516h410v-1516h-410z" />
<glyph unicode="m" horiz-adv-x="1898" d="M82 0v1063h389l10 -162q41 78 121 133.5t193 55.5q244 0 321 -189q57 90 142 139.5t196 49.5q369 0 369 -424v-666h-410v590q0 92 -31.5 137t-89.5 45q-68 0 -101.5 -51t-33.5 -164v-557h-409v588q0 184 -117 184q-139 0 -139 -209v-563h-410z" />
<glyph unicode="n" d="M82 0v1063h389l10 -160q43 78 125 132.5t207 54.5q197 0 284 -111t87 -299v-680h-410v573q0 96 -29.5 145.5t-103.5 49.5q-68 0 -108.5 -49t-40.5 -144v-575h-410z" />
<glyph unicode="o" horiz-adv-x="1269" d="M53 524v15q0 158 73 283.5t205 196.5t304 71t304 -71t205 -197t73 -283v-15q0 -158 -73 -283.5t-205 -196.5t-304 -71t-304 71t-205 197t-73 283zM467 524q0 -129 38 -188.5t130 -59.5t130 59.5t38 188.5v15q0 129 -38 188t-130 59t-130 -59t-38 -188v-15z" />
<glyph unicode="p" horiz-adv-x="1302" d="M82 -348v1411h383l12 -176q29 84 109 143.5t194 59.5q143 0 250 -72t163 -198t56 -283v-13q0 -156 -54 -280.5t-156.5 -197.5t-243.5 -73q-102 0 -180 44t-121 120v-485h-412zM483 526q0 -131 41 -191.5t135 -60.5q95 0 136 60.5t41 191.5v13q0 131 -41 191.5t-136 60.5 q-94 0 -135 -60.5t-41 -191.5v-13z" />
<glyph unicode="q" horiz-adv-x="1302" d="M53 524v13q0 158 56.5 283.5t163 197.5t249.5 72q115 0 195 -59.5t108 -143.5l13 176h383v-1411h-412v485q-43 -76 -121 -120t-180 -44q-141 0 -243.5 73t-157 198t-54.5 280zM467 526q0 -131 41 -191.5t135 -60.5t135 60.5t41 191.5v13q0 131 -41 191.5t-135 60.5 t-135 -60.5t-41 -191.5v-13z" />
<glyph unicode="r" horiz-adv-x="888" d="M82 0v1063h389l8 -211q37 100 112 164.5t189 64.5q41 0 72 -6v-389q-45 6 -96 6q-139 0 -201.5 -58.5t-62.5 -172.5v-461h-410z" />
<glyph unicode="s" horiz-adv-x="1130" d="M41 350h385q8 -49 47 -77.5t102 -28.5q57 0 86 18.5t29 46.5q0 23 -11 38t-53 29.5t-130 29.5q-229 35 -328.5 111.5t-99.5 219.5q0 162 135 257.5t360 95.5q231 0 363.5 -95.5t144.5 -265.5h-379q-2 45 -36.5 69.5t-94.5 24.5q-49 0 -75.5 -17.5t-26.5 -45.5 q0 -23 13 -38t56 -27.5t129 -22.5q236 -29 333 -109t97 -219q0 -168 -136 -269.5t-376 -101.5q-253 0 -388.5 99.5t-145.5 277.5z" />
<glyph unicode="t" horiz-adv-x="923" d="M25 774v289h182v340h409v-340h246v-289h-246v-409q0 -51 30 -71t97 -20q55 0 123 21v-293q-111 -29 -231 -29q-221 0 -324.5 93.5t-103.5 281.5v426h-182z" />
<glyph unicode="u" horiz-adv-x="1249" d="M76 391v672h411v-592q0 -176 123 -176q66 0 105 48t39 153v567h413v-1063h-393l-10 150q-45 -74 -127 -125.5t-188 -51.5q-189 0 -281 110t-92 308z" />
<glyph unicode="v" horiz-adv-x="1214" d="M8 1063h432l178 -649l179 649h409l-372 -1063h-451z" />
<glyph unicode="w" horiz-adv-x="1767" d="M8 1063h410l137 -641l133 641h395l136 -647l141 647h399l-303 -1063h-428l-145 629l-146 -629h-428z" />
<glyph unicode="x" horiz-adv-x="1234" d="M8 0l373 545l-354 518h458l142 -238l147 238h430l-350 -516l373 -547h-459l-162 266l-166 -266h-432z" />
<glyph unicode="y" horiz-adv-x="1222" d="M8 1063h430l183 -606l178 606h415l-528 -1411h-424l144 364z" />
<glyph unicode="z" horiz-adv-x="1079" d="M57 0v283l443 471h-420v309h928v-277l-439 -475h459v-311h-971z" />
<glyph unicode="{" horiz-adv-x="802" d="M61 453v385h35q86 0 86 96v223q0 170 95.5 264.5t263.5 94.5h200v-322h-67q-43 0 -67.5 -24.5t-24.5 -67.5v-215q0 -94 -27 -150.5t-100 -91.5q74 -35 100.5 -91t26.5 -151v-270q0 -43 24.5 -67.5t67.5 -24.5h67v-322h-200q-168 0 -263.5 94.5t-95.5 264.5v278 q0 96 -86 97h-35z" />
<glyph unicode="|" horiz-adv-x="901" d="M233 -287v1803h435v-1803h-435z" />
<glyph unicode="}" horiz-adv-x="802" d="M61 41h68q43 0 67.5 24.5t24.5 67.5v270q0 94 26.5 150.5t100.5 91.5q-74 35 -100.5 91.5t-26.5 150.5v215q0 43 -24.5 67.5t-67.5 24.5h-68v322h201q170 0 264.5 -94.5t94.5 -264.5v-223q0 -96 86 -96h34v-385h-34q-86 0 -86 -97v-278q0 -170 -94.5 -264.5t-264.5 -94.5 h-201v322z" />
<glyph unicode="~" horiz-adv-x="901" d="M71 438q8 188 66.5 261t167.5 73q41 0 76 -11.5t80 -33.5q8 -4 37.5 -16.5t50.5 -12.5q53 0 59 66h221q-8 -182 -67.5 -258t-165.5 -76q-41 0 -76 11t-80 34q-8 4 -38 16.5t-50 12.5q-53 0 -59 -66h-222z" />
<glyph unicode="&#xa1;" horiz-adv-x="610" d="M88 -59l88 671h258l88 -671v-289h-434v289zM115 715v348h381v-348h-381z" />
<glyph unicode="&#xa2;" horiz-adv-x="1189" d="M53 526v13q0 158 63.5 278.5t180.5 191t272 78.5v138h90v-138q211 -10 342.5 -131.5t153.5 -332.5h-401q-6 66 -27.5 105.5t-67.5 51.5v-497q45 12 65.5 50t27.5 101h399q-18 -205 -149.5 -326.5t-342.5 -132.5v-137h-90v137q-238 14 -377 163t-139 388zM467 526 q0 -106 24.5 -166.5t77.5 -76.5v497q-102 -31 -102 -241v-13z" />
<glyph unicode="&#xa3;" horiz-adv-x="1189" d="M41 0v215q129 70 199.5 147.5t70.5 194.5h-231v137h184q-25 41 -76 101q-63 80 -96 137t-33 125v18q0 121 67 213t185.5 142.5t270.5 50.5q150 0 270.5 -58.5t192 -168t77.5 -257.5h-377q-6 184 -161 185q-145 0 -146 -138v-6q0 -39 27 -84t82 -112q78 -98 104 -148h250 v-137h-211q0 -127 -137 -223h596v-334h-1108z" />
<glyph unicode="&#xa4;" horiz-adv-x="1140" d="M49 403l150 146q-39 82 -39 170q0 90 39 168l-150 145l180 178l156 -149q88 39 184 39t185 -39l157 149l181 -178l-152 -147q37 -80 37 -166q0 -100 -45 -180l139 -136l-160 -178l-157 150q-88 -39 -185 -39q-96 0 -184 39l-156 -150zM469 719q0 -47 26.5 -72.5 t73.5 -25.5q45 0 72 26.5t27 71.5t-27 70.5t-72 25.5q-47 0 -73.5 -25.5t-26.5 -70.5z" />
<glyph unicode="&#xa5;" horiz-adv-x="1390" d="M10 1454h459l238 -561l229 561h442l-397 -833h193v-148h-261v-102h261v-148h-261v-223h-428v223h-260v148h260v102h-260v148h191z" />
<glyph unicode="&#xa6;" horiz-adv-x="901" d="M233 -287l21 809h393l21 -809h-435zM233 1516h435l-21 -789h-393z" />
<glyph unicode="&#xa7;" horiz-adv-x="1253" d="M41 295h385q8 -49 47 -78t102 -29q57 0 86 17.5t29 44.5q0 20 -12 32.5t-51 28t-131 43.5q-199 61 -283 141t-84 207q0 117 76 205q-72 43 -104.5 99.5t-32.5 142.5q0 154 135 243t360 89q231 0 363.5 -95.5t144.5 -265.5h-379q-2 45 -36.5 69.5t-94.5 24.5 q-49 0 -75.5 -17t-26.5 -42q0 -18 13 -30.5t61.5 -31t123.5 -42.5q203 -68 286 -147t83 -189q0 -117 -72 -207q72 -41 102.5 -95.5t30.5 -136.5q0 -162 -136 -260t-376 -98q-254 0 -389 99.5t-145 277.5zM479 743q0 -41 34 -68.5t138 -56.5q18 23 19 56q0 35 -31 62.5 t-141 60.5q-18 -25 -19 -54z" />
<glyph unicode="&#xa8;" horiz-adv-x="1286" d="M205 1167v349h376v-349h-376zM704 1167v349h377v-349h-377z" />
<glyph unicode="&#xa9;" horiz-adv-x="1699" d="M49 727q0 217 100.5 388t281.5 268.5t419 97.5t419 -97.5t281.5 -268.5t100.5 -388t-100.5 -388t-282 -268.5t-418.5 -97.5q-238 0 -419 97.5t-281.5 268.5t-100.5 388zM168 727q0 -186 82 -332.5t236.5 -229.5t363.5 -83t363.5 83t236.5 229.5t82 332.5t-82 332.5 t-236.5 229.5t-363.5 83t-363.5 -83t-236.5 -229.5t-82 -332.5zM393 723v10q0 137 57.5 240.5t163 160t246.5 56.5q188 0 305 -100.5t138 -282.5h-332q-6 66 -31 98.5t-84 32.5q-66 0 -93.5 -51t-27.5 -154v-10q0 -104 28 -154.5t93 -50.5q59 0 83 31t32 96h329 q-16 -180 -133.5 -279.5t-306.5 -99.5q-213 0 -340 124t-127 333z" />
<glyph unicode="&#xaa;" horiz-adv-x="782" d="M31 946q0 92 57 146.5t166 66.5l221 27v49q0 31 -20.5 49.5t-59.5 18.5q-43 0 -65.5 -18.5t-24.5 -51.5h-246q2 111 96.5 175.5t245.5 64.5q150 0 240 -63.5t90 -170.5v-485h-244l-8 100q-33 -57 -89 -88t-134 -31q-98 0 -161.5 59.5t-63.5 151.5zM49 461v149h676v-149 h-676zM279 969q0 -31 20 -48.5t57 -17.5q52 0 85.5 29t33.5 76v41l-125 -15q-35 -4 -53 -21.5t-18 -43.5z" />
<glyph unicode="&#xab;" horiz-adv-x="1310" d="M41 506v14l326 410h372l-329 -416l329 -418h-372zM561 506v14l326 410h373l-330 -416l330 -418h-373z" />
<glyph unicode="&#xac;" horiz-adv-x="1378" d="M184 580v321h1010v-573h-410v252h-600z" />
<glyph unicode="&#xad;" horiz-adv-x="845" d="M72 438v291h702v-291h-702z" />
<glyph unicode="&#xae;" horiz-adv-x="1308" d="M53 924q0 162 75 288.5t212 197.5t315 71t314.5 -71t211 -198t74.5 -288q0 -162 -74.5 -290t-210.5 -198.5t-315 -70.5q-178 0 -315 70.5t-212 198.5t-75 290zM154 924q0 -215 134 -341t367 -126q234 0 367 126t133 341t-133 340t-367 125q-233 0 -367 -125t-134 -340z M399 618v615h301q106 0 175 -58.5t69 -164.5v-4q0 -63 -24.5 -110.5t-69.5 -74.5l115 -203h-242l-88 164h-27v-164h-209zM608 963h70q49 0 49 43v4q0 43 -49 43h-70v-90z" />
<glyph unicode="&#xaf;" horiz-adv-x="1175" d="M205 1196v287h766v-287h-766z" />
<glyph unicode="&#xb0;" horiz-adv-x="811" d="M41 1118q0 119 54.5 201t138 122t172.5 40q88 0 172 -40t138 -122t54 -201q0 -117 -54 -197.5t-139 -121.5t-171 -41q-87 0 -171.5 41t-139 121.5t-54.5 197.5zM283 1118q0 -57 35.5 -92t87.5 -35q53 0 88.5 35t35.5 92q0 61 -35.5 95t-88.5 34q-51 0 -87 -34.5 t-36 -94.5z" />
<glyph unicode="&#xb1;" horiz-adv-x="1126" d="M109 162v248h911v-248h-911zM109 879v245h325v322h264v-322h322v-245h-322v-308h-264v308h-325z" />
<glyph unicode="&#xb2;" horiz-adv-x="681" d="M27 844v114q0 127 53 206t188 141q94 45 122 66.5t28 51.5v4q0 25 -18.5 43.5t-51.5 18.5q-41 0 -65.5 -26.5t-24.5 -76.5h-221q6 139 89 213t228 74q133 0 212 -67.5t79 -169.5v-9q0 -78 -38 -133t-148 -108q-84 -41 -120 -64.5t-45 -40t-9 -45.5h360v-192h-618z" />
<glyph unicode="&#xb3;" horiz-adv-x="708" d="M25 1110h235q0 -98 82 -98q78 0 78 86v2q0 88 -84 88h-72v162h74q74 0 74 69v2q0 35 -18.5 54.5t-51.5 19.5q-76 0 -78 -94h-221q4 127 90 199.5t215 72.5q131 0 214 -62.5t83 -164.5v-10q0 -53 -31.5 -98.5t-85.5 -67.5q66 -18 107 -67.5t41 -119.5v-10 q0 -113 -86 -178.5t-240 -65.5q-155 0 -241 78t-84 203z" />
<glyph unicode="&#xb4;" horiz-adv-x="1099" d="M205 1167l252 349h438l-385 -349h-305z" />
<glyph unicode="&#xb5;" horiz-adv-x="1327" d="M82 -348v1411h414v-580q0 -100 38.5 -153.5t129.5 -53.5q90 0 128.5 53.5t38.5 153.5v580h414v-1063h-289l-16 121q-47 -68 -118.5 -108t-157.5 -40q-123 0 -209 80v-401h-373z" />
<glyph unicode="&#xb6;" horiz-adv-x="1462" d="M82 975q0 219 136 349t415 130h665v-1741h-251v1518h-154v-1518h-250v799h-39q-152 0 -270.5 57.5t-185 162t-66.5 243.5z" />
<glyph unicode="&#xb7;" horiz-adv-x="716" d="M184 379v344h348v-344h-348z" />
<glyph unicode="&#xb8;" horiz-adv-x="886" d="M205 -319q51 -23 133 -23q86 0 86 51t-76 51q-29 0 -62.5 -5t-47.5 -11v80l104 176h183l-60 -102q92 -4 154.5 -52.5t62.5 -138.5q0 -94 -82 -146.5t-209 -52.5q-120 0 -186 31v142z" />
<glyph unicode="&#xb9;" horiz-adv-x="512" d="M31 1313v207q135 25 241 139h172v-815h-251v532q-78 -45 -162 -63z" />
<glyph unicode="&#xba;" horiz-adv-x="831" d="M37 1100v10q0 104 47 186t133 129.5t199 47.5t198.5 -46.5t133 -129.5t47.5 -187v-10q0 -104 -47.5 -187.5t-133.5 -130.5t-198 -47q-113 0 -199 47t-133 130t-47 188zM80 461v149h676v-149h-676zM295 1100q0 -86 28.5 -129t92.5 -43q65 0 93 42t28 130v10q0 86 -29 129 t-92 43t-92 -42t-29 -130v-10z" />
<glyph unicode="&#xbb;" horiz-adv-x="1310" d="M51 96l330 418l-330 416h373l326 -410v-14l-326 -410h-373zM571 96l330 418l-330 416h373l326 -410v-14l-326 -410h-373z" />
<glyph unicode="&#xbc;" horiz-adv-x="1679" d="M31 1108v207q135 25 241 139h172v-815h-251v532q-78 -45 -162 -63zM122 0l1074 1454h307l-1073 -1454h-308zM987 153v181l324 481h258v-473h94v-189h-94v-153h-236v153h-346zM1188 340h145v229z" />
<glyph unicode="&#xbd;" horiz-adv-x="1734" d="M31 1108v207q135 25 241 139h172v-815h-251v532q-78 -45 -162 -63zM122 0l1074 1454h307l-1073 -1454h-308zM1080 0v114q0 127 53 206t188 141q94 45 122 66.5t28 51.5v4q0 25 -18.5 43.5t-51.5 18.5q-41 0 -65.5 -26.5t-24.5 -76.5h-221q6 139 89 213t228 74 q133 0 212 -67.5t79 -169.5v-9q0 -78 -38 -133t-148 -108q-84 -41 -120 -64.5t-45 -40t-9 -45.5h360v-192h-618z" />
<glyph unicode="&#xbe;" horiz-adv-x="1773" d="M25 905h235q0 -98 82 -98q78 0 78 86v2q0 88 -84 88h-72v162h74q74 0 74 69v2q0 35 -18.5 54.5t-51.5 19.5q-76 0 -78 -94h-221q4 127 90 199.5t215 72.5q131 0 214 -62.5t83 -164.5v-10q0 -53 -31.5 -98.5t-85.5 -67.5q66 -18 107 -67.5t41 -119.5v-10 q0 -113 -86 -178.5t-240 -65.5q-155 0 -241 78t-84 203zM217 0l1074 1454h307l-1073 -1454h-308zM1081 153v181l324 481h258v-473h94v-189h-94v-153h-236v153h-346zM1282 340h145v229z" />
<glyph unicode="&#xbf;" horiz-adv-x="1155" d="M25 31v20q0 90 34.5 153.5t86 102.5t128.5 84q92 53 136.5 97t44.5 112v16h389v-65q0 -90 -33 -149.5t-80 -93.5t-123 -75q-80 -41 -117.5 -75.5t-37.5 -91.5v-11q0 -47 35.5 -76.5t95.5 -29.5q74 0 116.5 42t49.5 122h421q-16 -233 -175.5 -360.5t-428.5 -127.5 q-159 0 -283 54.5t-191.5 146.5t-67.5 205zM455 719v344h389v-344h-389z" />
<glyph unicode="&#xc0;" horiz-adv-x="1562" d="M10 0l535 1454h473l536 -1454h-448l-78 242h-502l-80 -242h-436zM310 1925h428l241 -328h-323zM631 563h291l-146 447z" />
<glyph unicode="&#xc1;" horiz-adv-x="1562" d="M10 0l535 1454h473l536 -1454h-448l-78 242h-502l-80 -242h-436zM586 1597l241 328h428l-346 -328h-323zM631 563h291l-146 447z" />
<glyph unicode="&#xc2;" horiz-adv-x="1562" d="M10 0l535 1454h473l536 -1454h-448l-78 242h-502l-80 -242h-436zM375 1597l217 328h381l217 -328h-284l-123 123l-123 -123h-285zM631 563h291l-146 447z" />
<glyph unicode="&#xc3;" horiz-adv-x="1562" d="M10 0l535 1454h473l536 -1454h-448l-78 242h-502l-80 -242h-436zM373 1620q6 188 65.5 261t174.5 73q43 0 81.5 -10.5t88.5 -30.5q31 -12 63.5 -22.5t58.5 -10.5q33 0 47.5 15.5t18.5 50.5h221q-6 -184 -66.5 -259t-172.5 -75q-43 0 -82 10t-88 31q-31 12 -64 22.5 t-59 10.5q-31 0 -47.5 -15.5t-18.5 -50.5h-221zM631 563h291l-146 447z" />
<glyph unicode="&#xc4;" horiz-adv-x="1562" d="M10 0l535 1454h473l536 -1454h-448l-78 242h-502l-80 -242h-436zM328 1597v328h377v-328h-377zM631 563h291l-146 447zM860 1597v328h377v-328h-377z" />
<glyph unicode="&#xc5;" horiz-adv-x="1562" d="M10 0l535 1454h473l536 -1454h-448l-78 242h-502l-80 -242h-436zM510 1825q0 115 76.5 190.5t195.5 75.5t193.5 -74.5t74.5 -191.5t-74.5 -193t-193.5 -76t-195.5 76t-76.5 193zM631 563h291l-146 447zM686 1825q0 -45 26.5 -72t71.5 -27q41 0 65.5 27t24.5 72 t-24.5 70.5t-65.5 25.5q-45 0 -71.5 -25.5t-26.5 -70.5z" />
<glyph unicode="&#xc6;" horiz-adv-x="2070" d="M10 0l619 1454h1370v-344h-707v-207h615v-330h-615v-229h727v-344h-1149v242h-331l-93 -242h-436zM662 567h208v541h-2z" />
<glyph unicode="&#xc7;" horiz-adv-x="1515" d="M49 711v32q0 213 92 381t261 262.5t393 94.5q197 0 347 -76t235 -215t89 -328h-426q-4 131 -72.5 201t-181.5 70q-141 0 -214.5 -104.5t-73.5 -285.5v-32q0 -180 75.5 -284.5t214.5 -104.5q111 0 177.5 68.5t72.5 211.5h428q-10 -276 -168.5 -441t-431.5 -186l-45 -77 q92 -4 154.5 -52.5t62.5 -138.5q0 -94 -82 -146.5t-208 -52.5q-121 0 -187 31v142q51 -23 133 -23q86 0 86 51t-75 51q-29 0 -63 -5t-48 -11v80l92 156q-199 23 -342 121t-219 255.5t-76 354.5z" />
<glyph unicode="&#xc8;" horiz-adv-x="1288" d="M88 0v1454h1129v-344h-707v-207h614v-330h-614v-229h727v-344h-1149zM185 1925h428l241 -328h-323z" />
<glyph unicode="&#xc9;" horiz-adv-x="1288" d="M88 0v1454h1129v-344h-707v-207h614v-330h-614v-229h727v-344h-1149zM461 1597l241 328h428l-346 -328h-323z" />
<glyph unicode="&#xca;" horiz-adv-x="1288" d="M88 0v1454h1129v-344h-707v-207h614v-330h-614v-229h727v-344h-1149zM250 1597l217 328h381l217 -328h-284l-123 123l-123 -123h-285z" />
<glyph unicode="&#xcb;" horiz-adv-x="1288" d="M88 0v1454h1129v-344h-707v-207h614v-330h-614v-229h727v-344h-1149zM203 1597v328h377v-328h-377zM735 1597v328h377v-328h-377z" />
<glyph unicode="&#xcc;" horiz-adv-x="616" d="M-102 1925h428l139 -328h-323zM92 0v1454h432v-1454h-432z" />
<glyph unicode="&#xcd;" horiz-adv-x="616" d="M92 0v1454h432v-1454h-432zM154 1597l139 328h428l-244 -328h-323z" />
<glyph unicode="&#xce;" horiz-adv-x="616" d="M-37 1597l217 328h258l217 -328h-248l-98 146l-98 -146h-248zM92 0v1454h432v-1454h-432z" />
<glyph unicode="&#xcf;" horiz-adv-x="616" d="M-65 1597v328h309v-328h-309zM92 0v1454h432v-1454h-432zM377 1597v328h307v-328h-307z" />
<glyph unicode="&#xd0;" horiz-adv-x="1509" d="M-23 606v242h111v606h598q231 0 405.5 -83t271.5 -243.5t97 -384.5v-32q0 -225 -97 -385t-272.5 -243t-404.5 -83h-598v606h-111zM510 344h152q170 0 260 85t90 282v32q0 197 -89 282t-257 85h-156v-262h252v-242h-252v-262z" />
<glyph unicode="&#xd1;" horiz-adv-x="1521" d="M88 0v1454h498l444 -836v836h404v-1454h-476l-462 881v-881h-408zM352 1620q6 188 65.5 261t174.5 73q43 0 81.5 -10.5t88.5 -30.5q31 -12 63.5 -22.5t58.5 -10.5q33 0 47.5 15.5t18.5 50.5h221q-6 -184 -66.5 -259t-172.5 -75q-43 0 -82 10t-88 31q-31 12 -64 22.5 t-59 10.5q-31 0 -47.5 -15.5t-18.5 -50.5h-221z" />
<glyph unicode="&#xd2;" horiz-adv-x="1595" d="M49 711v32q0 211 91 378t261 263.5t396 96.5q227 0 397 -96.5t261 -263.5t91 -378v-32q0 -211 -91 -378t-261 -263.5t-397 -96.5q-226 0 -396 96.5t-261 263.5t-91 378zM326 1925h428l241 -328h-323zM498 711q0 -184 77.5 -286.5t221.5 -102.5q145 0 223 102t78 287v32 q0 184 -77 287t-224 103t-223 -102.5t-76 -287.5v-32z" />
<glyph unicode="&#xd3;" horiz-adv-x="1595" d="M49 711v32q0 211 91 378t261 263.5t396 96.5q227 0 397 -96.5t261 -263.5t91 -378v-32q0 -211 -91 -378t-261 -263.5t-397 -96.5q-226 0 -396 96.5t-261 263.5t-91 378zM498 711q0 -184 77.5 -286.5t221.5 -102.5q145 0 223 102t78 287v32q0 184 -77 287t-224 103 t-223 -102.5t-76 -287.5v-32zM603 1597l241 328h428l-346 -328h-323z" />
<glyph unicode="&#xd4;" horiz-adv-x="1595" d="M49 711v32q0 211 91 378t261 263.5t396 96.5q227 0 397 -96.5t261 -263.5t91 -378v-32q0 -211 -91 -378t-261 -263.5t-397 -96.5q-226 0 -396 96.5t-261 263.5t-91 378zM391 1597l217 328h381l217 -328h-284l-123 123l-123 -123h-285zM498 711q0 -184 77.5 -286.5 t221.5 -102.5q145 0 223 102t78 287v32q0 184 -77 287t-224 103t-223 -102.5t-76 -287.5v-32z" />
<glyph unicode="&#xd5;" horiz-adv-x="1595" d="M49 711v32q0 211 91 378t261 263.5t396 96.5q227 0 397 -96.5t261 -263.5t91 -378v-32q0 -211 -91 -378t-261 -263.5t-397 -96.5q-226 0 -396 96.5t-261 263.5t-91 378zM389 1620q6 188 65.5 261t174.5 73q43 0 81.5 -10.5t88.5 -30.5q31 -12 63.5 -22.5t58.5 -10.5 q33 0 47.5 15.5t18.5 50.5h221q-6 -184 -66.5 -259t-172.5 -75q-43 0 -82 10t-88 31q-31 12 -64 22.5t-59 10.5q-31 0 -47.5 -15.5t-18.5 -50.5h-221zM498 711q0 -184 77.5 -286.5t221.5 -102.5q145 0 223 102t78 287v32q0 184 -77 287t-224 103t-223 -102.5t-76 -287.5v-32 z" />
<glyph unicode="&#xd6;" horiz-adv-x="1595" d="M49 711v32q0 211 91 378t261 263.5t396 96.5q227 0 397 -96.5t261 -263.5t91 -378v-32q0 -211 -91 -378t-261 -263.5t-397 -96.5q-226 0 -396 96.5t-261 263.5t-91 378zM344 1597v328h377v-328h-377zM498 711q0 -184 77.5 -286.5t221.5 -102.5q145 0 223 102t78 287v32 q0 184 -77 287t-224 103t-223 -102.5t-76 -287.5v-32zM876 1597v328h377v-328h-377z" />
<glyph unicode="&#xd7;" horiz-adv-x="1126" d="M70 446l305 310l-305 311l190 190l305 -309l303 307l191 -190l-305 -309l305 -312l-189 -188l-305 309l-305 -309z" />
<glyph unicode="&#xd8;" horiz-adv-x="1595" d="M16 0l201 221q-82 96 -125 221t-43 269v32q0 211 91 378t261 263.5t396 96.5q266 0 452 -131l97 104h235l-203 -221q82 -96 125 -222t43 -268v-32q0 -211 -91 -378t-261 -263.5t-397 -96.5q-260 0 -453 131l-96 -104h-232zM498 711q0 -90 18 -164l473 518q-78 68 -192 68 q-147 0 -223 -102.5t-76 -287.5v-32zM606 391q74 -70 191 -69q145 0 223 102t78 287v32q0 92 -19 162z" />
<glyph unicode="&#xd9;" horiz-adv-x="1464" d="M80 584v870h430v-866q0 -127 51 -192.5t172 -65.5q119 0 171 65.5t52 194.5v864h428v-870q0 -301 -163.5 -456t-489.5 -155q-323 0 -487 155t-164 456zM261 1925h428l241 -328h-323z" />
<glyph unicode="&#xda;" horiz-adv-x="1464" d="M80 584v870h430v-866q0 -127 51 -192.5t172 -65.5q119 0 171 65.5t52 194.5v864h428v-870q0 -301 -163.5 -456t-489.5 -155q-323 0 -487 155t-164 456zM537 1597l241 328h428l-346 -328h-323z" />
<glyph unicode="&#xdb;" horiz-adv-x="1464" d="M80 584v870h430v-866q0 -127 51 -192.5t172 -65.5q119 0 171 65.5t52 194.5v864h428v-870q0 -301 -163.5 -456t-489.5 -155q-323 0 -487 155t-164 456zM326 1597l217 328h381l217 -328h-284l-123 123l-123 -123h-285z" />
<glyph unicode="&#xdc;" horiz-adv-x="1464" d="M80 584v870h430v-866q0 -127 51 -192.5t172 -65.5q119 0 171 65.5t52 194.5v864h428v-870q0 -301 -163.5 -456t-489.5 -155q-323 0 -487 155t-164 456zM279 1597v328h377v-328h-377zM811 1597v328h377v-328h-377z" />
<glyph unicode="&#xdd;" horiz-adv-x="1390" d="M10 1454h459l238 -561l229 561h442l-465 -975v-479h-428v479zM498 1597l241 328h428l-346 -328h-323z" />
<glyph unicode="&#xde;" horiz-adv-x="1374" d="M88 0v1454h430v-203h254q162 0 290 -58t201.5 -171t73.5 -270v-13q0 -160 -72.5 -272.5t-199.5 -169.5t-293 -57h-254v-240h-430zM518 588h201q176 0 176 151v13q0 152 -176 151h-201v-315z" />
<glyph unicode="&#xdf;" horiz-adv-x="1390" d="M76 0v985q0 272 157.5 414.5t452.5 142.5q174 0 307 -54t205 -151.5t72 -218.5v-20q0 -94 -40 -167t-110 -116q109 -51 168.5 -145.5t59.5 -229.5v-22q0 -137 -69 -237.5t-191.5 -154t-284.5 -53.5q-133 0 -215 39v279q57 -27 135 -27q223 0 223 180v25q0 182 -217 182 h-96v295h88q147 0 147 133v19q0 66 -46 104.5t-132 38.5q-113 0 -165 -61.5t-52 -194.5v-985h-397z" />
<glyph unicode="&#xe0;" horiz-adv-x="1200" d="M43 293q0 139 89 221t255 100l326 37v80q0 43 -28 67.5t-81 24.5q-59 0 -90 -25.5t-35 -72.5h-391q2 170 145.5 267.5t380.5 97.5q152 0 267.5 -43t179 -123t63.5 -187v-737h-393l-12 150q-47 -86 -132 -131.5t-206 -45.5q-148 0 -243 90.5t-95 229.5zM129 1516h438 l252 -349h-305zM440 328q0 -43 27 -67.5t80 -24.5q71 0 118.5 39.5t47.5 107.5v59l-170 -20q-51 -6 -77 -31.5t-26 -62.5z" />
<glyph unicode="&#xe1;" horiz-adv-x="1200" d="M43 293q0 139 89 221t255 100l326 37v80q0 43 -28 67.5t-81 24.5q-59 0 -90 -25.5t-35 -72.5h-391q2 170 145.5 267.5t380.5 97.5q152 0 267.5 -43t179 -123t63.5 -187v-737h-393l-12 150q-47 -86 -132 -131.5t-206 -45.5q-148 0 -243 90.5t-95 229.5zM410 1167l252 349 h438l-385 -349h-305zM440 328q0 -43 27 -67.5t80 -24.5q71 0 118.5 39.5t47.5 107.5v59l-170 -20q-51 -6 -77 -31.5t-26 -62.5z" />
<glyph unicode="&#xe2;" horiz-adv-x="1200" d="M43 293q0 139 89 221t255 100l326 37v80q0 43 -28 67.5t-81 24.5q-59 0 -90 -25.5t-35 -72.5h-391q2 170 145.5 267.5t380.5 97.5q152 0 267.5 -43t179 -123t63.5 -187v-737h-393l-12 150q-47 -86 -132 -131.5t-206 -45.5q-148 0 -243 90.5t-95 229.5zM248 1167l176 349 h381l176 -349h-246l-120 140l-121 -140h-246zM440 328q0 -43 27 -67.5t80 -24.5q71 0 118.5 39.5t47.5 107.5v59l-170 -20q-51 -6 -77 -31.5t-26 -62.5z" />
<glyph unicode="&#xe3;" horiz-adv-x="1200" d="M43 293q0 139 89 221t255 100l326 37v80q0 43 -28 67.5t-81 24.5q-59 0 -90 -25.5t-35 -72.5h-391q2 170 145.5 267.5t380.5 97.5q152 0 267.5 -43t179 -123t63.5 -187v-737h-393l-12 150q-47 -86 -132 -131.5t-206 -45.5q-148 0 -243 90.5t-95 229.5zM235 1196 q8 188 66.5 261t167.5 73q41 0 76 -11.5t80 -33.5q8 -4 37.5 -16.5t50.5 -12.5q53 0 59 66h221q-8 -182 -67.5 -258t-165.5 -76q-41 0 -76 11t-80 34q-8 4 -38 16.5t-50 12.5q-53 0 -59 -66h-222zM440 328q0 -43 27 -67.5t80 -24.5q71 0 118.5 39.5t47.5 107.5v59l-170 -20 q-51 -6 -77 -31.5t-26 -62.5z" />
<glyph unicode="&#xe4;" horiz-adv-x="1200" d="M43 293q0 139 89 221t255 100l326 37v80q0 43 -28 67.5t-81 24.5q-59 0 -90 -25.5t-35 -72.5h-391q2 170 145.5 267.5t380.5 97.5q152 0 267.5 -43t179 -123t63.5 -187v-737h-393l-12 150q-47 -86 -132 -131.5t-206 -45.5q-148 0 -243 90.5t-95 229.5zM176 1167v349h376 v-349h-376zM440 328q0 -43 27 -67.5t80 -24.5q71 0 118.5 39.5t47.5 107.5v59l-170 -20q-51 -6 -77 -31.5t-26 -62.5zM675 1167v349h377v-349h-377z" />
<glyph unicode="&#xe5;" horiz-adv-x="1200" d="M43 293q0 139 89 221t255 100l326 37v80q0 43 -28 67.5t-81 24.5q-59 0 -90 -25.5t-35 -72.5h-391q2 170 145.5 267.5t380.5 97.5q152 0 267.5 -43t179 -123t63.5 -187v-737h-393l-12 150q-47 -86 -132 -131.5t-206 -45.5q-148 0 -243 90.5t-95 229.5zM342 1436 q0 115 76.5 190.5t195.5 75.5t193.5 -75t74.5 -191q0 -117 -74.5 -193t-193.5 -76t-195.5 76t-76.5 193zM440 328q0 -43 27 -67.5t80 -24.5q71 0 118.5 39.5t47.5 107.5v59l-170 -20q-51 -6 -77 -31.5t-26 -62.5zM518 1436q0 -45 26.5 -72t71.5 -27q41 0 65.5 27t24.5 72 t-24.5 70.5t-65.5 25.5q-45 0 -71.5 -25.5t-26.5 -70.5z" />
<glyph unicode="&#xe6;" horiz-adv-x="1933" d="M43 293q0 139 89 221t255 100l326 37v80q0 43 -28 67.5t-81 24.5q-119 0 -125 -94h-391q2 168 145.5 264.5t380.5 96.5q221 0 363 -91q145 90 344 91q268 0 413.5 -159t145.5 -425q0 -43 -2 -64h-752q12 -96 57.5 -138t133.5 -42q61 0 102 26.5t54 61.5h399 q-39 -172 -185.5 -274.5t-365.5 -102.5q-141 0 -253 42t-187 120q-61 -78 -167 -120t-251 -42q-121 0 -216 41t-149.5 114t-54.5 165zM440 328q0 -43 27 -67.5t80 -24.5q72 0 119 39.5t47 107.5v59l-170 -20q-51 -6 -77 -31.5t-26 -62.5zM1128 637h345q0 76 -40 120t-118 44 q-86 0 -129 -38t-58 -126z" />
<glyph unicode="&#xe7;" horiz-adv-x="1189" d="M53 526v13q0 166 70 290.5t198 192.5t297 68q227 0 369.5 -123t167.5 -344h-401q-8 80 -38 121.5t-102 41.5q-78 0 -112.5 -62t-34.5 -185v-13q0 -127 34 -188.5t113 -61.5q72 0 100.5 40t37.5 118h399q-18 -199 -140 -318.5t-321 -138.5l-45 -79q92 -4 154.5 -52.5 t62.5 -138.5q0 -94 -82 -146.5t-209 -52.5q-119 0 -186 31v142q51 -23 133 -23q86 0 86 51t-76 51q-29 0 -62.5 -5t-47.5 -11v80l92 158q-211 31 -334 175t-123 369z" />
<glyph unicode="&#xe8;" horiz-adv-x="1251" d="M53 526v13q0 164 74 288.5t206 193.5t306 69q268 0 413.5 -159t145.5 -425q0 -43 -2 -64h-752q12 -96 57.5 -138t133.5 -42q61 0 102 26.5t54 61.5h399q-39 -172 -185.5 -274.5t-365.5 -102.5q-178 0 -310 68t-204 192.5t-72 292.5zM154 1516h438l252 -349h-305zM446 637 h345q0 76 -40 120t-118 44q-86 0 -129 -38t-58 -126z" />
<glyph unicode="&#xe9;" horiz-adv-x="1251" d="M53 526v13q0 164 74 288.5t206 193.5t306 69q268 0 413.5 -159t145.5 -425q0 -43 -2 -64h-752q12 -96 57.5 -138t133.5 -42q61 0 102 26.5t54 61.5h399q-39 -172 -185.5 -274.5t-365.5 -102.5q-178 0 -310 68t-204 192.5t-72 292.5zM434 1167l252 349h438l-385 -349h-305 zM446 637h345q0 76 -40 120t-118 44q-86 0 -129 -38t-58 -126z" />
<glyph unicode="&#xea;" horiz-adv-x="1251" d="M53 526v13q0 164 74 288.5t206 193.5t306 69q268 0 413.5 -159t145.5 -425q0 -43 -2 -64h-752q12 -96 57.5 -138t133.5 -42q61 0 102 26.5t54 61.5h399q-39 -172 -185.5 -274.5t-365.5 -102.5q-178 0 -310 68t-204 192.5t-72 292.5zM272 1167l176 349h381l176 -349h-246 l-120 140l-121 -140h-246zM446 637h345q0 76 -40 120t-118 44q-86 0 -129 -38t-58 -126z" />
<glyph unicode="&#xeb;" horiz-adv-x="1251" d="M53 526v13q0 164 74 288.5t206 193.5t306 69q268 0 413.5 -159t145.5 -425q0 -43 -2 -64h-752q12 -96 57.5 -138t133.5 -42q61 0 102 26.5t54 61.5h399q-39 -172 -185.5 -274.5t-365.5 -102.5q-178 0 -310 68t-204 192.5t-72 292.5zM201 1167v349h376v-349h-376zM446 637 h345q0 76 -40 120t-118 44q-86 0 -129 -38t-58 -126zM700 1167v349h377v-349h-377z" />
<glyph unicode="&#xec;" horiz-adv-x="573" d="M-108 1516h438l131 -349h-334zM82 0v1063h410v-1063h-410z" />
<glyph unicode="&#xed;" horiz-adv-x="573" d="M82 0v1063h410v-1063h-410zM113 1167l131 349h438l-235 -349h-334z" />
<glyph unicode="&#xee;" horiz-adv-x="573" d="M2 1167l135 349h299l135 -349h-205l-79 154l-80 -154h-205zM82 0v1063h410v-1063h-410z" />
<glyph unicode="&#xef;" horiz-adv-x="573" d="M-61 1167v349h295v-349h-295zM82 0v1063h410v-1063h-410zM340 1167v349h295v-349h-295z" />
<glyph unicode="&#xf0;" horiz-adv-x="1269" d="M53 483v15q0 135 53.5 251.5t151.5 187.5t229 71q121 0 208 -52.5t128 -140.5q-16 117 -62 203t-136 147l-314 -123l-35 107l213 82q-90 33 -237 53l67 258q313 -39 519 -174l221 86l35 -104l-154 -60q145 -131 211 -302t66 -347v-14q0 -317 -160 -485.5t-443 -168.5 q-170 0 -297 66.5t-195.5 182.5t-68.5 261zM467 483q0 -100 39 -153.5t129 -53.5t129 53.5t39 153.5v15q0 211 -160 211q-176 0 -176 -211v-15z" />
<glyph unicode="&#xf1;" d="M82 0v1063h389l10 -160q43 78 125 132.5t207 54.5q197 0 284 -111t87 -299v-680h-410v573q0 96 -29.5 145.5t-103.5 49.5q-68 0 -108.5 -49t-40.5 -144v-575h-410zM245 1196q8 188 66.5 261t167.5 73q41 0 76 -11.5t80 -33.5q8 -4 37.5 -16.5t50.5 -12.5q53 0 59 66h221 q-8 -182 -67.5 -258t-165.5 -76q-41 0 -76 11t-80 34q-8 4 -38 16.5t-50 12.5q-53 0 -59 -66h-222z" />
<glyph unicode="&#xf2;" horiz-adv-x="1269" d="M53 524v15q0 158 73 283.5t205 196.5t304 71t304 -71t205 -197t73 -283v-15q0 -158 -73 -283.5t-205 -196.5t-304 -71t-304 71t-205 197t-73 283zM149 1516h438l252 -349h-305zM467 524q0 -129 38 -188.5t130 -59.5t130 59.5t38 188.5v15q0 129 -38 188t-130 59t-130 -59 t-38 -188v-15z" />
<glyph unicode="&#xf3;" horiz-adv-x="1269" d="M53 524v15q0 158 73 283.5t205 196.5t304 71t304 -71t205 -197t73 -283v-15q0 -158 -73 -283.5t-205 -196.5t-304 -71t-304 71t-205 197t-73 283zM430 1167l252 349h438l-385 -349h-305zM467 524q0 -129 38 -188.5t130 -59.5t130 59.5t38 188.5v15q0 129 -38 188t-130 59 t-130 -59t-38 -188v-15z" />
<glyph unicode="&#xf4;" horiz-adv-x="1269" d="M53 524v15q0 158 73 283.5t205 196.5t304 71t304 -71t205 -197t73 -283v-15q0 -158 -73 -283.5t-205 -196.5t-304 -71t-304 71t-205 197t-73 283zM268 1167l176 349h381l176 -349h-246l-120 140l-121 -140h-246zM467 524q0 -129 38 -188.5t130 -59.5t130 59.5t38 188.5 v15q0 129 -38 188t-130 59t-130 -59t-38 -188v-15z" />
<glyph unicode="&#xf5;" horiz-adv-x="1269" d="M53 524v15q0 158 73 283.5t205 196.5t304 71t304 -71t205 -197t73 -283v-15q0 -158 -73 -283.5t-205 -196.5t-304 -71t-304 71t-205 197t-73 283zM256 1196q8 188 66.5 261t167.5 73q41 0 76 -11.5t80 -33.5q8 -4 37.5 -16.5t50.5 -12.5q53 0 59 66h221 q-8 -182 -67.5 -258t-165.5 -76q-41 0 -76 11t-80 34q-8 4 -38 16.5t-50 12.5q-53 0 -59 -66h-222zM467 524q0 -129 38 -188.5t130 -59.5t130 59.5t38 188.5v15q0 129 -38 188t-130 59t-130 -59t-38 -188v-15z" />
<glyph unicode="&#xf6;" horiz-adv-x="1269" d="M53 524v15q0 158 73 283.5t205 196.5t304 71t304 -71t205 -197t73 -283v-15q0 -158 -73 -283.5t-205 -196.5t-304 -71t-304 71t-205 197t-73 283zM197 1167v349h376v-349h-376zM467 524q0 -129 38 -188.5t130 -59.5t130 59.5t38 188.5v15q0 129 -38 188t-130 59t-130 -59 t-38 -188v-15zM696 1167v349h377v-349h-377z" />
<glyph unicode="&#xf7;" horiz-adv-x="1126" d="M141 571v297h844v-297h-844zM395 152v276h336v-276h-336zM395 1012v276h336v-276h-336z" />
<glyph unicode="&#xf8;" horiz-adv-x="1269" d="M-14 0l182 180q-115 143 -115 344v15q0 158 73 283.5t205 196.5t304 71q203 0 352 -101l74 74h221l-180 -178q115 -143 115 -346v-15q0 -158 -73 -283.5t-205 -196.5t-304 -71q-203 0 -352 101l-76 -74h-221zM467 524q0 -33 2 -47l276 273q-39 37 -110 36q-92 0 -130 -59 t-38 -188v-15zM524 313q41 -37 111 -37q92 0 130 59.5t38 188.5v15q0 33 -2 49z" />
<glyph unicode="&#xf9;" horiz-adv-x="1249" d="M76 391v672h411v-592q0 -176 123 -176q66 0 105 48t39 153v567h413v-1063h-393l-10 150q-45 -74 -127 -125.5t-188 -51.5q-189 0 -281 110t-92 308zM141 1516h438l252 -349h-305z" />
<glyph unicode="&#xfa;" horiz-adv-x="1249" d="M76 391v672h411v-592q0 -176 123 -176q66 0 105 48t39 153v567h413v-1063h-393l-10 150q-45 -74 -127 -125.5t-188 -51.5q-189 0 -281 110t-92 308zM422 1167l252 349h438l-385 -349h-305z" />
<glyph unicode="&#xfb;" horiz-adv-x="1249" d="M76 391v672h411v-592q0 -176 123 -176q66 0 105 48t39 153v567h413v-1063h-393l-10 150q-45 -74 -127 -125.5t-188 -51.5q-189 0 -281 110t-92 308zM260 1167l176 349h381l176 -349h-246l-120 140l-121 -140h-246z" />
<glyph unicode="&#xfc;" horiz-adv-x="1249" d="M76 391v672h411v-592q0 -176 123 -176q66 0 105 48t39 153v567h413v-1063h-393l-10 150q-45 -74 -127 -125.5t-188 -51.5q-189 0 -281 110t-92 308zM189 1167v349h376v-349h-376zM688 1167v349h377v-349h-377z" />
<glyph unicode="&#xfd;" horiz-adv-x="1222" d="M8 1063h430l183 -606l178 606h415l-528 -1411h-424l144 364zM408 1167l252 349h438l-385 -349h-305z" />
<glyph unicode="&#xfe;" horiz-adv-x="1302" d="M82 -348v1864h412v-590q39 72 112.5 118t173.5 46q143 0 250 -72t163 -198t56 -283v-13q0 -156 -54 -280.5t-156.5 -197.5t-243.5 -73q-102 0 -180 44t-121 120v-485h-412zM483 526q0 -131 41 -191.5t135 -60.5q95 0 136 60.5t41 191.5v13q0 131 -41 191.5t-136 60.5 q-94 0 -135 -60.5t-41 -191.5v-13z" />
<glyph unicode="&#xff;" horiz-adv-x="1222" d="M8 1063h430l183 -606l178 606h415l-528 -1411h-424l144 364zM174 1167v349h376v-349h-376zM673 1167v349h377v-349h-377z" />
<glyph unicode="&#x152;" horiz-adv-x="2297" d="M49 711v32q0 207 87 376t239.5 265.5t339.5 96.5q225 0 383 -107v80h1128v-344h-706v-207h614v-330h-614v-229h727v-344h-1149v80q-158 -106 -383 -107q-186 0 -339 96.5t-240 265.5t-87 376zM498 711q0 -184 77.5 -286.5t221.5 -102.5q145 0 223 102t78 287v32 q0 184 -77 287t-224 103t-223 -102.5t-76 -287.5v-32z" />
<glyph unicode="&#x153;" horiz-adv-x="2017" d="M53 524v15q0 158 73 283.5t205 196.5t304 71q113 0 209 -32t172 -89q156 121 389 121q268 0 413.5 -159t145.5 -425q0 -43 -2 -64h-752v-4q12 -94 57.5 -135t133.5 -41q61 0 102 26.5t53 61.5h400q-39 -172 -185.5 -274.5t-365.5 -102.5q-238 0 -391 119 q-154 -119 -379 -119q-172 0 -304 71t-205 197t-73 283zM467 524q0 -129 38 -188.5t130 -59.5t130 59.5t38 188.5v15q0 129 -38 188t-130 59t-130 -59t-38 -188v-15zM1212 637h344q0 76 -39.5 120t-117.5 44q-86 0 -129 -38t-58 -126z" />
<glyph unicode="&#x178;" horiz-adv-x="1390" d="M10 1454h459l238 -561l229 561h442l-465 -975v-479h-428v479zM240 1597v328h377v-328h-377zM772 1597v328h377v-328h-377z" />
<glyph unicode="&#x2c6;" horiz-adv-x="1142" d="M205 1167l176 349h381l176 -349h-246l-120 140l-121 -140h-246z" />
<glyph unicode="&#x2dc;" horiz-adv-x="1167" d="M204 1196q8 188 66.5 261t167.5 73q41 0 76 -11.5t80 -33.5q8 -4 37.5 -16.5t50.5 -12.5q53 0 59 66h221q-8 -182 -67.5 -258t-165.5 -76q-41 0 -76 11t-80 34q-8 4 -38 16.5t-50 12.5q-53 0 -59 -66h-222z" />
<glyph unicode="&#x2000;" horiz-adv-x="1045" />
<glyph unicode="&#x2001;" horiz-adv-x="2091" />
<glyph unicode="&#x2002;" horiz-adv-x="1045" />
<glyph unicode="&#x2003;" horiz-adv-x="2091" />
<glyph unicode="&#x2004;" horiz-adv-x="697" />
<glyph unicode="&#x2005;" horiz-adv-x="522" />
<glyph unicode="&#x2006;" horiz-adv-x="348" />
<glyph unicode="&#x2007;" horiz-adv-x="348" />
<glyph unicode="&#x2008;" horiz-adv-x="261" />
<glyph unicode="&#x2009;" horiz-adv-x="418" />
<glyph unicode="&#x200a;" horiz-adv-x="116" />
<glyph unicode="&#x2010;" horiz-adv-x="845" d="M72 438v291h702v-291h-702z" />
<glyph unicode="&#x2011;" horiz-adv-x="845" d="M72 438v291h702v-291h-702z" />
<glyph unicode="&#x2012;" horiz-adv-x="845" d="M72 438v291h702v-291h-702z" />
<glyph unicode="&#x2013;" horiz-adv-x="1296" d="M82 438v291h1132v-291h-1132z" />
<glyph unicode="&#x2014;" horiz-adv-x="1794" d="M20 438v291h1754v-291h-1754z" />
<glyph unicode="&#x2018;" horiz-adv-x="716" d="M184 811v332q0 193 92.5 287t280.5 94v-189q-88 0 -119.5 -26.5t-31.5 -100.5v-53h126v-344h-348z" />
<glyph unicode="&#x2019;" horiz-adv-x="716" d="M160 803v188q88 0 119.5 26.5t31.5 100.5v53h-127v345h348v-332q0 -193 -92 -287t-280 -94z" />
<glyph unicode="&#x201a;" horiz-adv-x="716" d="M160 -180q88 0 119.5 26.5t31.5 100.5v53h-127v344h348v-332q0 -193 -92 -287t-280 -94v189z" />
<glyph unicode="&#x201c;" horiz-adv-x="1208" d="M184 811v332q0 193 92.5 287t280.5 94v-189q-88 0 -119.5 -26.5t-31.5 -100.5v-53h126v-344h-348zM676 811v332q0 193 92.5 287t280.5 94v-189q-88 0 -119.5 -26.5t-31.5 -100.5v-53h126v-344h-348z" />
<glyph unicode="&#x201d;" horiz-adv-x="1208" d="M160 803v188q88 0 119.5 26.5t31.5 100.5v53h-127v345h348v-332q0 -193 -92 -287t-280 -94zM652 803v188q88 0 119.5 26.5t31.5 100.5v53h-127v345h348v-332q0 -193 -92 -287t-280 -94z" />
<glyph unicode="&#x201e;" horiz-adv-x="1208" d="M160 -180q88 0 119.5 26.5t31.5 100.5v53h-127v344h348v-332q0 -193 -92 -287t-280 -94v189zM652 -180q88 0 119.5 26.5t31.5 100.5v53h-127v344h348v-332q0 -193 -92 -287t-280 -94v189z" />
<glyph unicode="&#x2022;" horiz-adv-x="843" d="M143 586q0 133 83 204.5t196 71.5t195.5 -71.5t82.5 -204.5t-82.5 -204t-195.5 -71t-196 71t-83 204z" />
<glyph unicode="&#x2026;" horiz-adv-x="1703" d="M184 0v344h348v-344h-348zM678 0v344h348v-344h-348zM1171 0v344h348v-344h-348z" />
<glyph unicode="&#x202f;" horiz-adv-x="418" />
<glyph unicode="&#x2039;" horiz-adv-x="790" d="M41 506v14l328 410h370l-329 -414l329 -420h-374z" />
<glyph unicode="&#x203a;" horiz-adv-x="790" d="M51 96l330 418l-330 416h373l326 -410v-14l-326 -410h-373z" />
<glyph unicode="&#x205f;" horiz-adv-x="522" />
<glyph unicode="&#x20ac;" horiz-adv-x="1161" d="M0 520v148h117q-2 14 -2 43v32q0 35 2 52h-117v147h139q41 162 144.5 283t262.5 188.5t353 67.5q127 0 211 -21v-344q-70 16 -172 17q-143 0 -226 -49.5t-118 -141.5h311v-147h-340q-2 -16 -2 -52v-32v-43h342v-148h-315q33 -98 117 -148t231 -50q102 0 172 16v-344 q-84 -20 -211 -21q-197 0 -355.5 69t-263 191.5t-143.5 286.5h-137z" />
<glyph unicode="&#x2122;" horiz-adv-x="1654" d="M6 1245v209h615v-209h-183v-491h-250v491h-182zM702 754v700h338l117 -405l117 405h323v-700h-219v438l-131 -438h-188l-131 432v-432h-226z" />
<glyph unicode="&#x25fc;" horiz-adv-x="1064" d="M0 0v1065h1065v-1065h-1065z" />
</font>
</defs>
</svg>
