<?xml version="1.0" standalone="no"?>
<!DOCTYPE svg PUBLIC "-//W3C//DTD SVG 1.1//EN" "http://www.w3.org/Graphics/SVG/1.1/DTD/svg11.dtd" >
<svg xmlns="http://www.w3.org/2000/svg" xmlns:xlink="http://www.w3.org/1999/xlink" version="1.1">
<metadata></metadata>
<defs>
<font id="elzamedium" horiz-adv-x="1533" >
<font-face units-per-em="2048" ascent="1638" descent="-410" />
<missing-glyph horiz-adv-x="380" />
<glyph unicode="&#xfb01;" horiz-adv-x="1226" d="M23 885v170h204v176q0 311 346 311q78 0 172 -24v-179q-78 20 -129 21q-90 0 -126.5 -36t-36.5 -118v-151h286v-170h-286v-885h-226v885h-204zM885 1208v308h235v-308h-235zM889 0v1055h225v-1055h-225z" />
<glyph unicode="&#xfb02;" horiz-adv-x="1228" d="M23 885v170h204v176q0 311 346 311q78 0 172 -24v-179q-78 20 -129 21q-90 0 -126.5 -36t-36.5 -118v-151h286v-170h-286v-885h-226v885h-204zM889 0v1516h225v-1516h-225z" />
<glyph horiz-adv-x="0" />
<glyph unicode="&#xd;" horiz-adv-x="681" />
<glyph unicode=" "  horiz-adv-x="380" />
<glyph unicode="&#x09;" horiz-adv-x="380" />
<glyph unicode="&#xa0;" horiz-adv-x="380" />
<glyph unicode="!" horiz-adv-x="495" d="M127 0v246h244v-246h-244zM129 1053v401h238v-401l-45 -639h-148z" />
<glyph unicode="&#x22;" horiz-adv-x="1003" d="M193 1407v109h235v-109l-31 -391h-174zM574 1407v109h235v-109l-31 -391h-174z" />
<glyph unicode="#" horiz-adv-x="1169" d="M41 403v175h211l22 301h-200v176h215l30 399h187l-31 -399h281l28 399h187l-31 -399h188v-176h-204l-21 -301h191v-175h-205l-31 -403h-186l30 403h-278l-31 -403h-186l33 403h-199zM436 578h279l24 301h-280z" />
<glyph unicode="$" horiz-adv-x="1284" d="M63 461h238q14 -127 88 -196.5t197 -86.5v465q-254 47 -362.5 146.5t-108.5 265.5v14q0 111 58 201t164.5 145t248.5 64v139h149v-143q197 -23 319 -136.5t140 -306.5h-240q-12 100 -68.5 160.5t-150.5 81.5v-440q248 -47 366 -144.5t118 -267.5v-16q0 -176 -130.5 -293 t-353.5 -138v-139h-149v139q-233 18 -372.5 145.5t-150.5 340.5zM348 1065q0 -76 50.5 -123t187.5 -80v420q-113 -10 -175.5 -65.5t-62.5 -141.5v-10zM735 176q115 10 181.5 65.5t66.5 147.5v10q0 80 -55.5 128t-192.5 85v-436z" />
<glyph unicode="%" horiz-adv-x="1681" d="M39 1139q0 113 52 190.5t132 114.5t164 37t164 -37t132 -115t52 -190q0 -111 -52 -188t-133 -114.5t-163 -37.5q-84 0 -164 37.5t-132 114.5t-52 188zM188 0l1072 1454h225l-1069 -1454h-228zM221 1139q0 -76 47 -122t119 -46q70 0 117 46t47 122q0 80 -47 125t-117 45 q-72 0 -119 -45t-47 -125zM948 313q0 113 52.5 191t131 114.5t162.5 36.5t165 -36.5t133.5 -114.5t52.5 -191q0 -111 -52.5 -187.5t-133.5 -114.5t-165 -38q-82 0 -161.5 38t-132 115t-52.5 187zM1130 313q0 -76 47.5 -122t116.5 -46q72 0 119 46.5t47 121.5q0 82 -47 126 t-119 44t-118 -44t-46 -126z" />
<glyph unicode="&#x26;" horiz-adv-x="1308" d="M70 385q0 127 68.5 223.5t232.5 194.5l-23 26q-59 70 -95 149t-36 159q0 96 47 175t134 124t204 45q102 0 182 -43t125 -118t45 -165q0 -121 -67.5 -215t-210.5 -182l276 -342q33 88 33 192q0 53 -4 82h227q2 -23 2 -63q0 -229 -110 -391l192 -236h-260l-74 90 q-168 -117 -385 -117q-154 0 -267 53.5t-174.5 146.5t-61.5 212zM307 391q0 -98 71 -157.5t204 -59.5q145 0 245 74l-331 403q-109 -70 -149 -128t-40 -132zM446 1133q0 -51 19.5 -96.5t64.5 -100.5l25 -29q100 61 136 113.5t36 128.5q0 61 -36 100t-95 39q-70 0 -110 -43 t-40 -112z" />
<glyph unicode="'" horiz-adv-x="622" d="M193 1407v109h235v-109l-31 -391h-174z" />
<glyph unicode="(" horiz-adv-x="679" d="M113 627q0 238 85 468t240 421h201q-127 -190 -202 -427t-75 -462t75 -463t202 -428h-201q-154 188 -239.5 419.5t-85.5 471.5z" />
<glyph unicode=")" horiz-adv-x="679" d="M41 -264q127 190 201.5 427.5t74.5 463.5q0 225 -74.5 461.5t-201.5 427.5h203q154 -190 238.5 -421t84.5 -468q0 -240 -85 -471.5t-238 -419.5h-203z" />
<glyph unicode="*" horiz-adv-x="935" d="M193 1245l30 146l193 -68l-29 193h162l-29 -195l193 70l30 -146l-182 -14l133 -152l-139 -80l-86 191l-86 -191l-139 80l129 150z" />
<glyph unicode="+" horiz-adv-x="1126" d="M92 645v199h367v393h211v-393h366v-199h-366v-393h-211v393h-367z" />
<glyph unicode="," horiz-adv-x="630" d="M127 -219q90 0 131 41t41 135v43h-106v246h243v-275q0 -158 -78.5 -236.5t-230.5 -78.5v125z" />
<glyph unicode="-" horiz-adv-x="858" d="M111 502v194h634v-194h-634z" />
<glyph unicode="." horiz-adv-x="630" d="M193 0v246h243v-246h-243z" />
<glyph unicode="/" horiz-adv-x="942" d="M102 -205l529 1721h209l-529 -1721h-209z" />
<glyph unicode="0" horiz-adv-x="1259" d="M90 707v41q0 342 140.5 537.5t398.5 195.5q262 0 401 -195.5t139 -537.5v-41q0 -346 -138 -540t-402 -194q-260 0 -399.5 194.5t-139.5 539.5zM334 696q0 -268 72.5 -397t222.5 -129q153 0 225 129t72 397v62q0 268 -72 397t-225 129q-150 0 -222.5 -130t-72.5 -396v-62z " />
<glyph unicode="1" horiz-adv-x="778" d="M80 1001v213q109 23 200 84.5t152 155.5h174v-1454h-233v1137q-117 -100 -293 -136z" />
<glyph unicode="2" horiz-adv-x="1110" d="M57 0v164q0 133 35 228t133.5 180t288.5 163q123 51 184.5 95t85 95.5t23.5 129.5v6q0 98 -62.5 161.5t-171.5 63.5q-123 0 -192.5 -68.5t-73.5 -193.5h-237q12 209 145 333t354 124q139 0 247 -55.5t167 -149.5t59 -209v-12q0 -106 -34.5 -189.5t-124.5 -158 t-252 -144.5q-139 -59 -208 -110.5t-92.5 -108.5t-25.5 -145h748v-199h-996z" />
<glyph unicode="3" horiz-adv-x="1259" d="M90 436h238q10 -127 90 -194.5t217 -67.5q127 0 208 63.5t81 170.5v28q0 106 -78 164.5t-205 58.5h-152v187h148q111 0 181.5 54t70.5 151v28q0 90 -70.5 148.5t-179.5 58.5q-129 0 -204 -68.5t-83 -193.5h-229q6 135 72.5 238.5t181.5 161t258 57.5q135 0 244.5 -49.5 t172 -137.5t62.5 -202v-23q0 -109 -63.5 -190.5t-167.5 -116.5q125 -33 202.5 -122t77.5 -220v-23q0 -125 -68.5 -221t-189.5 -149.5t-272 -53.5q-244 0 -389.5 124t-153.5 339z" />
<glyph unicode="4" horiz-adv-x="1214" d="M49 348v189l656 917h235v-915h207v-191h-207v-348h-225v348h-666zM272 537h443v626z" />
<glyph unicode="5" horiz-adv-x="1259" d="M113 416h237q12 -117 92 -181.5t199 -64.5q129 0 210 78t81 205v28q0 129 -80 206t-211 77q-88 0 -160.5 -39t-113.5 -102l-201 14l129 817h805v-199h-631l-68 -411q55 49 131 76.5t162 27.5q133 0 240.5 -58.5t169 -162.5t61.5 -242v-22q0 -143 -67.5 -254t-187 -173.5 t-273.5 -62.5q-223 0 -366.5 120t-157.5 323z" />
<glyph unicode="6" horiz-adv-x="1259" d="M94 688v74q0 225 66.5 387t190.5 247t296 85q207 0 341 -109.5t163 -300.5h-236q-20 102 -89.5 157.5t-178.5 55.5q-160 0 -244 -118.5t-84 -385.5v-39q53 90 150.5 143.5t224.5 53.5q129 0 235.5 -56.5t169 -158.5t62.5 -238v-22q0 -141 -66.5 -253t-183 -174.5 t-266.5 -62.5q-170 0 -294 83t-190.5 244t-66.5 388zM362 453q0 -125 79 -206t204 -81q123 0 199 79t76 208v28q0 121 -75 195t-200 74t-204 -76t-79 -195v-26z" />
<glyph unicode="7" horiz-adv-x="1155" d="M74 1255v199h1034v-166q-469 -604 -586 -1288h-258q123 647 584 1255h-774z" />
<glyph unicode="8" horiz-adv-x="1259" d="M96 393v21q0 131 78 223t201 125q-102 37 -163.5 120t-61.5 193v21q0 113 62 199.5t173 136t246 49.5t243.5 -49.5t172 -137.5t63.5 -198v-21q0 -109 -62.5 -191.5t-164.5 -121.5q121 -35 200.5 -127t79.5 -221v-21q0 -127 -67.5 -221t-188.5 -146.5t-276 -52.5 q-156 0 -278 52.5t-189.5 146.5t-67.5 221zM338 406q0 -109 82 -173.5t211 -64.5q127 0 209 64.5t82 173.5v18q0 109 -83 173.5t-208 64.5q-127 0 -210 -65t-83 -173v-18zM377 1063q0 -96 71.5 -152.5t182.5 -56.5q108 0 180 56.5t72 152.5v18q0 96 -71 153.5t-181 57.5 q-111 0 -182.5 -57t-71.5 -154v-18z" />
<glyph unicode="9" horiz-adv-x="1259" d="M98 969v22q0 141 65.5 253t183.5 174.5t267 62.5q256 0 403.5 -185.5t147.5 -527.5v-76q0 -225 -66.5 -387t-190.5 -247t-296 -85q-206 0 -340.5 111t-160.5 299h233q16 -100 87 -156.5t181 -56.5q160 0 244 119t84 385v39q-51 -90 -149.5 -143.5t-225.5 -53.5 q-129 0 -235.5 56.5t-169 159t-62.5 237.5zM340 973q0 -121 76 -194.5t198 -73.5q125 0 204 75.5t79 194.5v26q0 125 -79 206t-204 81q-123 0 -198.5 -79t-75.5 -208v-28z" />
<glyph unicode=":" horiz-adv-x="630" d="M193 0v246h243v-246h-243zM193 807v248h243v-248h-243z" />
<glyph unicode=";" horiz-adv-x="630" d="M127 -219q90 0 131 41t41 135v43h-106v246h243v-275q0 -158 -78.5 -236.5t-230.5 -78.5v125zM193 807v248h243v-248h-243z" />
<glyph unicode="&#x3c;" horiz-adv-x="1126" d="M102 655v191l891 344v-184l-676 -252l676 -254v-191z" />
<glyph unicode="=" horiz-adv-x="1126" d="M92 432v199h942v-199h-942zM92 881v198h942v-198h-942z" />
<glyph unicode="&#x3e;" horiz-adv-x="1126" d="M133 309v191l676 254l-676 252v184l893 -344v-191z" />
<glyph unicode="?" horiz-adv-x="1103" d="M43 1024q20 221 164.5 339t363.5 118q143 0 255 -53.5t173.5 -145.5t61.5 -207v-14q0 -94 -33 -159.5t-81 -108.5t-126 -95q-68 -47 -105.5 -79.5t-64 -79.5t-26.5 -111v-18h-240v34q0 90 35 157t84 110t129 98q96 66 142 117t46 127v20q0 96 -67.5 154.5t-180.5 58.5 q-125 0 -201.5 -66.5t-90.5 -195.5h-238zM383 0v256h246v-256h-246z" />
<glyph unicode="@" horiz-adv-x="1978" d="M76 475q0 272 123 487.5t340 336t489 120.5q246 0 445.5 -100t314.5 -281.5t115 -414.5q0 -170 -58.5 -307.5t-163 -217.5t-241.5 -80q-98 0 -163 48.5t-79 132.5q-45 -78 -134 -129.5t-200 -51.5q-115 0 -203 53.5t-138 149.5t-50 223q0 43 6 88l6 39q29 215 156 340 t320 125q106 0 184 -46t115 -116l28 138h205l-84 -703q-2 -14 -2 -37q0 -47 19.5 -68.5t64.5 -21.5q68 0 126 53.5t93 153.5t35 234q0 213 -92 360t-255 222t-370 75q-229 0 -408.5 -97.5t-281.5 -279.5t-102 -428q0 -227 86 -386t239.5 -238.5t358.5 -79.5q139 0 225 30 v-145q-78 -31 -225 -31q-248 0 -439.5 104.5t-298 297t-106.5 448.5zM700 444q0 -121 61.5 -186t172.5 -65q248 0 293 319l4 29q6 41 6 75q0 119 -61.5 183.5t-171.5 64.5q-125 0 -198 -81t-95 -234l-4 -29q-6 -39 -7 -76z" />
<glyph unicode="A" horiz-adv-x="1427" d="M25 0l559 1454h260l559 -1454h-252l-129 354h-625l-131 -354h-241zM471 553h477l-237 647z" />
<glyph unicode="B" horiz-adv-x="1323" d="M123 0v1454h594q223 0 348 -93t125 -280v-22q0 -96 -48 -173t-138 -118q117 -37 184 -128t67 -210v-24q0 -190 -137 -298t-356 -108h-639zM356 197h387q125 0 198 54t73 159v26q0 102 -66.5 154.5t-193.5 52.5h-398v-446zM356 840h349q246 0 245 200v23q0 102 -62.5 148 t-189.5 46h-342v-417z" />
<glyph unicode="C" horiz-adv-x="1431" d="M76 702v50q0 213 85 378.5t239.5 258t357.5 92.5q172 0 306 -69t214 -194.5t94 -291.5h-242q-23 164 -121 257t-253 93q-133 0 -231.5 -66.5t-150.5 -184.5t-52 -273v-50q0 -154 52 -272.5t150.5 -184t231.5 -65.5q164 0 264 100.5t108 268.5h244q-12 -166 -90 -297 t-213 -205t-313 -74q-203 0 -357.5 92.5t-238.5 257t-84 379.5z" />
<glyph unicode="D" horiz-adv-x="1425" d="M123 0v1454h508q215 0 376.5 -82t252 -239.5t90.5 -380.5v-50q0 -221 -90.5 -379.5t-252 -240.5t-376.5 -82h-508zM360 201h254q231 0 360.5 124t129.5 377v50q0 254 -129 377.5t-365 123.5h-250v-1052z" />
<glyph unicode="E" horiz-adv-x="1222" d="M123 0v1454h1001v-199h-764v-413h701v-199h-701v-444h777v-199h-1014z" />
<glyph unicode="F" horiz-adv-x="1138" d="M123 0v1454h952v-199h-715v-438h648v-199h-648v-618h-237z" />
<glyph unicode="G" horiz-adv-x="1474" d="M76 702v50q0 213 85 378.5t240.5 258t358.5 92.5q166 0 297 -63.5t212 -177.5t101 -261h-242q-29 139 -126 218t-244 79q-205 0 -320.5 -144.5t-115.5 -379.5v-50q0 -156 53 -274.5t152.5 -184t232.5 -65.5t223 52.5t135 139.5t47 189v31h-430v194h639v-784h-186l-23 201 q-55 -102 -171.5 -165t-258.5 -63q-194 0 -343.5 92.5t-232.5 258t-83 378.5z" />
<glyph unicode="H" horiz-adv-x="1439" d="M123 0v1454h239v-606h715v606h240v-1454h-240v647h-715v-647h-239z" />
<glyph unicode="I" horiz-adv-x="509" d="M135 0v1454h240v-1454h-240z" />
<glyph unicode="J" horiz-adv-x="1163" d="M61 432v80h236v-76q0 -254 254 -254q133 0 195.5 70t62.5 215v987h238v-977q0 -236 -129.5 -370t-362.5 -134q-238 0 -366 124t-128 335z" />
<glyph unicode="K" horiz-adv-x="1294" d="M123 0v1454h239v-694l611 694h282l-563 -627l584 -827h-275l-469 668l-170 -189v-479h-239z" />
<glyph unicode="L" horiz-adv-x="1013" d="M123 0v1454h239v-1255h609v-199h-848z" />
<glyph unicode="M" horiz-adv-x="1746" d="M123 0v1454h350l408 -1159l405 1159h338v-1454h-229v1178l-418 -1178h-201l-420 1180v-1180h-233z" />
<glyph unicode="N" horiz-adv-x="1441" d="M123 0v1454h285l682 -1116v1116h229v-1454h-268l-697 1145v-1145h-231z" />
<glyph unicode="O" d="M76 702v50q0 213 85 378.5t241.5 258t363.5 92.5q209 0 365.5 -92.5t241.5 -257t85 -379.5v-50q0 -213 -85 -378.5t-241.5 -258t-365.5 -92.5q-207 0 -363.5 92.5t-241.5 258t-85 378.5zM322 702q0 -240 118.5 -382t325.5 -142q209 0 326.5 141.5t117.5 382.5v50 q0 242 -117.5 383t-326.5 141t-326.5 -142.5t-117.5 -381.5v-50z" />
<glyph unicode="P" horiz-adv-x="1265" d="M123 0v1454h592q225 0 361 -113.5t136 -320.5v-33q0 -207 -136 -320.5t-361 -113.5h-357v-553h-235zM358 754h338q127 0 200 58t73 175v33q0 117 -73 175t-200 58h-338v-499z" />
<glyph unicode="Q" d="M76 702v50q0 213 85 378.5t241.5 258t363.5 92.5q209 0 365.5 -92.5t241.5 -257t85 -379.5v-50q0 -201 -75.5 -359.5t-213.5 -252.5l164 -264h-239l-111 176q-102 -29 -217 -29q-207 0 -363.5 92.5t-241.5 258t-85 378.5zM322 702q0 -240 118.5 -382t325.5 -142 q47 0 102 10l-170 275h240l115 -184q78 68 118.5 176t40.5 247v50q0 242 -118.5 383t-327.5 141t-326.5 -142.5t-117.5 -381.5v-50z" />
<glyph unicode="R" horiz-adv-x="1288" d="M123 0v1454h612q225 0 361.5 -113.5t136.5 -320.5v-33q0 -168 -91 -274.5t-251 -141.5l373 -571h-273l-352 553h-281v-553h-235zM358 754h359q127 0 199.5 58t72.5 175v33q0 117 -72.5 175t-199.5 58h-359v-499z" />
<glyph unicode="S" horiz-adv-x="1284" d="M63 461h238q14 -145 112.5 -217t256.5 -72q141 0 227 55.5t86 161.5v10q0 63 -35 107.5t-117.5 76t-230.5 58.5q-262 47 -373.5 146.5t-111.5 267.5v14q0 119 65.5 212t184 146.5t274.5 53.5q236 0 385.5 -116t169.5 -333h-240q-14 125 -98 188.5t-221 63.5 q-133 0 -210 -56.5t-77 -152.5v-10q0 -59 29 -99t104.5 -71t216.5 -55q266 -45 393.5 -144.5t127.5 -273.5v-16q0 -125 -69 -223.5t-195 -154t-296 -55.5q-264 0 -423.5 128t-172.5 360z" />
<glyph unicode="T" horiz-adv-x="1181" d="M43 1255v199h1098v-199h-430v-1255h-240v1255h-428z" />
<glyph unicode="U" horiz-adv-x="1409" d="M117 555v899h239v-893q0 -379 349 -379q174 0 262 96.5t88 284.5v891h237v-897q0 -279 -149.5 -431.5t-437.5 -152.5q-287 0 -437.5 151.5t-150.5 430.5z" />
<glyph unicode="V" horiz-adv-x="1337" d="M25 1454h254l395 -1186l391 1186h246l-512 -1454h-260z" />
<glyph unicode="W" horiz-adv-x="1978" d="M25 1454h247l287 -1157l309 1157h258l306 -1159l284 1159h238l-391 -1454h-267l-303 1135l-303 -1135h-276z" />
<glyph unicode="X" horiz-adv-x="1374" d="M16 0l529 756l-490 698h279l356 -526l363 526h266l-492 -696l531 -758h-281l-395 580l-397 -580h-269z" />
<glyph unicode="Y" horiz-adv-x="1302" d="M20 1454h261l374 -756l375 756h252l-512 -983v-471h-238v471z" />
<glyph unicode="Z" horiz-adv-x="1138" d="M57 0v180l727 1075h-688v199h969v-180l-725 -1075h741v-199h-1024z" />
<glyph unicode="[" horiz-adv-x="745" d="M166 -231v1747h459v-205h-217v-1338h217v-204h-459z" />
<glyph unicode="\" horiz-adv-x="960" d="M102 1516h228l528 -1721h-227z" />
<glyph unicode="]" horiz-adv-x="745" d="M121 -27h217v1338h-217v205h459v-1747h-459v204z" />
<glyph unicode="^" horiz-adv-x="888" d="M111 272l219 865h227l219 -865h-172l-160 660l-159 -660h-174z" />
<glyph unicode="_" horiz-adv-x="753" d="M70 -27h614v-192h-614v192z" />
<glyph unicode="`" horiz-adv-x="940" d="M205 1516h301l229 -308h-205z" />
<glyph unicode="a" horiz-adv-x="1087" d="M66 285q0 127 73.5 205.5t208.5 97.5l416 61v76q0 86 -56.5 132t-156.5 46t-160.5 -43t-68.5 -123h-216q14 162 134 252t315 90q201 0 313.5 -98t112.5 -264v-717h-207l-8 164q-49 -90 -141.5 -140.5t-204.5 -50.5q-160 0 -257 87t-97 225zM285 295q0 -68 49 -105.5 t137 -37.5q121 0 207 67.5t86 167.5v96l-338 -47q-72 -10 -106.5 -45t-34.5 -96z" />
<glyph unicode="b" horiz-adv-x="1206" d="M113 0v1516h227v-617q49 82 137 131t207 49q135 0 237.5 -68.5t158 -190.5t55.5 -277v-31q0 -158 -56.5 -279.5t-161 -190.5t-239.5 -69q-125 0 -215 58.5t-133 142.5l-6 -174h-211zM332 512q0 -172 74.5 -264t216.5 -92q135 0 208.5 93t73.5 263v31q0 170 -73.5 264 t-208.5 94q-141 0 -216 -93t-75 -265v-31z" />
<glyph unicode="c" horiz-adv-x="1110" d="M72 512v31q0 160 60.5 281.5t176 188t273.5 66.5q197 0 320.5 -107.5t146.5 -291.5h-222q-18 104 -79.5 160.5t-169.5 56.5q-135 0 -206 -91t-71 -263v-31q0 -172 70.5 -264t206.5 -92q109 0 171 58t80 163h224q-27 -186 -152 -295t-321 -109q-158 0 -272.5 68 t-175 189.5t-60.5 281.5z" />
<glyph unicode="d" horiz-adv-x="1204" d="M72 512v31q0 156 55 277.5t156.5 190t238.5 68.5q119 0 207 -49t137 -129v615h226v-1516h-209l-6 176q-43 -84 -134.5 -143.5t-216.5 -59.5q-135 0 -238.5 69t-159.5 190.5t-56 279.5zM301 512q0 -170 74 -263t209 -93q141 0 215.5 92t74.5 264v31q0 170 -75.5 264 t-214.5 94q-135 0 -209 -94t-74 -264v-31z" />
<glyph unicode="e" horiz-adv-x="1161" d="M72 512v31q0 160 63.5 280.5t181 188t277.5 67.5q254 -1 382 -163q117 -149 117 -392q0 -23 -1 -47h-789q8 -158 83 -240.5t208 -82.5q106 0 174 47t92 129h225q-39 -168 -166.5 -262.5t-324.5 -94.5q-162 0 -279.5 68t-180 189.5t-62.5 281.5zM307 639h553 q-12 125 -79.5 193.5t-188.5 68.5q-123 0 -194.5 -66.5t-90.5 -195.5z" />
<glyph unicode="f" horiz-adv-x="776" d="M23 885v170h204v176q0 311 346 311q78 0 172 -24v-179q-78 20 -129 21q-90 0 -126.5 -36t-36.5 -118v-151h286v-170h-286v-885h-226v885h-204z" />
<glyph unicode="g" horiz-adv-x="1204" d="M72 528v41q0 145 55 262t157.5 182.5t237.5 65.5q127 0 218 -57t137 -141l6 174h209v-987q0 -207 -134.5 -325t-382.5 -118q-213 0 -335.5 85t-141.5 229h246q18 -143 244 -144q133 0 205.5 64.5t72.5 187.5v156q-45 -82 -133 -134.5t-205 -52.5q-137 0 -240.5 67 t-159.5 183.5t-56 261.5zM301 528q0 -152 75 -241.5t208 -89.5q137 0 213.5 89t76.5 242v41q0 156 -75.5 244t-214.5 88q-135 0 -209 -88t-74 -244v-41z" />
<glyph unicode="h" horiz-adv-x="1144" d="M113 0v1516h227v-623q47 84 131 135t203 51q184 0 274 -105.5t90 -293.5v-680h-223v625q0 133 -52 200.5t-165 67.5q-119 0 -189.5 -82t-70.5 -221v-590h-225z" />
<glyph unicode="i" horiz-adv-x="450" d="M109 1208v308h235v-308h-235zM113 0v1055h225v-1055h-225z" />
<glyph unicode="j" horiz-adv-x="503" d="M-90 -172q51 -20 115 -21q76 0 108.5 37t32.5 117v1094h225v-1118q0 -152 -80 -232t-241 -80q-84 0 -160 27v176zM158 1208v308h235v-308h-235z" />
<glyph unicode="k" horiz-adv-x="1048" d="M113 0v1516h225v-883l414 422h272l-420 -422l434 -633h-258l-338 494l-104 -105v-389h-225z" />
<glyph unicode="l" horiz-adv-x="450" d="M113 0v1516h225v-1516h-225z" />
<glyph unicode="m" horiz-adv-x="1783" d="M113 0v1055h217l6 -164q43 82 126 135t200 53q119 0 198.5 -52t116.5 -153q55 98 144 151.5t204 53.5q176 0 264 -105.5t88 -293.5v-680h-225v635q0 131 -49 194.5t-154 63.5q-115 0 -177 -81t-62 -226v-586h-226v633q0 131 -49 195.5t-151 64.5q-115 0 -180.5 -81 t-65.5 -228v-584h-225z" />
<glyph unicode="n" horiz-adv-x="1144" d="M113 0v1055h217l8 -168q45 86 130 139t206 53q184 0 274 -105.5t90 -293.5v-680h-223v625q0 133 -52 200.5t-165 67.5q-119 0 -189.5 -82t-70.5 -221v-590h-225z" />
<glyph unicode="o" horiz-adv-x="1185" d="M72 512v31q0 160 64.5 281.5t182 188t273.5 66.5q158 0 275.5 -66.5t182 -188.5t64.5 -281v-31q0 -160 -64.5 -281.5t-182 -189.5t-275.5 -68q-156 0 -273.5 68t-182 189.5t-64.5 281.5zM301 512q0 -172 75 -264t216 -92q143 0 218 92t75 264v31q0 172 -75 263t-218 91 q-141 0 -216 -91t-75 -263v-31z" />
<glyph unicode="p" horiz-adv-x="1206" d="M113 -348v1403h211l6 -174q43 84 135 141t219 57q135 0 237.5 -67.5t158 -189.5t55.5 -279v-31q0 -158 -56.5 -279.5t-160 -190.5t-240.5 -69q-117 0 -204 52.5t-134 134.5v-508h-227zM332 512q0 -172 74.5 -264t216.5 -92q135 0 208.5 93t73.5 263v31q0 170 -73.5 264 t-208.5 94q-141 0 -216 -93t-75 -265v-31z" />
<glyph unicode="q" horiz-adv-x="1204" d="M72 512v31q0 158 55 279.5t157.5 189t237.5 67.5q127 0 218 -57t137 -141l6 174h209v-1403h-226v508q-45 -82 -134 -134.5t-206 -52.5q-137 0 -240.5 69t-158.5 190.5t-55 279.5zM301 512q0 -170 74 -263t209 -93q139 0 214.5 93t75.5 263v31q0 172 -74.5 265t-215.5 93 q-135 0 -209 -93t-74 -265v-31z" />
<glyph unicode="r" horiz-adv-x="749" d="M113 0v1055h217l6 -205q45 104 127 164.5t192 60.5q31 0 58 -6v-219q-41 4 -70 4q-145 0 -225 -81t-80 -236v-537h-225z" />
<glyph unicode="s" horiz-adv-x="1028" d="M61 328h218q14 -92 77.5 -138.5t169.5 -46.5q96 0 154.5 38t58.5 108q0 63 -55 99t-205 63q-199 33 -290 104.5t-91 208.5q0 92 52.5 163.5t146.5 111.5t213 40q190 0 303 -86t129 -243h-215q-12 80 -69.5 121.5t-149.5 41.5q-88 0 -140.5 -36.5t-52.5 -100.5 q0 -61 54.5 -95t197.5 -56q205 -33 300.5 -107t95.5 -209q0 -100 -54.5 -176t-154 -118t-230.5 -42q-205 0 -326.5 93.5t-136.5 261.5z" />
<glyph unicode="t" horiz-adv-x="806" d="M23 885v170h204v329h226v-329h286v-170h-286v-576q0 -80 35.5 -115.5t127.5 -35.5q68 0 129 20v-180q-35 -10 -83 -17.5t-89 -7.5q-346 1 -346 312v600h-204z" />
<glyph unicode="u" horiz-adv-x="1130" d="M104 377v678h228v-635q0 -125 50 -191.5t161 -66.5q117 0 182.5 83t65.5 224v586h227v-1055h-219l-4 160q-49 -82 -133 -134.5t-193 -52.5q-180 0 -272.5 106.5t-92.5 297.5z" />
<glyph unicode="v" horiz-adv-x="1077" d="M25 1055h237l283 -826l278 826h232l-389 -1055h-250z" />
<glyph unicode="w" horiz-adv-x="1605" d="M25 1055h227l219 -803l219 803h223l224 -809l221 809h223l-319 -1055h-238l-223 784l-221 -784h-238z" />
<glyph unicode="x" horiz-adv-x="1077" d="M25 0l381 541l-363 514h260l240 -353l241 353h246l-362 -508l385 -547h-260l-265 385l-258 -385h-245z" />
<glyph unicode="y" horiz-adv-x="1077" d="M25 1055h239l285 -801l274 801h232l-529 -1403h-231l135 354z" />
<glyph unicode="z" horiz-adv-x="972" d="M72 0v164l546 710h-512v181h777v-162l-541 -711h563v-182h-833z" />
<glyph unicode="{" horiz-adv-x="702" d="M61 543v250h33q45 0 70.5 25.5t25.5 72.5v338q0 137 75 212t212 75h144v-205h-84q-51 0 -79 -29t-28 -80v-307q0 -88 -25.5 -142.5t-97.5 -84.5q72 -31 97.5 -85.5t25.5 -142.5v-358q0 -51 27.5 -80t79.5 -29h84v-204h-144q-137 0 -212 74.5t-75 211.5v387q0 49 -25.5 75 t-70.5 26h-33z" />
<glyph unicode="|" horiz-adv-x="710" d="M246 -287v1803h221v-1803h-221z" />
<glyph unicode="}" horiz-adv-x="702" d="M82 -27h82q51 0 79.5 29t28.5 80v358q0 90 25 143.5t96 84.5q-72 31 -96.5 84t-24.5 143v307q0 51 -28.5 80t-79.5 29h-82v205h141q137 0 213 -75t76 -212v-338q0 -47 25.5 -72.5t70.5 -25.5h33v-250h-33q-45 0 -70.5 -25.5t-25.5 -75.5v-387q0 -137 -76 -211.5 t-213 -74.5h-141v204z" />
<glyph unicode="~" horiz-adv-x="843" d="M111 459q6 137 49 199.5t131 62.5q37 0 69.5 -13.5t73.5 -37.5q59 -37 88 -37t41.5 19.5t16.5 62.5h153q-6 -137 -50 -199.5t-130 -62.5q-39 0 -70.5 13t-70.5 38q-59 37 -90 37q-29 0 -42.5 -19.5t-15.5 -62.5h-153z" />
<glyph unicode="&#xa1;" horiz-adv-x="495" d="M127 807v248h244v-248h-244zM129 0l45 639h148l45 -639v-348h-238v348z" />
<glyph unicode="&#xa2;" horiz-adv-x="1110" d="M72 512v31q0 221 114.5 364.5t319.5 167.5v137h141v-137q170 -16 275.5 -121.5t126.5 -273.5h-222q-29 176 -180 211v-727q76 16 122 71.5t60 141.5h224q-25 -170 -131.5 -275.5t-274.5 -124.5v-151h-141v151q-205 23 -319.5 167.5t-114.5 367.5zM301 512 q0 -147 52.5 -236.5t152.5 -111.5v725q-100 -20 -152.5 -109.5t-52.5 -236.5v-31z" />
<glyph unicode="&#xa3;" horiz-adv-x="1206" d="M86 0v137q141 90 212 168t71 180q0 29 -7 54h-231v159h154l-45 64q-66 88 -101 155.5t-35 147.5v18q0 117 62.5 207t171 140.5t244.5 50.5q143 0 257.5 -57.5t181 -161t73.5 -238.5h-234q-8 129 -79.5 198.5t-196.5 69.5q-113 0 -181.5 -58t-68.5 -157v-22 q0 -51 26.5 -100.5t85.5 -137.5q37 -49 80 -119h375v-159h-311q4 -33 4 -54q0 -86 -45 -158.5t-125 -129.5h698v-197h-1036z" />
<glyph unicode="&#xa4;" horiz-adv-x="1165" d="M76 369l166 161q-51 84 -52 187q0 104 52 184l-166 160l145 141l174 -166q84 37 187 37q106 0 186 -39l176 168l146 -141l-168 -160q49 -82 49 -184q0 -106 -49 -187l168 -161l-148 -142l-176 170q-78 -39 -184 -39t-187 39l-174 -170zM422 717q0 -70 42 -113t118 -43 q73 0 115 43t42 113t-42 111.5t-115 41.5q-76 0 -118 -42t-42 -111z" />
<glyph unicode="&#xa5;" horiz-adv-x="1302" d="M20 1454h261l374 -756l375 756h252l-438 -840h231v-147h-305v-123h305v-147h-305v-197h-238v197h-313v147h313v123h-313v147h240z" />
<glyph unicode="&#xa6;" horiz-adv-x="710" d="M246 -287l12 799h197l12 -799h-221zM246 1516h221l-12 -779h-197z" />
<glyph unicode="&#xa7;" horiz-adv-x="1150" d="M61 229h218q14 -90 79.5 -137t167.5 -47q94 0 153.5 38t59.5 107q0 41 -25.5 68t-76.5 49.5t-158 57.5q-172 55 -249.5 129.5t-77.5 197.5q0 133 108 230q-84 41 -123 97t-39 144q0 94 53.5 166t147.5 112t213 40q188 0 302 -87t128 -245h-215q-12 80 -69.5 122 t-149.5 42q-86 0 -139.5 -37t-53.5 -98q0 -39 23.5 -65t74 -47.5t154.5 -53.5q178 -55 260 -133t82 -201q0 -141 -108 -234q84 -41 123 -94t39 -137q0 -100 -55.5 -176t-156 -118t-229.5 -42q-203 0 -324.5 92t-136.5 260zM356 719q0 -76 46.5 -116t164.5 -77l78 -24 q53 63 53 147q0 74 -48 117t-171 78l-67 20q-55 -66 -56 -145z" />
<glyph unicode="&#xa8;" horiz-adv-x="1067" d="M205 1208v308h235v-308h-235zM627 1208v308h235v-308h-235z" />
<glyph unicode="&#xa9;" horiz-adv-x="1665" d="M76 727q0 215 97 387t270 269.5t391 97.5q217 0 390 -97.5t270 -269.5t97 -387t-97 -387t-270 -269.5t-390 -97.5q-218 0 -391 97.5t-270 269.5t-97 387zM240 727q0 -174 75.5 -312.5t212 -217t306.5 -78.5t306 78.5t211.5 217t75.5 312.5t-75.5 312.5t-211.5 217 t-306 78.5t-306.5 -78.5t-212 -217t-75.5 -312.5zM424 713v26q0 201 112.5 323t309.5 122q162 0 265 -88t122 -238h-193q-29 164 -198 164q-109 0 -165 -74t-56 -209v-24q0 -137 56 -211t165 -74q86 0 136 44t64 122h193q-23 -152 -125 -240t-266 -88q-195 0 -307.5 122 t-112.5 323z" />
<glyph unicode="&#xaa;" horiz-adv-x="720" d="M33 977q0 84 51 134t147 63l228 28v45q0 37 -24.5 57.5t-72.5 20.5q-96 0 -104 -76h-199q4 102 88 161.5t222 59.5q135 0 216 -60t81 -163v-452h-199l-6 96q-29 -53 -84 -83t-129 -30q-94 0 -154.5 55.5t-60.5 143.5zM47 504v137h617v-137h-617zM236 991q0 -33 22.5 -51 t63.5 -18q57 0 97 31.5t40 80.5v45l-150 -18q-74 -12 -73 -70z" />
<glyph unicode="&#xab;" horiz-adv-x="1079" d="M55 496v14l340 410h215l-344 -416l344 -418h-217zM455 496v14l340 410h215l-344 -416l344 -418h-217z" />
<glyph unicode="&#xac;" horiz-adv-x="1269" d="M193 655v189h882v-459h-225v270h-657z" />
<glyph unicode="&#xad;" horiz-adv-x="858" d="M111 502v194h634v-194h-634z" />
<glyph unicode="&#xae;" horiz-adv-x="1275" d="M72 930q0 160 70.5 283.5t198.5 194.5t298 71t298 -71t197.5 -194.5t69.5 -283.5t-69.5 -285t-197.5 -195.5t-298 -70.5t-298 70.5t-198.5 195.5t-70.5 285zM225 930q0 -193 106.5 -305.5t307.5 -112.5t306.5 112.5t105.5 305.5t-105.5 304.5t-306.5 111.5t-307.5 -112 t-106.5 -304zM410 641v582h274q96 0 152.5 -48.5t56.5 -136.5v-12q0 -70 -36 -115t-99 -61l149 -209h-157l-138 199h-63v-199h-139zM549 963h129q35 0 54.5 16t19.5 47v10q0 63 -74 64h-129v-137z" />
<glyph unicode="&#xaf;" horiz-adv-x="1036" d="M205 1257v191h626v-191h-626z" />
<glyph unicode="&#xb0;" horiz-adv-x="802" d="M53 1139q0 113 52.5 190.5t132 114.5t163.5 37t164 -37t132.5 -115t52.5 -190q0 -111 -52.5 -188t-133.5 -114.5t-163 -37.5t-162.5 37.5t-133 114.5t-52.5 188zM236 1139q0 -76 47 -122t118 -46q70 0 117 46t47 122q0 80 -47 125t-117 45q-72 0 -118.5 -45t-46.5 -125z " />
<glyph unicode="&#xb1;" horiz-adv-x="1126" d="M98 172v205h932v-205h-932zM98 891v205h361v338h215v-338h356v-205h-356v-334h-215v334h-361z" />
<glyph unicode="&#xb2;" horiz-adv-x="608" d="M29 907v94q0 115 51 184.5t180 127.5q88 39 118 66.5t30 68.5v2q0 37 -26 61.5t-69 24.5q-51 0 -80.5 -30.5t-29.5 -84.5h-166q6 117 78.5 184.5t199.5 67.5q115 0 186.5 -61.5t71.5 -153.5v-8q0 -76 -37.5 -129t-150.5 -104q-78 -37 -113.5 -62t-46 -47.5t-10.5 -56.5 h360v-144h-546z" />
<glyph unicode="&#xb3;" horiz-adv-x="653" d="M35 1143h172q6 -115 115 -115q49 0 78.5 27.5t29.5 72.5v11q0 45 -28.5 71.5t-82.5 26.5h-71v123h71q47 0 73 22.5t26 61.5v6q0 41 -25.5 65.5t-70.5 24.5q-49 0 -77 -28.5t-30 -81.5h-164q4 111 81 177t194 66q115 0 187.5 -57t72.5 -150v-10q0 -51 -31 -93t-84 -63 q61 -16 102 -62t41 -114v-10q0 -100 -78.5 -160.5t-209.5 -60.5q-133 0 -212 67.5t-79 182.5z" />
<glyph unicode="&#xb4;" horiz-adv-x="940" d="M205 1208l229 308h301l-327 -308h-203z" />
<glyph unicode="&#xb5;" horiz-adv-x="1267" d="M113 -348v1403h229v-582q0 -152 75 -234.5t216 -82.5q143 0 218 83t75 234v582h229v-1055h-178l-6 158q-55 -88 -142.5 -136.5t-195.5 -48.5q-96 0 -173 38t-132 108v-467h-215z" />
<glyph unicode="&#xb6;" horiz-adv-x="1376" d="M86 975q0 219 136 349t415 130h567v-1741h-188v1544h-182v-1544h-187v799h-39q-152 0 -270.5 57.5t-185 162t-66.5 243.5z" />
<glyph unicode="&#xb7;" horiz-adv-x="630" d="M193 414v246h243v-246h-243z" />
<glyph unicode="&#xb8;" horiz-adv-x="800" d="M205 -332q45 -20 104 -20q104 0 105 71q0 70 -88 70q-45 0 -82 -8v84l68 135h133l-56 -115h11q84 0 140 -39t56 -127q0 -94 -68.5 -140t-179.5 -46q-94 0 -143 25v110z" />
<glyph unicode="&#xb9;" horiz-adv-x="438" d="M35 1380v152q123 27 203 127h127v-752h-181v539q-70 -47 -149 -66z" />
<glyph unicode="&#xba;" horiz-adv-x="770" d="M37 1118v12q0 150 96 245t252 95t251 -95t95 -245v-12q0 -150 -95 -245t-251 -95t-252 95.5t-96 244.5zM74 504v137h618v-137h-618zM248 1118q0 -182 137 -182q135 0 135 182v12q0 182 -135 183q-137 0 -137 -183v-12z" />
<glyph unicode="&#xbb;" horiz-adv-x="1079" d="M70 86l346 418l-346 416h217l340 -410v-14l-340 -410h-217zM467 86l346 418l-346 416h219l338 -410v-14l-338 -410h-219z" />
<glyph unicode="&#xbc;" horiz-adv-x="1452" d="M30 0l1069 1454h226l-1069 -1454h-226zM35 1175v152q123 27 203 127h127v-752h-181v539q-70 -47 -149 -66zM817 160v133l330 459h185v-455h96v-137h-96v-160h-170v160h-345zM971 297h191v269z" />
<glyph unicode="&#xbd;" horiz-adv-x="1476" d="M30 0l1069 1454h226l-1069 -1454h-226zM35 1175v152q123 27 203 127h127v-752h-181v539q-70 -47 -149 -66zM897 0v94q0 115 51 184.5t180 127.5q88 39 118 66.5t30 68.5v2q0 37 -26 61.5t-69 24.5q-51 0 -80.5 -30.5t-29.5 -84.5h-166q6 117 78.5 184.5t199.5 67.5 q115 0 186.5 -61.5t71.5 -153.5v-8q0 -76 -37.5 -129t-150.5 -104q-78 -37 -113.5 -62t-46 -47.5t-10.5 -56.5h360v-144h-546z" />
<glyph unicode="&#xbe;" horiz-adv-x="1597" d="M35 938h172q6 -115 115 -115q49 0 78.5 27.5t29.5 72.5v11q0 45 -28.5 71.5t-82.5 26.5h-71v123h71q47 0 73 22.5t26 61.5v6q0 41 -25.5 65.5t-70.5 24.5q-49 0 -77 -28.5t-30 -81.5h-164q4 111 81 177t194 66q115 0 187.5 -57t72.5 -150v-10q0 -51 -31 -93t-84 -63 q61 -16 102 -62t41 -114v-10q0 -100 -78.5 -160.5t-209.5 -60.5q-133 0 -212 67.5t-79 182.5zM176 0l1069 1454h226l-1069 -1454h-226zM962 160v133l330 459h185v-455h96v-137h-96v-160h-170v160h-345zM1116 297h191v269z" />
<glyph unicode="&#xbf;" horiz-adv-x="1046" d="M43 12v21q0 88 34 153.5t82 109.5t126 99q92 66 137 115t45 121v22h240v-30q0 -80 -33 -140.5t-79 -102.5t-122 -95q-94 -68 -141 -120t-47 -128v-21q0 -90 65.5 -143t173.5 -53q121 0 195 66.5t88 195.5h237q-18 -221 -161.5 -339t-358.5 -118q-141 0 -250.5 51.5 t-170 139.5t-60.5 196zM465 791v264h246v-264h-246z" />
<glyph unicode="&#xc0;" horiz-adv-x="1427" d="M25 0l559 1454h260l559 -1454h-252l-129 354h-625l-131 -354h-241zM274 1913h328l258 -295h-229zM471 553h477l-237 647z" />
<glyph unicode="&#xc1;" horiz-adv-x="1427" d="M25 0l559 1454h260l559 -1454h-252l-129 354h-625l-131 -354h-241zM471 553h477l-237 647zM569 1618l259 295h327l-356 -295h-230z" />
<glyph unicode="&#xc2;" horiz-adv-x="1427" d="M25 0l559 1454h260l559 -1454h-252l-129 354h-625l-131 -354h-241zM365 1618l205 295h290l205 -295h-203l-147 151l-145 -151h-205zM471 553h477l-237 647z" />
<glyph unicode="&#xc3;" horiz-adv-x="1427" d="M25 0l559 1454h260l559 -1454h-252l-129 354h-625l-131 -354h-241zM378 1653q6 127 52.5 187.5t138.5 60.5q47 0 81 -12.5t87 -39.5q61 -35 94 -34q33 0 49.5 19t20.5 62h151q-6 -131 -54 -190t-138 -59q-47 0 -84 13t-80 38q-31 16 -52.5 25.5t-43.5 9.5 q-35 0 -52.5 -19.5t-19.5 -60.5h-150zM471 553h477l-237 647z" />
<glyph unicode="&#xc4;" horiz-adv-x="1427" d="M25 0l559 1454h260l559 -1454h-252l-129 354h-625l-131 -354h-241zM373 1626v287h236v-287h-236zM471 553h477l-237 647zM820 1626v287h235v-287h-235z" />
<glyph unicode="&#xc5;" horiz-adv-x="1427" d="M25 0l559 1454h260l559 -1454h-252l-129 354h-625l-131 -354h-241zM471 553h477l-237 647zM481 1788q0 96 65.5 158.5t168.5 62.5q104 0 168.5 -61.5t64.5 -159.5t-64.5 -160.5t-168.5 -62.5q-101 0 -167.5 63.5t-66.5 159.5zM625 1790q0 -41 25.5 -65.5t66.5 -24.5 t64.5 24.5t23.5 65.5q0 39 -23.5 62.5t-64.5 23.5t-66.5 -23.5t-25.5 -62.5z" />
<glyph unicode="&#xc6;" horiz-adv-x="1955" d="M25 0l718 1454h1115v-199h-764v-413h700v-199h-700v-444h776v-199h-1014v360h-420l-170 -360h-241zM526 553h330v698z" />
<glyph unicode="&#xc7;" horiz-adv-x="1431" d="M76 702v50q0 213 85 378.5t239.5 258t357.5 92.5q172 0 306 -69t214 -194.5t94 -291.5h-242q-23 164 -121 257t-253 93q-133 0 -231.5 -66.5t-150.5 -184.5t-52 -273v-50q0 -154 52 -272.5t150.5 -184t231.5 -65.5q164 0 264 100.5t108 268.5h244q-10 -158 -81.5 -284 t-195.5 -202.5t-288 -87.5l-43 -90h10q84 0 140.5 -39t56.5 -127q0 -94 -68.5 -140t-179.5 -46q-94 0 -143 25v110q45 -20 104 -20q104 0 104 71q0 70 -88 70q-45 0 -82 -8v84l56 112q-180 18 -315.5 113.5t-209 253.5t-73.5 358z" />
<glyph unicode="&#xc8;" horiz-adv-x="1222" d="M123 0v1454h1001v-199h-764v-413h701v-199h-701v-444h777v-199h-1014zM192 1913h328l258 -295h-229z" />
<glyph unicode="&#xc9;" horiz-adv-x="1222" d="M123 0v1454h1001v-199h-764v-413h701v-199h-701v-444h777v-199h-1014zM487 1618l259 295h327l-356 -295h-230z" />
<glyph unicode="&#xca;" horiz-adv-x="1222" d="M123 0v1454h1001v-199h-764v-413h701v-199h-701v-444h777v-199h-1014zM283 1618l205 295h290l205 -295h-203l-147 151l-145 -151h-205z" />
<glyph unicode="&#xcb;" horiz-adv-x="1222" d="M123 0v1454h1001v-199h-764v-413h701v-199h-701v-444h777v-199h-1014zM291 1626v287h236v-287h-236zM738 1626v287h235v-287h-235z" />
<glyph unicode="&#xcc;" horiz-adv-x="509" d="M-103 1913h307l160 -295h-211zM135 0v1454h240v-1454h-240z" />
<glyph unicode="&#xcd;" horiz-adv-x="509" d="M135 0v1454h240v-1454h-240zM143 1618l160 295h307l-256 -295h-211z" />
<glyph unicode="&#xce;" horiz-adv-x="509" d="M-21 1618l164 295h227l162 -295h-180l-96 154l-94 -154h-183zM135 0v1454h240v-1454h-240z" />
<glyph unicode="&#xcf;" horiz-adv-x="509" d="M-25 1626v287h207v-287h-207zM135 0v1454h240v-1454h-240zM327 1626v287h207v-287h-207z" />
<glyph unicode="&#xd0;" horiz-adv-x="1425" d="M2 637v201h121v616h508q215 0 376.5 -82t252 -239.5t90.5 -380.5v-50q0 -221 -90.5 -379.5t-252 -240.5t-376.5 -82h-508v637h-121zM360 201h254q231 0 360.5 124t129.5 377v50q0 254 -129 377.5t-365 123.5h-250v-415h385v-201h-385v-436z" />
<glyph unicode="&#xd1;" horiz-adv-x="1441" d="M123 0v1454h285l682 -1116v1116h229v-1454h-268l-697 1145v-1145h-231zM385 1653q6 127 52.5 187.5t138.5 60.5q47 0 81 -12.5t87 -39.5q61 -35 94 -34q33 0 49.5 19t20.5 62h151q-6 -131 -54 -190t-138 -59q-47 0 -84 13t-80 38q-31 16 -52.5 25.5t-43.5 9.5 q-35 0 -52.5 -19.5t-19.5 -60.5h-150z" />
<glyph unicode="&#xd2;" d="M76 702v50q0 213 85 378.5t241.5 258t363.5 92.5q209 0 365.5 -92.5t241.5 -257t85 -379.5v-50q0 -213 -85 -378.5t-241.5 -258t-365.5 -92.5q-207 0 -363.5 92.5t-241.5 258t-85 378.5zM322 702q0 -240 118.5 -382t325.5 -142q209 0 326.5 141.5t117.5 382.5v50 q0 242 -117.5 383t-326.5 141t-326.5 -142.5t-117.5 -381.5v-50zM325 1913h328l258 -295h-229z" />
<glyph unicode="&#xd3;" d="M76 702v50q0 213 85 378.5t241.5 258t363.5 92.5q209 0 365.5 -92.5t241.5 -257t85 -379.5v-50q0 -213 -85 -378.5t-241.5 -258t-365.5 -92.5q-207 0 -363.5 92.5t-241.5 258t-85 378.5zM322 702q0 -240 118.5 -382t325.5 -142q209 0 326.5 141.5t117.5 382.5v50 q0 242 -117.5 383t-326.5 141t-326.5 -142.5t-117.5 -381.5v-50zM620 1618l259 295h327l-356 -295h-230z" />
<glyph unicode="&#xd4;" d="M76 702v50q0 213 85 378.5t241.5 258t363.5 92.5q209 0 365.5 -92.5t241.5 -257t85 -379.5v-50q0 -213 -85 -378.5t-241.5 -258t-365.5 -92.5q-207 0 -363.5 92.5t-241.5 258t-85 378.5zM322 702q0 -240 118.5 -382t325.5 -142q209 0 326.5 141.5t117.5 382.5v50 q0 242 -117.5 383t-326.5 141t-326.5 -142.5t-117.5 -381.5v-50zM418 1618l205 295h290l205 -295h-203l-147 151l-145 -151h-205z" />
<glyph unicode="&#xd5;" d="M76 702v50q0 213 85 378.5t241.5 258t363.5 92.5q209 0 365.5 -92.5t241.5 -257t85 -379.5v-50q0 -213 -85 -378.5t-241.5 -258t-365.5 -92.5q-207 0 -363.5 92.5t-241.5 258t-85 378.5zM322 702q0 -240 118.5 -382t325.5 -142q209 0 326.5 141.5t117.5 382.5v50 q0 242 -117.5 383t-326.5 141t-326.5 -142.5t-117.5 -381.5v-50zM430 1653q6 127 52.5 187.5t138.5 60.5q47 0 81 -12.5t87 -39.5q61 -35 94 -34q33 0 49.5 19t20.5 62h151q-6 -131 -54 -190t-138 -59q-47 0 -84 13t-80 38q-31 16 -52.5 25.5t-43.5 9.5q-35 0 -52.5 -19.5 t-19.5 -60.5h-150z" />
<glyph unicode="&#xd6;" d="M76 702v50q0 213 85 378.5t241.5 258t363.5 92.5q209 0 365.5 -92.5t241.5 -257t85 -379.5v-50q0 -213 -85 -378.5t-241.5 -258t-365.5 -92.5q-207 0 -363.5 92.5t-241.5 258t-85 378.5zM322 702q0 -240 118.5 -382t325.5 -142q209 0 326.5 141.5t117.5 382.5v50 q0 242 -117.5 383t-326.5 141t-326.5 -142.5t-117.5 -381.5v-50zM424 1626v287h236v-287h-236zM871 1626v287h235v-287h-235z" />
<glyph unicode="&#xd7;" horiz-adv-x="1126" d="M100 459l330 329l-328 330l131 133l328 -329l330 329l135 -129l-332 -334l332 -331l-135 -131l-330 329l-328 -329z" />
<glyph unicode="&#xd8;" d="M-2 0l213 240q-135 188 -135 462v50q0 213 85 378.5t241.5 258t363.5 92.5q252 0 428 -135l96 108h244l-213 -240q68 -92 102.5 -209.5t34.5 -252.5v-50q0 -213 -85 -378.5t-241.5 -258t-365.5 -92.5q-252 0 -428 136l-96 -109h-244zM322 702q0 -160 53 -278l672 756 q-113 96 -281 96q-209 0 -326.5 -142.5t-117.5 -381.5v-50zM485 274q113 -96 281 -96q209 0 326.5 141.5t117.5 382.5v50q0 160 -53 278z" />
<glyph unicode="&#xd9;" horiz-adv-x="1409" d="M117 555v899h239v-893q0 -379 349 -379q174 0 262 96.5t88 284.5v891h237v-897q0 -279 -149.5 -431.5t-437.5 -152.5q-287 0 -437.5 151.5t-150.5 430.5zM264 1913h328l258 -295h-229z" />
<glyph unicode="&#xda;" horiz-adv-x="1409" d="M117 555v899h239v-893q0 -379 349 -379q174 0 262 96.5t88 284.5v891h237v-897q0 -279 -149.5 -431.5t-437.5 -152.5q-287 0 -437.5 151.5t-150.5 430.5zM559 1618l259 295h327l-356 -295h-230z" />
<glyph unicode="&#xdb;" horiz-adv-x="1409" d="M117 555v899h239v-893q0 -379 349 -379q174 0 262 96.5t88 284.5v891h237v-897q0 -279 -149.5 -431.5t-437.5 -152.5q-287 0 -437.5 151.5t-150.5 430.5zM355 1618l205 295h290l205 -295h-203l-147 151l-145 -151h-205z" />
<glyph unicode="&#xdc;" horiz-adv-x="1409" d="M117 555v899h239v-893q0 -379 349 -379q174 0 262 96.5t88 284.5v891h237v-897q0 -279 -149.5 -431.5t-437.5 -152.5q-287 0 -437.5 151.5t-150.5 430.5zM362 1626v287h236v-287h-236zM809 1626v287h235v-287h-235z" />
<glyph unicode="&#xdd;" horiz-adv-x="1302" d="M20 1454h261l374 -756l375 756h252l-512 -983v-471h-238v471zM505 1618l259 295h327l-356 -295h-230z" />
<glyph unicode="&#xde;" horiz-adv-x="1265" d="M123 0v1454h239v-260h353q225 0 361 -113.5t136 -320.5v-31q0 -209 -136 -322.5t-361 -113.5h-353v-293h-239zM362 494h332q127 0 200 59t73 176v31q0 117 -73 175t-200 58h-332v-499z" />
<glyph unicode="&#xdf;" horiz-adv-x="1230" d="M104 0v1016q0 270 137.5 398t368.5 128q141 0 248 -51t164 -143.5t57 -210.5v-19q0 -98 -42 -176t-113 -121q117 -47 180 -147.5t63 -235.5v-18q0 -213 -128 -330t-361 -117q-115 0 -195 37v174q76 -29 172 -28q133 0 209 66.5t76 203.5v16q0 129 -74.5 200t-210.5 71 h-123v178h68q127 0 189.5 53t62.5 164v16q0 106 -62.5 167t-179.5 61q-281 0 -280 -332v-1020h-226z" />
<glyph unicode="&#xe0;" horiz-adv-x="1087" d="M66 285q0 127 73.5 205.5t208.5 97.5l416 61v76q0 86 -56.5 132t-156.5 46t-160.5 -43t-68.5 -123h-216q14 162 134 252t315 90q201 0 313.5 -98t112.5 -264v-717h-207l-8 164q-49 -90 -141.5 -140.5t-204.5 -50.5q-160 0 -257 87t-97 225zM174 1516h301l229 -308h-205z M285 295q0 -68 49 -105.5t137 -37.5q121 0 207 67.5t86 167.5v96l-338 -47q-72 -10 -106.5 -45t-34.5 -96z" />
<glyph unicode="&#xe1;" horiz-adv-x="1087" d="M66 285q0 127 73.5 205.5t208.5 97.5l416 61v76q0 86 -56.5 132t-156.5 46t-160.5 -43t-68.5 -123h-216q14 162 134 252t315 90q201 0 313.5 -98t112.5 -264v-717h-207l-8 164q-49 -90 -141.5 -140.5t-204.5 -50.5q-160 0 -257 87t-97 225zM285 295q0 -68 49 -105.5 t137 -37.5q121 0 207 67.5t86 167.5v96l-338 -47q-72 -10 -106.5 -45t-34.5 -96zM410 1208l229 308h301l-327 -308h-203z" />
<glyph unicode="&#xe2;" horiz-adv-x="1087" d="M66 285q0 127 73.5 205.5t208.5 97.5l416 61v76q0 86 -56.5 132t-156.5 46t-160.5 -43t-68.5 -123h-216q14 162 134 252t315 90q201 0 313.5 -98t112.5 -264v-717h-207l-8 164q-49 -90 -141.5 -140.5t-204.5 -50.5q-160 0 -257 87t-97 225zM252 1208l162 308h284 l162 -308h-174l-131 176l-129 -176h-174zM285 295q0 -68 49 -105.5t137 -37.5q121 0 207 67.5t86 167.5v96l-338 -47q-72 -10 -106.5 -45t-34.5 -96z" />
<glyph unicode="&#xe3;" horiz-adv-x="1087" d="M66 285q0 127 73.5 205.5t208.5 97.5l416 61v76q0 86 -56.5 132t-156.5 46t-160.5 -43t-68.5 -123h-216q14 162 134 252t315 90q201 0 313.5 -98t112.5 -264v-717h-207l-8 164q-49 -90 -141.5 -140.5t-204.5 -50.5q-160 0 -257 87t-97 225zM244 1231q6 137 49 199.5 t131 62.5q37 0 69.5 -13.5t73.5 -37.5q59 -37 88 -37t41.5 19.5t16.5 62.5h153q-6 -137 -50 -199.5t-130 -62.5q-39 0 -70.5 13t-70.5 38q-59 37 -90 37q-29 0 -42.5 -19.5t-15.5 -62.5h-153zM285 295q0 -68 49 -105.5t137 -37.5q121 0 207 67.5t86 167.5v96l-338 -47 q-72 -10 -106.5 -45t-34.5 -96z" />
<glyph unicode="&#xe4;" horiz-adv-x="1087" d="M66 285q0 127 73.5 205.5t208.5 97.5l416 61v76q0 86 -56.5 132t-156.5 46t-160.5 -43t-68.5 -123h-216q14 162 134 252t315 90q201 0 313.5 -98t112.5 -264v-717h-207l-8 164q-49 -90 -141.5 -140.5t-204.5 -50.5q-160 0 -257 87t-97 225zM228 1208v308h235v-308h-235z M285 295q0 -68 49 -105.5t137 -37.5q121 0 207 67.5t86 167.5v96l-338 -47q-72 -10 -106.5 -45t-34.5 -96zM650 1208v308h235v-308h-235z" />
<glyph unicode="&#xe5;" horiz-adv-x="1087" d="M66 285q0 127 73.5 205.5t208.5 97.5l416 61v76q0 86 -56.5 132t-156.5 46t-160.5 -43t-68.5 -123h-216q14 162 134 252t315 90q201 0 313.5 -98t112.5 -264v-717h-207l-8 164q-49 -90 -141.5 -140.5t-204.5 -50.5q-160 0 -257 87t-97 225zM285 295q0 -68 49 -105.5 t137 -37.5q121 0 207 67.5t86 167.5v96l-338 -47q-72 -10 -106.5 -45t-34.5 -96zM321 1423q0 96 65.5 159t168.5 63q104 0 168.5 -61.5t64.5 -160.5q0 -98 -64.5 -160.5t-168.5 -62.5q-101 0 -167.5 63.5t-66.5 159.5zM465 1425q0 -41 25.5 -65.5t66.5 -24.5t64.5 24.5 t23.5 65.5q0 39 -23.5 62.5t-64.5 23.5t-66.5 -23.5t-25.5 -62.5z" />
<glyph unicode="&#xe6;" horiz-adv-x="1853" d="M66 285q0 127 75.5 205.5t214.5 99.5l408 59v84q0 90 -55.5 135t-157.5 45q-98 0 -158.5 -43t-70.5 -120h-216q14 154 134 241.5t315 87.5q121 0 211 -36.5t145 -104.5q68 68 163 104.5t212 36.5q254 0 382 -162.5t116 -439.5h-789q8 -158 83 -240.5t208 -82.5 q106 0 174 47t92 129h226q-39 -168 -167 -262.5t-325 -94.5q-139 0 -246.5 51.5t-175.5 145.5q-63 -92 -177 -144.5t-255 -52.5q-166 0 -266 87t-100 225zM285 293q0 -66 49 -103.5t137 -37.5q123 0 208 65.5t85 169.5v96l-322 -45q-158 -23 -157 -145zM999 639h553 q-12 125 -79.5 193.5t-188.5 68.5q-123 0 -194.5 -66.5t-90.5 -195.5z" />
<glyph unicode="&#xe7;" horiz-adv-x="1110" d="M72 512v31q0 160 60.5 281.5t176 188t273.5 66.5q197 0 320.5 -107.5t146.5 -291.5h-222q-18 104 -79.5 160.5t-169.5 56.5q-135 0 -206 -91t-71 -263v-31q0 -172 70.5 -264t206.5 -92q109 0 171 58t80 163h224q-25 -174 -135.5 -280.5t-286.5 -121.5l-43 -90h10 q84 0 140.5 -39t56.5 -127q0 -94 -69 -140t-179 -46q-94 0 -144 25v110q45 -20 105 -20q104 0 104 71q0 70 -88 70q-45 0 -82 -8v84l58 112q-201 27 -314.5 170.5t-113.5 364.5z" />
<glyph unicode="&#xe8;" horiz-adv-x="1161" d="M72 512v31q0 160 63.5 280.5t181 188t277.5 67.5q254 0 382 -162.5t116 -439.5h-789q8 -158 83 -240.5t208 -82.5q106 0 174 47t92 129h225q-39 -168 -166.5 -262.5t-324.5 -94.5q-162 0 -279.5 68t-180 189.5t-62.5 281.5zM215 1516h301l229 -308h-205zM307 639h553 q-12 125 -79.5 193.5t-188.5 68.5q-123 0 -194.5 -66.5t-90.5 -195.5z" />
<glyph unicode="&#xe9;" horiz-adv-x="1161" d="M72 512v31q0 160 63.5 280.5t181 188t277.5 67.5q254 0 382 -162.5t116 -439.5h-789q8 -158 83 -240.5t208 -82.5q106 0 174 47t92 129h225q-39 -168 -166.5 -262.5t-324.5 -94.5q-162 0 -279.5 68t-180 189.5t-62.5 281.5zM307 639h553q-12 125 -79.5 193.5t-188.5 68.5 q-123 0 -194.5 -66.5t-90.5 -195.5zM451 1208l229 308h301l-327 -308h-203z" />
<glyph unicode="&#xea;" horiz-adv-x="1161" d="M72 512v31q0 160 63.5 280.5t181 188t277.5 67.5q254 0 382 -162.5t116 -439.5h-789q8 -158 83 -240.5t208 -82.5q106 0 174 47t92 129h225q-39 -168 -166.5 -262.5t-324.5 -94.5q-162 0 -279.5 68t-180 189.5t-62.5 281.5zM293 1208l162 308h284l162 -308h-174l-131 176 l-129 -176h-174zM307 639h553q-12 125 -79.5 193.5t-188.5 68.5q-123 0 -194.5 -66.5t-90.5 -195.5z" />
<glyph unicode="&#xeb;" horiz-adv-x="1161" d="M72 512v31q0 160 63.5 280.5t181 188t277.5 67.5q254 0 382 -162.5t116 -439.5h-789q8 -158 83 -240.5t208 -82.5q106 0 174 47t92 129h225q-39 -168 -166.5 -262.5t-324.5 -94.5q-162 0 -279.5 68t-180 189.5t-62.5 281.5zM268 1208v308h235v-308h-235zM307 639h553 q-12 125 -79.5 193.5t-188.5 68.5q-123 0 -194.5 -66.5t-90.5 -195.5zM690 1208v308h235v-308h-235z" />
<glyph unicode="&#xec;" horiz-adv-x="450" d="M-102 1516h301l133 -308h-209zM113 0v1055h225v-1055h-225z" />
<glyph unicode="&#xed;" horiz-adv-x="450" d="M113 0v1055h225v-1055h-225zM113 1208l133 308h301l-225 -308h-209z" />
<glyph unicode="&#xee;" horiz-adv-x="450" d="M-4 1208l103 308h256l102 -308h-153l-78 170l-74 -170h-156zM113 0v1055h225v-1055h-225z" />
<glyph unicode="&#xef;" horiz-adv-x="450" d="M-37 1208v308h201v-308h-201zM113 0v1055h225v-1055h-225zM288 1208v308h201v-308h-201z" />
<glyph unicode="&#xf0;" horiz-adv-x="1185" d="M72 485v13q0 147 56 266t159.5 185.5t242.5 66.5q127 0 220.5 -53.5t142.5 -137.5q-18 127 -62.5 223.5t-125.5 163.5l-381 -141l-43 125l280 102q-121 53 -291 74l54 166q279 -39 452 -160l211 78l43 -123l-139 -51q223 -231 223 -666v-10q0 -301 -140 -467t-382 -166 q-156 0 -273.5 65.5t-182 181.5t-64.5 265zM301 485q0 -156 75 -242.5t216 -86.5q143 0 218 87t75 242v11q0 160 -79 250t-222 90q-133 0 -208 -90.5t-75 -247.5v-13z" />
<glyph unicode="&#xf1;" horiz-adv-x="1144" d="M113 0v1055h217l8 -168q45 86 130 139t206 53q184 0 274 -105.5t90 -293.5v-680h-223v625q0 133 -52 200.5t-165 67.5q-119 0 -189.5 -82t-70.5 -221v-590h-225zM258 1231q6 137 49 199.5t131 62.5q37 0 69.5 -13.5t73.5 -37.5q59 -37 88 -37t41.5 19.5t16.5 62.5h153 q-6 -137 -50 -199.5t-130 -62.5q-39 0 -70.5 13t-70.5 38q-59 37 -90 37q-29 0 -42.5 -19.5t-15.5 -62.5h-153z" />
<glyph unicode="&#xf2;" horiz-adv-x="1185" d="M72 512v31q0 160 64.5 281.5t182 188t273.5 66.5q158 0 275.5 -66.5t182 -188.5t64.5 -281v-31q0 -160 -64.5 -281.5t-182 -189.5t-275.5 -68q-156 0 -273.5 68t-182 189.5t-64.5 281.5zM209 1516h301l229 -308h-205zM301 512q0 -172 75 -264t216 -92q143 0 218 92 t75 264v31q0 172 -75 263t-218 91q-141 0 -216 -91t-75 -263v-31z" />
<glyph unicode="&#xf3;" horiz-adv-x="1185" d="M72 512v31q0 160 64.5 281.5t182 188t273.5 66.5q158 0 275.5 -66.5t182 -188.5t64.5 -281v-31q0 -160 -64.5 -281.5t-182 -189.5t-275.5 -68q-156 0 -273.5 68t-182 189.5t-64.5 281.5zM301 512q0 -172 75 -264t216 -92q143 0 218 92t75 264v31q0 172 -75 263t-218 91 q-141 0 -216 -91t-75 -263v-31zM447 1208l229 308h301l-327 -308h-203z" />
<glyph unicode="&#xf4;" horiz-adv-x="1185" d="M72 512v31q0 160 64.5 281.5t182 188t273.5 66.5q158 0 275.5 -66.5t182 -188.5t64.5 -281v-31q0 -160 -64.5 -281.5t-182 -189.5t-275.5 -68q-156 0 -273.5 68t-182 189.5t-64.5 281.5zM289 1208l162 308h284l162 -308h-174l-131 176l-129 -176h-174zM301 512 q0 -172 75 -264t216 -92q143 0 218 92t75 264v31q0 172 -75 263t-218 91q-141 0 -216 -91t-75 -263v-31z" />
<glyph unicode="&#xf5;" horiz-adv-x="1185" d="M72 512v31q0 160 64.5 281.5t182 188t273.5 66.5q158 0 275.5 -66.5t182 -188.5t64.5 -281v-31q0 -160 -64.5 -281.5t-182 -189.5t-275.5 -68q-156 0 -273.5 68t-182 189.5t-64.5 281.5zM281 1231q6 137 49 199.5t131 62.5q37 0 69.5 -13.5t73.5 -37.5q59 -37 88 -37 t41.5 19.5t16.5 62.5h153q-6 -137 -50 -199.5t-130 -62.5q-39 0 -70.5 13t-70.5 38q-59 37 -90 37q-29 0 -42.5 -19.5t-15.5 -62.5h-153zM301 512q0 -172 75 -264t216 -92q143 0 218 92t75 264v31q0 172 -75 263t-218 91q-141 0 -216 -91t-75 -263v-31z" />
<glyph unicode="&#xf6;" horiz-adv-x="1185" d="M72 512v31q0 160 64.5 281.5t182 188t273.5 66.5q158 0 275.5 -66.5t182 -188.5t64.5 -281v-31q0 -160 -64.5 -281.5t-182 -189.5t-275.5 -68q-156 0 -273.5 68t-182 189.5t-64.5 281.5zM264 1208v308h235v-308h-235zM301 512q0 -172 75 -264t216 -92q143 0 218 92 t75 264v31q0 172 -75 263t-218 91q-141 0 -216 -91t-75 -263v-31zM686 1208v308h235v-308h-235z" />
<glyph unicode="&#xf7;" horiz-adv-x="1126" d="M152 631v200h823v-200h-823zM432 244v239h264v-239h-264zM432 979v240h264v-240h-264z" />
<glyph unicode="&#xf8;" horiz-adv-x="1185" d="M20 0l154 170q-102 141 -102 342v31q0 160 64.5 281.5t182 188t273.5 66.5q182 0 319 -94l64 70h188l-153 -168q104 -139 104 -344v-31q0 -160 -64.5 -281.5t-182 -189.5t-275.5 -68q-188 0 -320 97l-63 -70h-189zM301 512q0 -100 25 -174l452 500q-72 59 -186 59 q-141 0 -216 -91t-75 -263v-31zM406 217q72 -61 186 -61q143 0 218 92t75 264v31q0 104 -27 176z" />
<glyph unicode="&#xf9;" horiz-adv-x="1130" d="M104 377v678h228v-635q0 -125 50 -191.5t161 -66.5q117 0 182.5 83t65.5 224v586h227v-1055h-219l-4 160q-49 -82 -133 -134.5t-193 -52.5q-180 0 -272.5 106.5t-92.5 297.5zM185 1516h301l229 -308h-205z" />
<glyph unicode="&#xfa;" horiz-adv-x="1130" d="M104 377v678h228v-635q0 -125 50 -191.5t161 -66.5q117 0 182.5 83t65.5 224v586h227v-1055h-219l-4 160q-49 -82 -133 -134.5t-193 -52.5q-180 0 -272.5 106.5t-92.5 297.5zM422 1208l229 308h301l-327 -308h-203z" />
<glyph unicode="&#xfb;" horiz-adv-x="1130" d="M104 377v678h228v-635q0 -125 50 -191.5t161 -66.5q117 0 182.5 83t65.5 224v586h227v-1055h-219l-4 160q-49 -82 -133 -134.5t-193 -52.5q-180 0 -272.5 106.5t-92.5 297.5zM262 1208l162 308h284l162 -308h-174l-131 176l-129 -176h-174z" />
<glyph unicode="&#xfc;" horiz-adv-x="1130" d="M104 377v678h228v-635q0 -125 50 -191.5t161 -66.5q117 0 182.5 83t65.5 224v586h227v-1055h-219l-4 160q-49 -82 -133 -134.5t-193 -52.5q-180 0 -272.5 106.5t-92.5 297.5zM238 1208v308h235v-308h-235zM660 1208v308h235v-308h-235z" />
<glyph unicode="&#xfd;" horiz-adv-x="1077" d="M25 1055h239l285 -801l274 801h232l-529 -1403h-231l135 354zM393 1208l229 308h301l-327 -308h-203z" />
<glyph unicode="&#xfe;" horiz-adv-x="1206" d="M113 -348v1864h227v-617q47 78 136 129t208 51q135 0 237.5 -67.5t158 -189.5t55.5 -279v-31q0 -158 -56.5 -279.5t-160 -190.5t-240.5 -69q-117 0 -204 52.5t-134 134.5v-508h-227zM332 512q0 -172 74.5 -264t216.5 -92q135 0 208.5 93t73.5 263v31q0 170 -73.5 264 t-208.5 94q-141 0 -216 -93t-75 -265v-31z" />
<glyph unicode="&#xff;" horiz-adv-x="1077" d="M25 1055h239l285 -801l274 801h232l-529 -1403h-231l135 354zM211 1208v308h235v-308h-235zM633 1208v308h235v-308h-235z" />
<glyph unicode="&#x152;" horiz-adv-x="2310" d="M76 702v50q0 213 84 378.5t237.5 258t356.5 92.5q139 0 254.5 -47.5t201.5 -135.5v156h1002v-199h-764v-413h700v-199h-700v-444h776v-199h-1014v158q-86 -88 -201.5 -136.5t-254.5 -48.5q-203 0 -356.5 92.5t-237.5 258t-84 378.5zM322 702q0 -240 118.5 -382 t325.5 -142q197 0 312.5 124t131.5 341v168q-16 217 -131.5 341t-312.5 124q-209 0 -326.5 -142.5t-117.5 -381.5v-50z" />
<glyph unicode="&#x153;" horiz-adv-x="1972" d="M72 512v31q0 160 64.5 281.5t182 188t273.5 66.5q129 0 233.5 -46t171.5 -130q70 84 173.5 130t234.5 46q254 0 382 -162.5t116 -439.5h-789q8 -158 83 -240.5t208 -82.5q106 0 174 47t92 129h225q-39 -168 -166.5 -262.5t-324.5 -94.5q-131 0 -234.5 46.5t-173.5 130.5 q-70 -84 -173 -130.5t-232 -46.5q-156 0 -273.5 68t-182 189.5t-64.5 281.5zM301 512q0 -172 75 -264t216 -92q135 0 208.5 81.5t82.5 235.5v39v31v39q-8 154 -82 234.5t-209 80.5q-141 0 -216 -91t-75 -263v-31zM1118 639h553q-12 125 -79.5 193.5t-188.5 68.5 q-123 0 -194.5 -66.5t-90.5 -195.5z" />
<glyph unicode="&#x178;" horiz-adv-x="1302" d="M20 1454h261l374 -756l375 756h252l-512 -983v-471h-238v471zM309 1626v287h236v-287h-236zM756 1626v287h235v-287h-235z" />
<glyph unicode="&#x2c6;" horiz-adv-x="1017" d="M205 1208l162 308h284l162 -308h-174l-131 176l-129 -176h-174z" />
<glyph unicode="&#x2dc;" horiz-adv-x="1032" d="M205 1231q6 137 49 199.5t131 62.5q37 0 69.5 -13.5t73.5 -37.5q59 -37 88 -37t41.5 19.5t16.5 62.5h153q-6 -137 -50 -199.5t-130 -62.5q-39 0 -70.5 13t-70.5 38q-59 37 -90 37q-29 0 -42.5 -19.5t-15.5 -62.5h-153z" />
<glyph unicode="&#x2000;" horiz-adv-x="1004" />
<glyph unicode="&#x2001;" horiz-adv-x="2009" />
<glyph unicode="&#x2002;" horiz-adv-x="1004" />
<glyph unicode="&#x2003;" horiz-adv-x="2009" />
<glyph unicode="&#x2004;" horiz-adv-x="669" />
<glyph unicode="&#x2005;" horiz-adv-x="502" />
<glyph unicode="&#x2006;" horiz-adv-x="334" />
<glyph unicode="&#x2007;" horiz-adv-x="334" />
<glyph unicode="&#x2008;" horiz-adv-x="251" />
<glyph unicode="&#x2009;" horiz-adv-x="401" />
<glyph unicode="&#x200a;" horiz-adv-x="111" />
<glyph unicode="&#x2010;" horiz-adv-x="858" d="M111 502v194h634v-194h-634z" />
<glyph unicode="&#x2011;" horiz-adv-x="858" d="M111 502v194h634v-194h-634z" />
<glyph unicode="&#x2012;" horiz-adv-x="858" d="M111 502v194h634v-194h-634z" />
<glyph unicode="&#x2013;" horiz-adv-x="1255" d="M121 492v188h1014v-188h-1014z" />
<glyph unicode="&#x2014;" horiz-adv-x="1626" d="M20 487v197h1586v-197h-1586z" />
<glyph unicode="&#x2018;" horiz-adv-x="630" d="M193 932v276q0 156 79.5 235t229.5 79v-123q-90 0 -131 -42t-41 -136v-43h106v-246h-243z" />
<glyph unicode="&#x2019;" horiz-adv-x="630" d="M127 926v123q90 0 131 42t41 136v43h-106v246h243v-277q0 -156 -78.5 -234.5t-230.5 -78.5z" />
<glyph unicode="&#x201a;" horiz-adv-x="630" d="M127 -219q90 0 131 41t41 135v43h-106v246h243v-275q0 -158 -78.5 -236.5t-230.5 -78.5v125z" />
<glyph unicode="&#x201c;" horiz-adv-x="1042" d="M193 932v276q0 156 79.5 235t229.5 79v-123q-90 0 -131 -42t-41 -136v-43h106v-246h-243zM605 932v276q0 156 79.5 235t229.5 79v-123q-90 0 -131 -42t-41 -136v-43h106v-246h-243z" />
<glyph unicode="&#x201d;" horiz-adv-x="1042" d="M127 926v123q90 0 131 42t41 136v43h-106v246h243v-277q0 -156 -78.5 -234.5t-230.5 -78.5zM539 926v123q90 0 131 42t41 136v43h-106v246h243v-277q0 -156 -78.5 -234.5t-230.5 -78.5z" />
<glyph unicode="&#x201e;" horiz-adv-x="1042" d="M127 -219q90 0 131 41t41 135v43h-106v246h243v-275q0 -158 -78.5 -236.5t-230.5 -78.5v125zM539 -219q90 0 131 41t41 135v43h-106v246h243v-275q0 -158 -78.5 -236.5t-230.5 -78.5v125z" />
<glyph unicode="&#x2022;" horiz-adv-x="872" d="M221 584q0 102 61.5 156.5t151.5 54.5t152.5 -54.5t62.5 -156.5q0 -100 -62.5 -154.5t-152.5 -54.5q-88 0 -150.5 55t-62.5 154z" />
<glyph unicode="&#x2026;" horiz-adv-x="1443" d="M193 0v246h243v-246h-243zM601 0v246h243v-246h-243zM1006 0v246h243v-246h-243z" />
<glyph unicode="&#x202f;" horiz-adv-x="401" />
<glyph unicode="&#x2039;" horiz-adv-x="690" d="M55 496v14l340 410h226l-345 -416l345 -418h-228z" />
<glyph unicode="&#x203a;" horiz-adv-x="688" d="M70 86l346 418l-346 416h225l338 -410v-14l-340 -410h-223z" />
<glyph unicode="&#x205f;" horiz-adv-x="502" />
<glyph unicode="&#x20ac;" horiz-adv-x="1189" d="M0 494v168h133v40v50q0 43 2 63h-135v168h164q63 231 245.5 364.5t446.5 133.5q135 0 248 -39v-195q-100 29 -219 29q-183 0 -301.5 -76t-167.5 -217h434v-168h-469q-2 -20 -2 -63v-50v-40h471v-168h-442q47 -152 167.5 -234t309.5 -82q119 0 219 29v-193 q-111 -41 -248 -41q-270 0 -454.5 140.5t-243.5 380.5h-158z" />
<glyph unicode="&#x2122;" horiz-adv-x="1406" d="M8 1319v135h541v-135h-195v-524h-151v524h-195zM625 795v659h190l174 -471l174 471h185v-659h-146v409l-155 -409h-119l-156 409v-409h-147z" />
<glyph unicode="&#x25fc;" horiz-adv-x="1054" d="M0 0v1055h1055v-1055h-1055z" />
</font>
</defs>
</svg>
