<?xml version="1.0" standalone="no"?>
<!DOCTYPE svg PUBLIC "-//W3C//DTD SVG 1.1//EN" "http://www.w3.org/Graphics/SVG/1.1/DTD/svg11.dtd" >
<svg xmlns="http://www.w3.org/2000/svg" xmlns:xlink="http://www.w3.org/1999/xlink" version="1.1">
<metadata></metadata>
<defs>
<font id="elzaregular" horiz-adv-x="1515" >
<font-face units-per-em="2048" ascent="1638" descent="-410" />
<missing-glyph horiz-adv-x="397" />
<glyph unicode="&#xfb01;" horiz-adv-x="1146" d="M23 920v131h210v200q0 144 81 216.5t239 72.5q68 0 154 -20v-138q-92 21 -134 21q-99 0 -137.5 -41t-38.5 -133v-178h301v-131h-301v-920h-164v920h-210zM858 1221v295h172v-295h-172zM860 0v1051h164v-1051h-164z" />
<glyph unicode="&#xfb02;" horiz-adv-x="1148" d="M23 920v131h210v200q0 144 81 216.5t239 72.5q68 0 154 -20v-138q-92 21 -134 21q-99 0 -137.5 -41t-38.5 -133v-178h301v-131h-301v-920h-164v920h-210zM860 0v1516h164v-1516h-164z" />
<glyph horiz-adv-x="0" />
<glyph horiz-adv-x="682" />
<glyph unicode=" "  horiz-adv-x="397" />
<glyph unicode="&#x09;" horiz-adv-x="397" />
<glyph unicode="&#xa0;" horiz-adv-x="397" />
<glyph unicode="!" horiz-adv-x="466" d="M137 0v211h193v-211h-193zM145 1030v424h177v-424l-33 -620h-111z" />
<glyph unicode="&#x22;" horiz-adv-x="913" d="M203 1460v56h172v-56l-21 -416h-129zM537 1460v56h172v-56l-21 -416h-129z" />
<glyph unicode="#" horiz-adv-x="1122" d="M41 420v141h213l27 332h-205v143h217l33 418h149l-31 -418h291l31 418h152l-33 -418h196v-143h-209l-26 -332h201v-141h-211l-33 -420h-152l33 420h-291l-33 -420h-151l35 420h-203zM406 561h290l25 332h-291z" />
<glyph unicode="$" horiz-adv-x="1255" d="M72 453h176q13 -147 99 -225.5t226 -94.5v539q-244 46 -346 139.5t-102 249.5v20q0 159 122.5 271t325.5 125v141h144v-143q186 -22 302.5 -130t137.5 -298h-176q-15 116 -83.5 184.5t-180.5 87.5v-510q237 -45 352 -140.5t115 -260.5v-21q0 -165 -124.5 -278.5 t-342.5 -131.5v-141h-144v141q-222 18 -356.5 140.5t-144.5 335.5zM295 1069q0 -92 61.5 -146t216.5 -87v489q-128 -12 -203 -76t-75 -166v-14zM717 133q130 13 212.5 77t82.5 173v14q0 93 -66.5 151t-228.5 95v-510z" />
<glyph unicode="%" horiz-adv-x="1591" d="M43 1155q0 81 29.5 145t77.5 102t104.5 57.5t114.5 19.5t114 -19.5t104 -57.5t77.5 -102t29.5 -145q0 -79 -29.5 -143t-77 -102.5t-104 -58.5t-114.5 -20t-114.5 20t-104.5 58.5t-77.5 102.5t-29.5 143zM168 0l1077 1454h193l-1078 -1454h-192zM188 1155 q0 -85 51.5 -135.5t129.5 -50.5q77 0 128.5 50.5t51.5 135.5q0 88 -51 137t-129 49t-129.5 -49t-51.5 -137zM897 297q0 81 29.5 145.5t77.5 102.5t104.5 58t114.5 20t114.5 -20t105 -58t78 -102.5t29.5 -145.5q0 -79 -29.5 -143t-78 -101.5t-105 -57.5t-114.5 -20t-114.5 20 t-104.5 57.5t-77.5 101.5t-29.5 143zM1042 297q0 -85 52 -134.5t129 -49.5q78 0 130 49.5t52 134.5q0 89 -51.5 138.5t-130.5 49.5q-77 0 -129 -49.5t-52 -138.5z" />
<glyph unicode="&#x26;" horiz-adv-x="1286" d="M84 365q0 59 13.5 108t47 101.5t97.5 105t159 106.5l-34 41q-134 157 -134 318q0 138 98.5 236t264.5 98q150 0 241 -94t91 -228q0 -129 -71 -226.5t-212 -180.5l322 -392q54 116 39 289h170q14 -255 -99 -422l187 -225h-201l-90 109q-169 -134 -406 -134 q-219 0 -351 110.5t-132 279.5zM262 369q0 -107 78 -173.5t231 -66.5q186 0 301 98l-372 441q-75 -43 -122.5 -80.5t-72.5 -74.5t-34 -69.5t-9 -74.5zM412 1141q0 -62 21 -109.5t71 -111.5l45 -56q119 68 163 132.5t44 158.5q0 73 -45 123.5t-119 50.5q-84 0 -132 -52 t-48 -136z" />
<glyph unicode="'" horiz-adv-x="579" d="M203 1460v56h172v-56l-21 -416h-129z" />
<glyph unicode="(" horiz-adv-x="614" d="M113 627q0 237 80 474t210 415h170q-127 -191 -201.5 -427.5t-74.5 -461.5t74.5 -462.5t201.5 -428.5h-170q-130 176 -210 413t-80 478z" />
<glyph unicode=")" horiz-adv-x="614" d="M41 -264q127 191 201.5 428.5t74.5 462.5t-74.5 461.5t-201.5 427.5h172q129 -179 209 -415.5t80 -473.5q0 -240 -80 -477t-209 -414h-172z" />
<glyph unicode="*" horiz-adv-x="942" d="M203 1260l28 126l195 -67l-25 197h142l-27 -197l195 67l28 -126l-184 -21l129 -152l-123 -69l-88 192l-92 -192l-121 69l129 152z" />
<glyph unicode="+" horiz-adv-x="1126" d="M125 666v147h360v385h158v-385h361v-147h-361v-383h-158v383h-360z" />
<glyph unicode="," horiz-adv-x="600" d="M119 -236q166 0 166 177v59h-82v211h192v-260q0 -135 -74 -212t-202 -77v102z" />
<glyph unicode="-" horiz-adv-x="876" d="M121 514v152h633v-152h-633z" />
<glyph unicode="." horiz-adv-x="600" d="M203 0v211h192v-211h-192z" />
<glyph unicode="/" horiz-adv-x="886" d="M102 -205l525 1721h157l-526 -1721h-156z" />
<glyph unicode="0" horiz-adv-x="1259" d="M96 707v41q0 347 141 539t392 192q253 0 393.5 -191.5t140.5 -539.5v-41q0 -351 -140 -541.5t-394 -190.5q-253 0 -393 191t-140 541zM274 690q0 -283 92.5 -425t262.5 -142q171 0 263.5 142t92.5 425v74q0 282 -92.5 424.5t-263.5 142.5q-169 0 -262 -142.5t-93 -424.5 v-74z" />
<glyph unicode="1" horiz-adv-x="724" d="M82 1059v160q106 26 196 87t140 148h125v-1454h-164v1204q-109 -96 -297 -145z" />
<glyph unicode="2" horiz-adv-x="1140" d="M86 0v133q0 57 3.5 99t14.5 90t30.5 85t52.5 78.5t80.5 77.5t114 74.5t153.5 77.5q108 48 171.5 85t100.5 79.5t49 85.5t12 108v10q0 109 -75 177.5t-203 68.5q-141 0 -224.5 -79t-89.5 -218h-176q9 202 142 324.5t346 122.5q200 0 328 -111.5t128 -282.5v-12 q0 -82 -17.5 -142t-64 -120t-131.5 -115t-217 -114q-116 -53 -185 -98t-105.5 -97.5t-47.5 -103t-12 -131.5h797v-152h-975z" />
<glyph unicode="3" horiz-adv-x="1259" d="M109 422h172q13 -145 107.5 -222t252.5 -77q140 0 238 74t98 196v37q0 120 -91 184t-235 64h-153v143h149q122 0 204.5 63t82.5 175v37q0 104 -84 171.5t-207 67.5q-148 0 -235.5 -80t-96.5 -223h-168q9 201 145.5 324t352.5 123q197 0 327 -107t130 -276v-25 q0 -114 -64 -195t-172 -116q127 -29 205 -118t78 -222v-25q0 -183 -145 -301.5t-363 -118.5q-233 0 -374 119t-154 328z" />
<glyph unicode="4" horiz-adv-x="1208" d="M59 371v145l691 938h168v-938h208v-145h-208v-371h-162v371h-697zM231 514h525v717z" />
<glyph unicode="5" horiz-adv-x="1259" d="M129 410h176q12 -136 106.5 -210.5t229.5 -74.5q149 0 242.5 89.5t93.5 234.5v36q0 142 -92 231t-240 89q-100 0 -184.5 -45.5t-128.5 -118.5l-150 10l131 803h781v-151h-654l-80 -480q58 58 141.5 90.5t178.5 32.5q202 0 336.5 -130t134.5 -335v-24q0 -211 -145 -346.5 t-369 -135.5q-213 0 -353 118t-155 317z" />
<glyph unicode="6" horiz-adv-x="1259" d="M113 694v74q0 336 140.5 523.5t395.5 187.5q196 0 325.5 -106.5t158.5 -291.5h-179q-20 117 -101 181.5t-204 64.5q-91 0 -156.5 -28.5t-114.5 -93.5t-73 -178t-24 -275v-33q48 95 152.5 156t240.5 61q200 0 335.5 -125.5t135.5 -329.5v-24q0 -208 -141 -345t-357 -137 q-248 0 -391 185.5t-143 533.5zM315 449q0 -142 94.5 -235t239.5 -93q140 0 231 90.5t91 237.5v36q0 139 -88.5 223.5t-233.5 84.5q-146 0 -240 -88.5t-94 -223.5v-32z" />
<glyph unicode="7" horiz-adv-x="1122" d="M80 1303v151h989v-133q-489 -626 -602 -1321h-182q118 677 598 1303h-803z" />
<glyph unicode="8" horiz-adv-x="1259" d="M113 385v23q0 133 79 226t203 128q-104 39 -166.5 123t-62.5 196v21q0 164 132.5 270.5t330.5 106.5t331.5 -106.5t133.5 -270.5v-21q0 -112 -64.5 -195.5t-169.5 -123.5q124 -36 205.5 -129t81.5 -225v-23q0 -185 -145.5 -297.5t-372.5 -112.5q-226 0 -371 112.5 t-145 297.5zM289 395q0 -125 95.5 -198.5t244.5 -73.5q150 0 247 73.5t97 198.5v21q0 124 -98 196t-246 72q-146 0 -243 -72t-97 -196v-21zM336 1071q0 -110 84 -175t209 -65q126 0 210.5 65.5t84.5 174.5v21q0 111 -84 177t-211 66q-125 0 -209 -66t-84 -177v-21z" />
<glyph unicode="9" horiz-adv-x="1259" d="M115 973v24q0 208 140.5 345t356.5 137q248 0 391.5 -184.5t143.5 -532.5v-76q0 -336 -140.5 -523.5t-396.5 -187.5q-196 0 -324.5 106.5t-156.5 291.5h176q17 -116 98 -181t207 -65q91 0 156.5 28.5t114.5 93.5t73.5 178t24.5 275v33q-50 -95 -154 -156t-241 -61 q-199 0 -334 125.5t-135 329.5zM289 969q0 -139 89 -223t232 -84q146 0 240 88t94 223v33q0 142 -94.5 234.5t-239.5 92.5q-140 0 -230.5 -89.5t-90.5 -237.5v-37z" />
<glyph unicode=":" horiz-adv-x="600" d="M203 0v211h192v-211h-192zM203 840v211h192v-211h-192z" />
<glyph unicode=";" horiz-adv-x="600" d="M119 -236q166 0 166 177v59h-82v211h192v-260q0 -135 -74 -212t-202 -77v102zM203 840v211h192v-211h-192z" />
<glyph unicode="&#x3c;" horiz-adv-x="1126" d="M102 662v155l889 344v-149l-717 -269l717 -272v-154z" />
<glyph unicode="=" horiz-adv-x="1126" d="M104 463v160h918v-160h-918zM104 887v162h918v-162h-918z" />
<glyph unicode="&#x3e;" horiz-adv-x="1126" d="M135 317v154l717 272l-717 269v149l889 -344v-155z" />
<glyph unicode="?" horiz-adv-x="1077" d="M51 1032q14 147 86.5 249.5t181 150t244.5 47.5q205 0 334 -114t129 -282v-18q0 -75 -23.5 -136.5t-61.5 -102.5t-83.5 -76.5t-91 -67.5t-83.5 -66t-61.5 -80.5t-23.5 -103.5v-22h-180v26q0 73 24 132t62 99t84 75t92 67t84 66.5t62 83.5t24 108v20q0 111 -81 176.5 t-208 65.5q-143 0 -231 -75t-103 -222h-176zM414 0v229h192v-229h-192z" />
<glyph unicode="@" horiz-adv-x="1968" d="M84 481q0 272 121.5 487t336 334t484.5 119q240 0 436 -100.5t309 -283t113 -410.5q0 -262 -126 -432t-318 -170q-92 0 -151.5 45.5t-63.5 132.5q-49 -78 -138.5 -128t-205.5 -50q-191 0 -302 135t-83 368l4 37q25 210 156 336.5t321 126.5q111 0 192 -48.5t117 -121.5 l29 148h153l-77 -742q-4 -53 15 -76.5t64 -23.5q110 0 187.5 127.5t77.5 335.5q0 203 -94 354t-253.5 228t-361.5 77q-227 0 -404.5 -96.5t-279.5 -280.5t-102 -428q0 -177 50.5 -314.5t142.5 -224.5t216.5 -131.5t276.5 -43.5q154 0 221 30v-139q-66 -31 -221 -31 q-245 0 -434.5 100t-298.5 295t-109 459zM670 526q-21 -172 47 -266t207 -94q144 0 228.5 87.5t104.5 254.5l5 35q19 164 -51.5 253t-213.5 89q-138 0 -221 -84.5t-102 -241.5z" />
<glyph unicode="A" horiz-adv-x="1384" d="M31 0l567 1454h188l568 -1454h-185l-151 397h-660l-151 -397h-176zM416 547h545l-273 715z" />
<glyph unicode="B" horiz-adv-x="1300" d="M137 0v1454h555q219 0 342 -93t123 -286v-18q0 -97 -45.5 -173t-128.5 -114q112 -35 177 -126.5t65 -211.5v-31q0 -192 -134 -296.5t-352 -104.5h-602zM309 150h424q143 0 228.5 63t85.5 190v29q0 118 -75 180t-218 62h-445v-524zM309 821h387q141 0 212 62t71 172v18 q0 125 -74.5 178.5t-218.5 53.5h-377v-484z" />
<glyph unicode="C" horiz-adv-x="1409" d="M84 698v58q0 322 183 522.5t481 200.5q247 0 406.5 -145t184.5 -390h-176q-26 180 -137.5 279.5t-280.5 99.5q-223 0 -352 -156.5t-129 -410.5v-58q0 -254 130 -410.5t351 -156.5q183 0 296.5 110t121.5 291h178q-19 -246 -180.5 -401.5t-415.5 -155.5q-147 0 -270 52.5 t-209 146t-134 228.5t-48 296z" />
<glyph unicode="D" horiz-adv-x="1398" d="M137 0v1454h475q210 0 367 -79t246.5 -238t89.5 -381v-58q0 -331 -191 -514.5t-512 -183.5h-475zM311 152h287q254 0 395.5 136.5t141.5 409.5v58q0 271 -142 409t-399 138h-283v-1151z" />
<glyph unicode="E" horiz-adv-x="1202" d="M137 0v1454h957v-151h-783v-484h721v-151h-721v-516h793v-152h-967z" />
<glyph unicode="F" horiz-adv-x="1112" d="M137 0v1454h907v-151h-735v-500h670v-152h-670v-651h-172z" />
<glyph unicode="G" horiz-adv-x="1452" d="M84 698v58q0 211 83 375.5t235 256t348 91.5q240 0 400 -136.5t189 -359.5h-176q-28 160 -139 250t-276 90q-225 0 -354.5 -156t-129.5 -411v-58q0 -254 129 -410.5t348 -156.5q110 0 196.5 36t137.5 96t77 131.5t26 148.5v67h-449v150h612v-760h-147l-23 211 q-52 -104 -170 -170t-262 -66q-293 0 -474 199.5t-181 523.5z" />
<glyph unicode="H" horiz-adv-x="1419" d="M137 0v1454h174v-629h797v629h174v-1454h-174v674h-797v-674h-174z" />
<glyph unicode="I" horiz-adv-x="466" d="M145 0v1454h174v-1454h-174z" />
<glyph unicode="J" horiz-adv-x="1157" d="M66 424v92h170v-90q0 -295 307 -295q157 0 233 81t76 259v983h174v-977q0 -235 -124 -368.5t-357 -133.5q-230 0 -354.5 120.5t-124.5 328.5z" />
<glyph unicode="K" horiz-adv-x="1257" d="M137 0v1454h174v-774l688 774h215l-569 -629l590 -825h-205l-506 707l-213 -238v-469h-174z" />
<glyph unicode="L" horiz-adv-x="985" d="M137 0v1454h174v-1302h641v-152h-815z" />
<glyph unicode="M" horiz-adv-x="1716" d="M137 0v1454h266l457 -1239l457 1239h262v-1454h-174v1243l-465 -1243h-162l-467 1243v-1243h-174z" />
<glyph unicode="N" horiz-adv-x="1417" d="M137 0v1454h213l758 -1200v1200h172v-1454h-199l-772 1225v-1225h-172z" />
<glyph unicode="O" d="M84 698v58q0 325 184 524t490 199q202 0 355 -90.5t235 -254t82 -378.5v-58q0 -214 -82 -377.5t-235 -254.5t-355 -91t-355.5 91t-236 254.5t-82.5 377.5zM264 698q0 -259 132 -413t362 -154t361.5 154t131.5 413v58q0 259 -131.5 413t-361.5 154t-362 -154t-132 -413 v-58z" />
<glyph unicode="P" horiz-adv-x="1232" d="M137 0v1454h568q216 0 341 -108t125 -306v-36q0 -199 -125 -306.5t-341 -107.5h-394v-590h-174zM311 741h387q140 0 218.5 66.5t78.5 196.5v36q0 130 -78.5 196.5t-218.5 66.5h-387v-562z" />
<glyph unicode="Q" d="M84 698v58q0 325 184 524t490 199q202 0 355 -90.5t235 -254t82 -378.5v-58q0 -208 -77.5 -367.5t-219.5 -252.5l163 -252h-192l-119 184q-107 -35 -227 -35q-202 0 -355.5 91t-236 254.5t-82.5 377.5zM264 698q0 -259 132 -413t362 -154q68 0 137 16l-180 279h192 l137 -211q100 72 153.5 196.5t53.5 286.5v58q0 259 -131.5 413t-361.5 154t-362 -154t-132 -413v-58z" />
<glyph unicode="R" horiz-adv-x="1241" d="M137 0v1454h588q216 0 341.5 -108t125.5 -306v-36q0 -176 -99.5 -281t-275.5 -127l379 -596h-201l-372 590h-312v-590h-174zM311 741h408q140 0 218.5 66.5t78.5 196.5v36q0 130 -78.5 196.5t-218.5 66.5h-408v-562z" />
<glyph unicode="S" horiz-adv-x="1255" d="M72 453h176q7 -86 41 -149.5t89 -101t123.5 -55.5t151.5 -18q99 0 179 27.5t130 86t50 140.5v14q0 107 -90 168.5t-316 100.5q-262 44 -371.5 139t-109.5 256v20q0 169 138.5 283.5t363.5 114.5q221 0 363.5 -110t166.5 -322h-176q-18 138 -111 209t-243 71 q-151 0 -241.5 -65.5t-90.5 -178.5v-14q0 -104 80.5 -161t290.5 -91q264 -42 391 -138.5t127 -270.5v-21q0 -179 -144.5 -295.5t-394.5 -116.5q-252 0 -406.5 124t-166.5 354z" />
<glyph unicode="T" horiz-adv-x="1146" d="M39 1303v151h1069v-151h-449v-1303h-174v1303h-446z" />
<glyph unicode="U" horiz-adv-x="1392" d="M131 547v907h174v-901q0 -210 100 -316t293 -106q191 0 290 107t99 317v899h175v-905q0 -271 -144 -422.5t-420 -151.5t-421.5 150t-145.5 422z" />
<glyph unicode="V" horiz-adv-x="1294" d="M31 1454h182l438 -1251l432 1251h181l-523 -1454h-186z" />
<glyph unicode="W" horiz-adv-x="1941" d="M31 1454h182l324 -1233l340 1233h200l340 -1231l318 1231h176l-395 -1454h-201l-340 1223l-340 -1223h-207z" />
<glyph unicode="X" horiz-adv-x="1325" d="M23 0l534 758l-496 696h207l396 -569l399 569h199l-498 -696l539 -758h-207l-437 625l-440 -625h-196z" />
<glyph unicode="Y" horiz-adv-x="1273" d="M25 1454h192l422 -815l422 815h190l-528 -987v-467h-174v469z" />
<glyph unicode="Z" horiz-adv-x="1112" d="M61 0v137l775 1166h-736v151h938v-137l-772 -1165h785v-152h-990z" />
<glyph unicode="[" horiz-adv-x="716" d="M182 -188v1704h404v-162h-230v-1379h230v-163h-404z" />
<glyph unicode="\" horiz-adv-x="897" d="M102 1516h168l525 -1721h-168z" />
<glyph unicode="]" horiz-adv-x="716" d="M131 -25h229v1379h-229v162h406v-1704h-406v163z" />
<glyph unicode="^" horiz-adv-x="874" d="M121 289l217 829h199l217 -829h-152l-164 663l-166 -663h-151z" />
<glyph unicode="_" horiz-adv-x="737" d="M63 -25h613v-161h-613v161z" />
<glyph unicode="`" horiz-adv-x="909" d="M205 1516h246l254 -295h-177z" />
<glyph unicode="a" horiz-adv-x="1048" d="M72 274q0 116 67 194.5t191 96.5l442 66v92q0 109 -67 164t-175 55q-110 0 -179.5 -52.5t-78.5 -146.5h-159q13 156 124.5 244t294.5 88q189 0 295.5 -98.5t106.5 -263.5v-713h-154l-6 164q-50 -90 -143.5 -139.5t-206.5 -49.5q-162 0 -257 82.5t-95 216.5zM238 279 q0 -77 52 -121.5t150 -44.5q135 0 233.5 79t98.5 197v109l-389 -58q-145 -20 -145 -161z" />
<glyph unicode="b" horiz-adv-x="1173" d="M123 0v1516h164v-635q46 85 138.5 139.5t219.5 54.5q204 0 327.5 -146t123.5 -384v-39q0 -237 -125.5 -384t-327.5 -147q-130 0 -224.5 60t-137.5 149l-5 -184h-153zM281 506q0 -185 87 -288t248 -103q147 0 229.5 104.5t82.5 286.5v39q0 184 -82.5 287.5t-231.5 103.5 q-159 0 -246 -103t-87 -288v-39z" />
<glyph unicode="c" horiz-adv-x="1079" d="M78 506v39q0 240 129.5 385t359.5 145q188 0 306.5 -102t140.5 -273h-164q-22 112 -94 174t-193 62q-153 0 -235 -102t-82 -289v-39q0 -187 82.5 -289t236.5 -102q120 0 194.5 64.5t96.5 176.5h164q-30 -177 -149 -279t-306 -102q-229 0 -358 146.5t-129 384.5z" />
<glyph unicode="d" horiz-adv-x="1171" d="M78 506v39q0 238 122.5 384t327.5 146q126 0 217.5 -54t137.5 -138v633h166v-1516h-152l-4 188q-44 -90 -139 -151.5t-226 -61.5q-203 0 -326.5 147t-123.5 384zM246 506q0 -183 81.5 -287t229.5 -104q161 0 248.5 103t87.5 288v39q0 185 -87.5 288t-248.5 103 q-147 0 -229 -103.5t-82 -287.5v-39z" />
<glyph unicode="e" horiz-adv-x="1120" d="M78 506v39q0 238 133.5 384t363.5 146q245 0 367 -155q112 -142 112 -382q0 -22 -1 -44h-807q3 -182 90 -280.5t242 -98.5q123 0 199.5 54.5t103.5 156.5h166q-38 -167 -160.5 -259t-308.5 -92q-233 0 -366.5 146.5t-133.5 384.5zM250 627h631q-12 148 -90 228.5 t-216 80.5q-141 0 -224.5 -79t-100.5 -230z" />
<glyph unicode="f" horiz-adv-x="737" d="M23 920v131h210v200q0 144 81 216.5t239 72.5q68 0 154 -20v-138q-92 21 -134 21q-99 0 -137.5 -41t-38.5 -133v-178h301v-131h-301v-920h-164v920h-210z" />
<glyph unicode="g" horiz-adv-x="1171" d="M78 518v57q0 224 123 362t327 138q130 0 226 -61t139 -152l4 189h152v-1000q0 -191 -128.5 -307.5t-357.5 -116.5q-197 0 -316.5 82t-133.5 219h176q22 -168 280 -168q142 0 228 70.5t86 210.5v172q-45 -86 -137 -141.5t-218 -55.5q-134 0 -237.5 65.5t-158 179.5 t-54.5 257zM246 518q0 -164 82.5 -263t228.5 -99q159 0 247.5 98.5t88.5 263.5v57q0 170 -87.5 265.5t-248.5 95.5q-148 0 -229.5 -96t-81.5 -265v-57z" />
<glyph unicode="h" horiz-adv-x="1105" d="M123 0v1516h164v-633q48 89 134 140.5t206 51.5q183 0 273.5 -104t90.5 -291v-680h-162v641q0 293 -245 293q-135 0 -216 -91t-81 -247v-596h-164z" />
<glyph unicode="i" horiz-adv-x="409" d="M121 1221v295h172v-295h-172zM123 0v1051h164v-1051h-164z" />
<glyph unicode="j" horiz-adv-x="462" d="M-100 -215q61 -21 120 -21q86 0 121 42t35 133v1112h164v-1135q0 -141 -73.5 -215t-219.5 -74q-70 0 -147 25v133zM166 1221v295h172v-295h-172z" />
<glyph unicode="k" horiz-adv-x="970" d="M123 0v1516h164v-932l452 467h205l-432 -439l444 -612h-194l-369 508l-106 -111v-397h-164z" />
<glyph unicode="l" horiz-adv-x="409" d="M123 0v1516h164v-1516h-164z" />
<glyph unicode="m" horiz-adv-x="1744" d="M123 0v1051h160l2 -166q47 85 130.5 137.5t200.5 52.5q119 0 199 -54t117 -155q116 209 350 209q171 0 259.5 -102.5t88.5 -288.5v-684h-164v649q0 143 -56 214t-175 71q-130 0 -203.5 -91t-73.5 -249v-594h-163v649q0 142 -55 213.5t-173 71.5q-130 0 -205 -92t-75 -252 v-590h-164z" />
<glyph unicode="n" horiz-adv-x="1105" d="M123 0v1051h160l4 -170q48 90 133.5 142t206.5 52q183 0 273.5 -104t90.5 -291v-680h-162v641q0 293 -245 293q-135 0 -216 -91t-81 -247v-596h-164z" />
<glyph unicode="o" horiz-adv-x="1153" d="M78 506v39q0 242 134.5 386t362.5 144q229 0 364.5 -144t135.5 -386v-39q0 -242 -136 -386.5t-364 -144.5t-362.5 144.5t-134.5 386.5zM246 506q0 -186 85 -288.5t244 -102.5q160 0 246 102.5t86 288.5v39q0 186 -86 288.5t-246 102.5q-159 0 -244 -102.5t-85 -288.5v-39 z" />
<glyph unicode="p" horiz-adv-x="1173" d="M123 -348v1399h153l5 -189q43 91 138 152t226 61q204 0 327.5 -146t123.5 -384v-39q0 -237 -124 -384t-329 -147q-126 0 -217.5 56t-138.5 141v-520h-164zM281 506q0 -185 87 -288t246 -103q149 0 231.5 103.5t82.5 287.5v39q0 184 -82.5 287.5t-229.5 103.5 q-161 0 -248 -103t-87 -288v-39z" />
<glyph unicode="q" horiz-adv-x="1171" d="M78 506v39q0 239 122.5 384.5t327.5 145.5q130 0 226 -61t139 -152l4 189h152v-1399h-166v520q-45 -86 -137 -141.5t-218 -55.5q-204 0 -327 146.5t-123 384.5zM246 506q0 -184 82 -287.5t229 -103.5q161 0 248.5 103t87.5 288v39q0 185 -87.5 288t-248.5 103 q-148 0 -229.5 -103.5t-81.5 -287.5v-39z" />
<glyph unicode="r" horiz-adv-x="696" d="M123 0v1051h160l2 -203q47 109 131.5 168t193.5 59q36 0 56 -4v-164q-23 2 -60 2q-146 0 -232.5 -89t-86.5 -257v-563h-164z" />
<glyph unicode="s" horiz-adv-x="991" d="M68 322h157q35 -213 283 -213q113 0 179.5 45t66.5 129q0 75 -61.5 115.5t-219.5 68.5q-192 35 -280.5 103t-88.5 202q0 136 107 219.5t278 83.5q176 0 283.5 -83t124.5 -236h-162q-13 90 -78.5 138t-167.5 48t-162.5 -43.5t-60.5 -118.5q0 -74 58.5 -112.5t212.5 -63.5 q193 -32 288 -102.5t95 -202.5q0 -147 -115 -235.5t-301 -88.5q-189 0 -305 90.5t-131 256.5z" />
<glyph unicode="t" horiz-adv-x="768" d="M23 920v131h210v323h164v-323h301v-131h-301v-633q0 -91 38.5 -131.5t137.5 -40.5q64 0 134 20v-139q-90 -21 -154 -21q-158 0 -239 72.5t-81 216.5v656h-210z" />
<glyph unicode="u" horiz-adv-x="1091" d="M115 373v678h164v-648q0 -284 243 -284q133 0 208 93.5t75 248.5v590h164v-1051h-160l-2 166q-49 -88 -134.5 -139.5t-197.5 -51.5q-178 0 -269 104.5t-91 293.5z" />
<glyph unicode="v" horiz-adv-x="1034" d="M31 1051h174l317 -877l312 877h170l-394 -1051h-180z" />
<glyph unicode="w" horiz-adv-x="1550" d="M31 1051h166l245 -850l250 850h162l254 -856l248 856h166l-328 -1051h-174l-248 825l-244 -825h-176z" />
<glyph unicode="x" horiz-adv-x="1026" d="M31 0l383 539l-365 512h195l272 -389l275 389h182l-365 -506l389 -545h-194l-297 424l-293 -424h-182z" />
<glyph unicode="y" horiz-adv-x="1032" d="M31 1051h176l319 -861l305 861h170l-528 -1399h-168l135 350z" />
<glyph unicode="z" horiz-adv-x="942" d="M78 0v125l575 790h-551v136h740v-123l-570 -789h592v-139h-786z" />
<glyph unicode="{" horiz-adv-x="659" d="M61 596v178h39q50 0 76.5 27t26.5 76v387q0 117 67.5 184.5t184.5 67.5h123v-162h-101q-49 0 -75.5 -27.5t-26.5 -77.5v-372q0 -75 -25 -121t-84 -70q60 -25 84.5 -71t24.5 -119v-418q0 -50 26.5 -76.5t75.5 -26.5h101v-163h-123q-117 0 -184.5 67t-67.5 184v431 q0 49 -26.5 75.5t-76.5 26.5h-39z" />
<glyph unicode="|" horiz-adv-x="708" d="M268 -287v1803h172v-1803h-172z" />
<glyph unicode="}" horiz-adv-x="659" d="M82 -25h100q50 0 76.5 26.5t26.5 76.5v418q0 74 23.5 119.5t82.5 70.5q-59 24 -82.5 69.5t-23.5 121.5v372q0 50 -27 77.5t-76 27.5h-100v162h123q117 0 183.5 -67.5t66.5 -184.5v-387q0 -50 26.5 -76.5t75.5 -26.5h41v-178h-41q-49 0 -75.5 -26t-26.5 -76v-431 q0 -117 -66.5 -184t-183.5 -67h-123v163z" />
<glyph unicode="~" horiz-adv-x="839" d="M121 475q6 113 49 168t129 55q42 0 86 -22.5t81 -45t62 -22.5q31 0 44 20.5t16 67.5h131q-6 -116 -49 -169.5t-129 -53.5q-43 0 -86.5 21.5t-80 43t-63.5 21.5q-30 0 -43.5 -19.5t-15.5 -64.5h-131z" />
<glyph unicode="&#xa1;" horiz-adv-x="466" d="M137 840v211h193v-211h-193zM145 20l33 621h111l33 -621v-368h-177v368z" />
<glyph unicode="&#xa2;" horiz-adv-x="1079" d="M78 506v39q0 219 109.5 360.5t306.5 165.5v139h141v-139q160 -19 259.5 -117.5t119.5 -253.5h-164q-40 197 -215 230v-809q90 18 146 79t75 156h164q-26 -160 -126.5 -258.5t-258.5 -117.5v-156h-141v156q-197 23 -306.5 165t-109.5 361zM246 506q0 -163 63.5 -262.5 t184.5 -122.5v809q-120 -23 -184 -122.5t-64 -262.5v-39z" />
<glyph unicode="&#xa3;" horiz-adv-x="1220" d="M109 0v117q66 44 104.5 73.5t85.5 76.5t69.5 99t22.5 111q0 34 -10 72h-221v141h149q-14 19 -48 63t-51.5 70t-40 66.5t-32.5 82t-10 87.5v18q0 177 130.5 289.5t328.5 112.5q215 0 350.5 -123t144.5 -324h-178q-9 148 -90 223.5t-229 75.5q-125 0 -203 -68t-78 -182v-24 q0 -58 29 -115t86.5 -134t81.5 -118h397v-141h-342q8 -31 8 -72q0 -189 -203 -325h752v-152h-1003z" />
<glyph unicode="&#xa4;" horiz-adv-x="1138" d="M84 365l176 170q-53 77 -53 182q0 101 51 180l-174 168l121 117l180 -172q80 39 182 39q111 0 187 -43l182 176l119 -117l-176 -172q47 -77 47 -176q0 -104 -49 -180l178 -172l-121 -117l-182 176q-77 -41 -185 -41q-105 0 -182 41l-180 -176zM385 717q0 -78 49 -128 t133 -50t132.5 49.5t48.5 128.5t-48 127.5t-133 48.5t-133.5 -48.5t-48.5 -127.5z" />
<glyph unicode="&#xa5;" horiz-adv-x="1273" d="M25 1454h192l422 -815l422 815h190l-458 -856h260v-133h-330v-123h330v-131h-330v-211h-174v211h-340v131h340v123h-340v133h270z" />
<glyph unicode="&#xa6;" horiz-adv-x="708" d="M268 -287l8 799h158l6 -799h-172zM268 1516h172l-6 -779h-158z" />
<glyph unicode="&#xa7;" horiz-adv-x="1114" d="M68 213h157q17 -103 93 -157t190 -54q106 0 176 45.5t70 128.5q0 30 -12 53t-31.5 40t-58.5 33.5t-76.5 29t-102.5 30.5q-166 47 -246 123t-80 199q0 148 129 254q-89 39 -130.5 92.5t-41.5 143.5q0 136 111 220.5t279 84.5q173 0 279.5 -84t123.5 -238h-162 q-13 92 -78.5 140.5t-167.5 48.5q-100 0 -161.5 -44.5t-61.5 -119.5q0 -64 54 -97t217 -84q172 -53 256 -130t84 -199q0 -147 -121 -252q83 -37 123.5 -89.5t40.5 -137.5q0 -147 -116.5 -235.5t-299.5 -88.5q-188 0 -304.5 89t-131.5 255zM307 711q0 -84 52 -130.5 t178 -84.5q16 -4 32 -9.5t35 -12t29 -9.5q80 91 80 188q0 82 -55.5 129.5t-184.5 87.5l-78 25q-88 -91 -88 -184z" />
<glyph unicode="&#xa8;" horiz-adv-x="948" d="M205 1221v295h172v-295h-172zM571 1221v295h172v-295h-172z" />
<glyph unicode="&#xa9;" horiz-adv-x="1673" d="M84 727q0 214 97 386t269.5 269t387.5 97q214 0 386 -97t268.5 -269t96.5 -386t-96.5 -386t-268.5 -269t-386 -97q-215 0 -387.5 97t-269.5 269t-97 386zM248 727q0 -264 167 -436t423 -172q168 0 302 78t209.5 217t75.5 313t-75.5 313t-209.5 217t-302 78 q-256 0 -423 -172t-167 -436zM442 711v32q0 197 108.5 318t299.5 121q154 0 252 -85t117 -223h-152q-36 168 -221 168q-118 0 -182 -79t-64 -222v-28q0 -145 64 -223t184 -78q91 0 148 46t75 126h152q-25 -143 -123.5 -227.5t-251.5 -84.5q-190 0 -298 121.5t-108 317.5z " />
<glyph unicode="&#xaa;" horiz-adv-x="675" d="M37 993q0 76 46 125.5t132 61.5l242 32v41q0 46 -30 71.5t-87 25.5q-54 0 -88.5 -22.5t-40.5 -67.5h-150q7 100 82.5 155t198.5 55q125 0 196.5 -60t71.5 -159v-434h-149l-4 98q-29 -54 -83.5 -84t-123.5 -30q-95 0 -154 53.5t-59 138.5zM43 557v109h571v-109h-571z M190 999q0 -36 27 -56.5t76 -20.5q68 0 116 37t48 94v51l-187 -25q-80 -12 -80 -80z" />
<glyph unicode="&#xab;" horiz-adv-x="1007" d="M61 494v14l336 410h176l-340 -416l340 -418h-176zM414 494v14l338 410h176l-342 -416l342 -418h-178z" />
<glyph unicode="&#xac;" horiz-adv-x="1251" d="M203 684v141h844v-413h-164v272h-680z" />
<glyph unicode="&#xad;" horiz-adv-x="876" d="M121 514v152h633v-152h-633z" />
<glyph unicode="&#xae;" horiz-adv-x="1265" d="M78 930q0 241 152.5 395t402.5 154q252 0 403.5 -154t151.5 -395q0 -159 -67 -284t-194 -196t-294 -71q-251 0 -403 154.5t-152 396.5zM231 930q0 -196 102 -307t300 -111q199 0 300 111t101 307q0 195 -101 305.5t-300 110.5q-198 0 -300 -111t-102 -305zM412 639v582 h260q98 0 154.5 -47t56.5 -134v-12q0 -71 -38.5 -116.5t-107.5 -59.5l154 -213h-148l-145 207h-57v-207h-129zM541 965h135q78 0 78 63v12q0 62 -78 62h-135v-137z" />
<glyph unicode="&#xaf;" horiz-adv-x="1013" d="M205 1286v141h604v-141h-604z" />
<glyph unicode="&#xb0;" horiz-adv-x="737" d="M43 1155q0 81 29.5 145t77.5 102t104.5 57.5t114.5 19.5t114 -19.5t104 -57.5t77.5 -102t29.5 -145q0 -79 -29.5 -143t-77 -102.5t-104 -58.5t-114.5 -20t-114.5 20t-104.5 58.5t-77.5 102.5t-29.5 143zM188 1155q0 -85 51.5 -135.5t129.5 -50.5q77 0 128.5 50.5 t51.5 135.5q0 88 -51 137t-129 49t-129.5 -49t-51.5 -137z" />
<glyph unicode="&#xb1;" horiz-adv-x="1126" d="M115 207v166h899v-166h-899zM115 893v162h364v346h172v-346h363v-162h-363v-342h-172v342h-364z" />
<glyph unicode="&#xb2;" horiz-adv-x="575" d="M31 928v86q0 106 48.5 173t178.5 122q90 38 119 67.5t29 79.5v2q0 44 -29 73.5t-80 29.5q-57 0 -90.5 -32.5t-34.5 -92.5h-135q6 106 73.5 170.5t186.5 64.5q108 0 176 -59.5t68 -147.5v-6q0 -76 -41 -131t-154 -104q-105 -48 -136.5 -83t-31.5 -96h367v-116h-514z" />
<glyph unicode="&#xb3;" horiz-adv-x="632" d="M41 1151h137q10 -125 137 -125q58 0 93.5 30.5t35.5 80.5v12q0 51 -34 78.5t-95 27.5h-71v103h71q51 0 82 25.5t31 70.5v10q0 44 -30 71.5t-83 27.5q-57 0 -90.5 -31.5t-36.5 -91.5h-131q3 105 75.5 168t184.5 63q107 0 176.5 -54t69.5 -142v-11q0 -54 -31.5 -95 t-82.5 -60q61 -14 100 -59.5t39 -110.5v-11q0 -97 -74 -155t-197 -58q-124 0 -199.5 64t-76.5 172z" />
<glyph unicode="&#xb4;" horiz-adv-x="909" d="M205 1221l252 295h248l-326 -295h-174z" />
<glyph unicode="&#xb5;" horiz-adv-x="1245" d="M123 -348v1399h168v-568q0 -174 86.5 -271t245.5 -97t245 97t86 271v568h168v-1051h-137l-6 178q-56 -98 -146.5 -150.5t-209.5 -52.5q-221 0 -338 175v-498h-162z" />
<glyph unicode="&#xb6;" horiz-adv-x="1327" d="M92 975q0 105 32 190.5t97 151t172.5 101.5t249.5 36h502v-1741h-154v1575h-188v-1575h-150v799h-39q-230 0 -376 126.5t-146 336.5z" />
<glyph unicode="&#xb7;" horiz-adv-x="600" d="M203 430v211h192v-211h-192z" />
<glyph unicode="&#xb8;" horiz-adv-x="790" d="M205 -326q42 -20 110 -20q56 0 80.5 18.5t24.5 55.5q0 75 -92 75q-50 0 -86 -8v80l65 125h131l-55 -109h8q84 0 139.5 -37.5t55.5 -127.5t-67.5 -136.5t-174.5 -46.5q-91 0 -139 27v104z" />
<glyph unicode="&#xb9;" horiz-adv-x="403" d="M37 1411v125q114 25 184 123h103v-731h-142v553q-60 -48 -145 -70z" />
<glyph unicode="&#xba;" horiz-adv-x="724" d="M41 1128v17q0 144 88 234.5t233 90.5t233.5 -90.5t88.5 -234.5v-17q0 -146 -88.5 -236.5t-233.5 -90.5t-233 90.5t-88 236.5zM76 557v109h571v-109h-571zM201 1128q0 -99 41 -150.5t120 -51.5t120.5 52t41.5 150v17q0 97 -41.5 149t-120.5 52t-120 -52t-41 -149v-17z" />
<glyph unicode="&#xbb;" horiz-adv-x="1005" d="M80 84l342 418l-342 416h178l336 -410v-14l-336 -410h-178zM432 84l342 418l-342 416h178l334 -410v-14l-334 -410h-178z" />
<glyph unicode="&#xbc;" horiz-adv-x="1472" d="M37 1206v125q114 25 184 123h103v-731h-142v553q-60 -48 -145 -70zM53 0l1077 1454h193l-1077 -1454h-193zM862 170v106l338 455h143v-452h101v-109h-101v-170h-135v170h-346zM989 279h219v296z" />
<glyph unicode="&#xbd;" horiz-adv-x="1480" d="M37 1206v125q114 25 184 123h103v-731h-142v553q-60 -48 -145 -70zM53 0l1077 1454h193l-1077 -1454h-193zM936 0v86q0 105 49 172.5t178 122.5q90 38 119 67.5t29 79.5v2q0 44 -29 73.5t-80 29.5q-57 0 -90.5 -32.5t-34.5 -92.5h-135q6 106 73.5 170.5t186.5 64.5 q108 0 176 -59t68 -147v-7q0 -76 -41 -131t-154 -104q-106 -48 -137 -82.5t-31 -95.5h367v-117h-514z" />
<glyph unicode="&#xbe;" horiz-adv-x="1622" d="M41 946h137q10 -125 137 -125q58 0 93.5 30.5t35.5 80.5v12q0 51 -34.5 79t-94.5 28h-71v102h71q51 0 82 25.5t31 70.5v11q0 44 -30 71t-83 27q-57 0 -90.5 -31.5t-36.5 -91.5h-131q3 105 75.5 168t184.5 63q107 0 176.5 -54t69.5 -142v-10q0 -54 -31.5 -95.5 t-82.5 -60.5q61 -14 100 -59.5t39 -110.5v-10q0 -97 -74 -155t-197 -58q-124 0 -199.5 63.5t-76.5 171.5zM203 0l1077 1454h193l-1078 -1454h-192zM1012 170v106l338 455h143v-452h100v-109h-100v-170h-135v170h-346zM1139 279h219v296z" />
<glyph unicode="&#xbf;" horiz-adv-x="1034" d="M51 10v21q0 72 23.5 131t61 99t83 75t91 66t83 63.5t61 76.5t23.5 97v25h180v-25q0 -70 -23.5 -127t-61.5 -96t-83.5 -72.5t-91 -65t-83.5 -65t-61.5 -80.5t-23.5 -104v-21q0 -105 80 -167t207 -62q143 0 231 77.5t101 233.5h176q-21 -227 -161 -345t-349 -118 q-205 0 -334 110.5t-129 272.5zM471 821v230h195v-230h-195z" />
<glyph unicode="&#xc0;" horiz-adv-x="1384" d="M31 0l567 1454h188l568 -1454h-185l-151 397h-660l-151 -397h-176zM311 1896h262l244 -278h-182zM416 547h545l-273 715z" />
<glyph unicode="&#xc1;" horiz-adv-x="1384" d="M31 0l567 1454h188l568 -1454h-185l-151 397h-660l-151 -397h-176zM416 547h545l-273 715zM567 1618l242 278h264l-323 -278h-183z" />
<glyph unicode="&#xc2;" horiz-adv-x="1384" d="M31 0l567 1454h188l568 -1454h-185l-151 397h-660l-151 -397h-176zM371 1618l219 278h207l219 -278h-166l-158 166l-155 -166h-166zM416 547h545l-273 715z" />
<glyph unicode="&#xc3;" horiz-adv-x="1384" d="M31 0l567 1454h188l568 -1454h-185l-151 397h-660l-151 -397h-176zM373 1659q9 221 178 221q53 0 102 -22.5t89.5 -45t70.5 -22.5q35 0 53 21t21 67h127q-9 -223 -178 -223q-43 0 -83.5 14t-66.5 31t-57 31t-56 14q-35 0 -52.5 -21t-20.5 -65h-127zM416 547h545l-273 715 z" />
<glyph unicode="&#xc4;" horiz-adv-x="1384" d="M31 0l567 1454h188l568 -1454h-185l-151 397h-660l-151 -397h-176zM401 1636v260h172v-260h-172zM416 547h545l-273 715zM809 1636v260h172v-260h-172z" />
<glyph unicode="&#xc5;" horiz-adv-x="1384" d="M31 0l567 1454h188l568 -1454h-185l-151 397h-660l-151 -397h-176zM416 547h545l-273 715zM479 1753q0 89 59.5 145t153.5 56t152.5 -56t58.5 -145q0 -90 -59 -147.5t-152 -57.5q-94 0 -153.5 58t-59.5 147zM602 1753q0 -39 25.5 -63.5t64.5 -24.5q40 0 64 24t24 64 q0 38 -24 61t-64 23q-39 0 -64.5 -23t-25.5 -61z" />
<glyph unicode="&#xc6;" horiz-adv-x="1925" d="M31 0l741 1454h1045v-151h-783v-484h721v-151h-721v-516h793v-152h-967v399h-452l-201 -399h-176zM481 547h379v756h-2z" />
<glyph unicode="&#xc7;" horiz-adv-x="1409" d="M84 698v58q0 322 183 522.5t481 200.5q247 0 406.5 -145t184.5 -390h-176q-26 180 -137.5 279.5t-280.5 99.5q-223 0 -352 -156.5t-129 -410.5v-58q0 -254 130 -410.5t351 -156.5q183 0 296.5 110t121.5 291h178q-18 -234 -165.5 -387t-382.5 -168l-43 -86h8 q84 0 139 -37.5t55 -127.5t-67 -136.5t-174 -46.5q-92 0 -140 27v104q42 -20 111 -20q56 0 80 18.5t24 55.5q0 75 -92 75q-50 0 -86 -8v80l56 105q-264 28 -422 222.5t-158 495.5z" />
<glyph unicode="&#xc8;" horiz-adv-x="1202" d="M137 0v1454h957v-151h-783v-484h721v-151h-721v-516h793v-152h-967zM246 1896h262l244 -278h-183z" />
<glyph unicode="&#xc9;" horiz-adv-x="1202" d="M137 0v1454h957v-151h-783v-484h721v-151h-721v-516h793v-152h-967zM502 1618l241 278h265l-324 -278h-182z" />
<glyph unicode="&#xca;" horiz-adv-x="1202" d="M137 0v1454h957v-151h-783v-484h721v-151h-721v-516h793v-152h-967zM303 1618l219 278h207l219 -278h-166l-157 166l-156 -166h-166z" />
<glyph unicode="&#xcb;" horiz-adv-x="1202" d="M137 0v1454h957v-151h-783v-484h721v-151h-721v-516h793v-152h-967zM334 1636v260h172v-260h-172zM741 1636v260h172v-260h-172z" />
<glyph unicode="&#xcc;" horiz-adv-x="466" d="M-66 1896h244l141 -278h-159zM145 0v1454h174v-1454h-174z" />
<glyph unicode="&#xcd;" horiz-adv-x="466" d="M139 1618l142 278h243l-227 -278h-158zM145 0v1454h174v-1454h-174z" />
<glyph unicode="&#xce;" horiz-adv-x="466" d="M-27 1618l160 278h199l160 -278h-150l-111 168l-108 -168h-150zM145 0v1454h174v-1454h-174z" />
<glyph unicode="&#xcf;" horiz-adv-x="466" d="M-12 1636v260h168v-260h-168zM145 0v1454h174v-1454h-174zM309 1636v260h168v-260h-168z" />
<glyph unicode="&#xd0;" horiz-adv-x="1398" d="M6 662v151h131v641h475q210 0 367 -79t246.5 -238t89.5 -381v-58q0 -331 -191 -514.5t-512 -183.5h-475v662h-131zM311 152h287q254 0 395.5 136.5t141.5 409.5v58q0 271 -142 409t-399 138h-283v-490h430v-151h-430v-510z" />
<glyph unicode="&#xd1;" horiz-adv-x="1417" d="M137 0v1454h213l758 -1200v1200h172v-1454h-199l-772 1225v-1225h-172zM389 1659q9 221 178 221q53 0 102 -22.5t89.5 -45t70.5 -22.5q35 0 53 21t21 67h127q-9 -223 -178 -223q-54 0 -103 22.5t-88.5 45t-70.5 22.5q-68 0 -74 -86h-127z" />
<glyph unicode="&#xd2;" d="M84 698v58q0 325 184 524t490 199q202 0 355 -90.5t235 -254t82 -378.5v-58q0 -214 -82 -377.5t-235 -254.5t-355 -91t-355.5 91t-236 254.5t-82.5 377.5zM264 698q0 -259 132 -413t362 -154t361.5 154t131.5 413v58q0 259 -131.5 413t-361.5 154t-362 -154t-132 -413 v-58zM377 1896h262l244 -278h-183z" />
<glyph unicode="&#xd3;" d="M84 698v58q0 325 184 524t490 199q202 0 355 -90.5t235 -254t82 -378.5v-58q0 -214 -82 -377.5t-235 -254.5t-355 -91t-355.5 91t-236 254.5t-82.5 377.5zM264 698q0 -259 132 -413t362 -154t361.5 154t131.5 413v58q0 259 -131.5 413t-361.5 154t-362 -154t-132 -413 v-58zM633 1618l241 278h265l-324 -278h-182z" />
<glyph unicode="&#xd4;" d="M84 698v58q0 325 184 524t490 199q202 0 355 -90.5t235 -254t82 -378.5v-58q0 -214 -82 -377.5t-235 -254.5t-355 -91t-355.5 91t-236 254.5t-82.5 377.5zM264 698q0 -259 132 -413t362 -154t361.5 154t131.5 413v58q0 259 -131.5 413t-361.5 154t-362 -154t-132 -413 v-58zM436 1618l219 278h207l219 -278h-166l-157 166l-156 -166h-166z" />
<glyph unicode="&#xd5;" d="M84 698v58q0 325 184 524t490 199q202 0 355 -90.5t235 -254t82 -378.5v-58q0 -214 -82 -377.5t-235 -254.5t-355 -91t-355.5 91t-236 254.5t-82.5 377.5zM264 698q0 -259 132 -413t362 -154t361.5 154t131.5 413v58q0 259 -131.5 413t-361.5 154t-362 -154t-132 -413 v-58zM436 1659q9 221 178 221q41 0 82 -14t67.5 -31t57.5 -31t56 -14q35 0 52.5 21t20.5 67h127q-9 -223 -178 -223q-54 0 -103 22.5t-88.5 45t-70.5 22.5q-68 0 -74 -86h-127z" />
<glyph unicode="&#xd6;" d="M84 698v58q0 325 184 524t490 199q202 0 355 -90.5t235 -254t82 -378.5v-58q0 -214 -82 -377.5t-235 -254.5t-355 -91t-355.5 91t-236 254.5t-82.5 377.5zM264 698q0 -259 132 -413t362 -154t361.5 154t131.5 413v58q0 259 -131.5 413t-361.5 154t-362 -154t-132 -413 v-58zM467 1636v260h172v-260h-172zM874 1636v260h173v-260h-173z" />
<glyph unicode="&#xd7;" horiz-adv-x="1126" d="M133 463l324 323l-324 326l107 107l323 -326l322 326l110 -105l-325 -328l325 -325l-110 -107l-322 324l-323 -324z" />
<glyph unicode="&#xd8;" d="M4 0l213 238q-133 187 -133 460v58q0 325 184 524t490 199q259 0 434 -148l111 123h204l-211 -235q134 -189 134 -463v-58q0 -214 -82 -377.5t-235 -254.5t-355 -91q-262 0 -439 150l-110 -125h-205zM264 698q0 -190 72 -325l745 833q-126 117 -323 117q-230 0 -362 -154 t-132 -413v-58zM432 250q128 -119 326 -119q230 0 361.5 154t131.5 413v58q0 189 -73 329z" />
<glyph unicode="&#xd9;" horiz-adv-x="1392" d="M131 547v907h174v-901q0 -210 100 -316t293 -106q191 0 290 107t99 317v899h175v-905q0 -271 -144 -422.5t-420 -151.5t-421.5 150t-145.5 422zM317 1896h263l243 -278h-182z" />
<glyph unicode="&#xda;" horiz-adv-x="1392" d="M131 547v907h174v-901q0 -210 100 -316t293 -106q191 0 290 107t99 317v899h175v-905q0 -271 -144 -422.5t-420 -151.5t-421.5 150t-145.5 422zM573 1618l242 278h264l-323 -278h-183z" />
<glyph unicode="&#xdb;" horiz-adv-x="1392" d="M131 547v907h174v-901q0 -210 100 -316t293 -106q191 0 290 107t99 317v899h175v-905q0 -271 -144 -422.5t-420 -151.5t-421.5 150t-145.5 422zM375 1618l219 278h207l219 -278h-166l-158 166l-155 -166h-166z" />
<glyph unicode="&#xdc;" horiz-adv-x="1392" d="M131 547v907h174v-901q0 -210 100 -316t293 -106q191 0 290 107t99 317v899h175v-905q0 -271 -144 -422.5t-420 -151.5t-421.5 150t-145.5 422zM406 1636v260h172v-260h-172zM813 1636v260h172v-260h-172z" />
<glyph unicode="&#xdd;" horiz-adv-x="1273" d="M25 1454h192l422 -815l422 815h190l-528 -987v-467h-174v469zM512 1618l242 278h264l-324 -278h-182z" />
<glyph unicode="&#xde;" horiz-adv-x="1232" d="M137 0v1454h174v-276h394q216 0 341 -107t125 -305v-39q0 -198 -125 -306t-341 -108h-394v-313h-174zM311 465h385q140 0 218.5 66.5t78.5 195.5v39q0 129 -78.5 194.5t-218.5 65.5h-385v-561z" />
<glyph unicode="&#xdf;" horiz-adv-x="1196" d="M115 0v1024q0 114 25 203t68 147t104.5 96t130.5 54t149 16q198 0 320 -110.5t122 -286.5v-17q0 -101 -42 -180t-115 -121q121 -45 184 -147t63 -240v-18q0 -209 -129.5 -327t-357.5 -118q-96 0 -186 33v139q84 -32 182 -32q147 0 235 73.5t88 229.5v18 q0 140 -81.5 221.5t-227.5 81.5h-147v138h82q143 0 213.5 59.5t70.5 181.5v19q0 120 -70.5 187t-203.5 67q-71 0 -124.5 -17t-98 -57t-67.5 -114t-23 -181v-1022h-164z" />
<glyph unicode="&#xe0;" horiz-adv-x="1048" d="M72 274q0 116 67 194.5t191 96.5l442 66v92q0 109 -67 164t-175 55q-110 0 -179.5 -52.5t-78.5 -146.5h-159q13 156 124.5 244t294.5 88q189 0 295.5 -98.5t106.5 -263.5v-713h-154l-6 164q-50 -90 -143.5 -139.5t-206.5 -49.5q-162 0 -257 82.5t-95 216.5zM168 1516h246 l254 -295h-176zM238 279q0 -77 52 -121.5t150 -44.5q135 0 233.5 79t98.5 197v109l-389 -58q-145 -20 -145 -161z" />
<glyph unicode="&#xe1;" horiz-adv-x="1048" d="M72 274q0 116 67 194.5t191 96.5l442 66v92q0 109 -67 164t-175 55q-110 0 -179.5 -52.5t-78.5 -146.5h-159q13 156 124.5 244t294.5 88q189 0 295.5 -98.5t106.5 -263.5v-713h-154l-6 164q-50 -90 -143.5 -139.5t-206.5 -49.5q-162 0 -257 82.5t-95 216.5zM238 279 q0 -77 52 -121.5t150 -44.5q135 0 233.5 79t98.5 197v109l-389 -58q-145 -20 -145 -161zM399 1221l252 295h248l-326 -295h-174z" />
<glyph unicode="&#xe2;" horiz-adv-x="1048" d="M72 274q0 116 67 194.5t191 96.5l442 66v92q0 109 -67 164t-175 55q-110 0 -179.5 -52.5t-78.5 -146.5h-159q13 156 124.5 244t294.5 88q189 0 295.5 -98.5t106.5 -263.5v-713h-154l-6 164q-50 -90 -143.5 -139.5t-206.5 -49.5q-162 0 -257 82.5t-95 216.5zM238 279 q0 -77 52 -121.5t150 -44.5q135 0 233.5 79t98.5 197v109l-389 -58q-145 -20 -145 -161zM256 1221l174 295h205l174 -295h-150l-127 182l-124 -182h-152z" />
<glyph unicode="&#xe3;" horiz-adv-x="1048" d="M72 274q0 116 67 194.5t191 96.5l442 66v92q0 109 -67 164t-175 55q-110 0 -179.5 -52.5t-78.5 -146.5h-159q13 156 124.5 244t294.5 88q189 0 295.5 -98.5t106.5 -263.5v-713h-154l-6 164q-50 -90 -143.5 -139.5t-206.5 -49.5q-162 0 -257 82.5t-95 216.5zM233 1249 q6 115 49.5 170.5t129.5 55.5q33 0 68 -14t59.5 -31.5t52.5 -31.5t49 -14q31 0 43.5 20.5t15.5 65.5h131q-6 -114 -49 -168.5t-129 -54.5q-43 0 -86 22t-79.5 44t-63.5 22q-30 0 -43.5 -20.5t-15.5 -65.5h-132zM238 279q0 -77 52 -121.5t150 -44.5q135 0 233.5 79t98.5 197 v109l-389 -58q-145 -20 -145 -161z" />
<glyph unicode="&#xe4;" horiz-adv-x="1048" d="M72 274q0 116 67 194.5t191 96.5l442 66v92q0 109 -67 164t-175 55q-110 0 -179.5 -52.5t-78.5 -146.5h-159q13 156 124.5 244t294.5 88q189 0 295.5 -98.5t106.5 -263.5v-713h-154l-6 164q-50 -90 -143.5 -139.5t-206.5 -49.5q-162 0 -257 82.5t-95 216.5zM238 279 q0 -77 52 -121.5t150 -44.5q135 0 233.5 79t98.5 197v109l-389 -58q-145 -20 -145 -161zM262 1221v295h172v-295h-172zM629 1221v295h172v-295h-172z" />
<glyph unicode="&#xe5;" horiz-adv-x="1048" d="M72 274q0 116 67 194.5t191 96.5l442 66v92q0 109 -67 164t-175 55q-110 0 -179.5 -52.5t-78.5 -146.5h-159q13 156 124.5 244t294.5 88q189 0 295.5 -98.5t106.5 -263.5v-713h-154l-6 164q-50 -90 -143.5 -139.5t-206.5 -49.5q-162 0 -257 82.5t-95 216.5zM238 279 q0 -77 52 -121.5t150 -44.5q135 0 233.5 79t98.5 197v109l-389 -58q-145 -20 -145 -161zM319 1407q0 89 59.5 145t153.5 56t152.5 -56t58.5 -145t-58.5 -146t-152.5 -57t-153.5 57t-59.5 146zM442 1407q0 -39 25.5 -63.5t64.5 -24.5q40 0 64.5 24t24.5 64q0 39 -24.5 62.5 t-64.5 23.5q-39 0 -64.5 -23.5t-25.5 -62.5z" />
<glyph unicode="&#xe6;" horiz-adv-x="1816" d="M72 272q0 119 72.5 198t203.5 99l424 62v94q0 109 -67 163t-175 54q-107 0 -176.5 -50t-81.5 -136h-159q14 148 125.5 233.5t293.5 85.5q126 0 216.5 -44.5t138.5 -127.5q136 172 385 172q245 0 366.5 -155t110.5 -426h-807q3 -182 90 -280.5t242 -98.5q123 0 199.5 54.5 t103.5 156.5h166q-38 -167 -160.5 -259t-308.5 -92q-144 0 -251.5 57.5t-170.5 162.5q-54 -105 -168.5 -162.5t-257.5 -57.5q-164 0 -259 81.5t-95 215.5zM238 276q0 -76 52.5 -119.5t149.5 -43.5q141 0 236.5 74.5t95.5 201.5v109l-352 -54q-182 -24 -182 -168zM946 627 h631q-12 149 -89 229t-216 80q-141 0 -225 -79t-101 -230z" />
<glyph unicode="&#xe7;" horiz-adv-x="1079" d="M78 506v39q0 240 129.5 385t359.5 145q188 0 306.5 -102t140.5 -273h-164q-22 112 -94 174t-193 62q-153 0 -235 -102t-82 -289v-39q0 -187 82.5 -289t236.5 -102q120 0 194.5 64.5t96.5 176.5h164q-28 -165 -133.5 -265.5t-272.5 -113.5l-43 -86h9q84 0 139 -37.5 t55 -127.5t-67.5 -136.5t-174.5 -46.5q-91 0 -139 27v104q42 -20 111 -20q56 0 80 18.5t24 55.5q0 75 -92 75q-50 0 -86 -8v80l55 105q-193 26 -300 168t-107 358z" />
<glyph unicode="&#xe8;" horiz-adv-x="1120" d="M78 506v39q0 238 133.5 384t363.5 146q245 0 367 -155t111 -426h-807q3 -182 90 -280.5t242 -98.5q123 0 199.5 54.5t103.5 156.5h166q-38 -167 -160.5 -259t-308.5 -92q-233 0 -366.5 146.5t-133.5 384.5zM211 1516h246l254 -295h-176zM250 627h631q-12 148 -90 228.5 t-216 80.5q-141 0 -224.5 -79t-100.5 -230z" />
<glyph unicode="&#xe9;" horiz-adv-x="1120" d="M78 506v39q0 238 133.5 384t363.5 146q245 0 367 -155t111 -426h-807q3 -182 90 -280.5t242 -98.5q123 0 199.5 54.5t103.5 156.5h166q-38 -167 -160.5 -259t-308.5 -92q-233 0 -366.5 146.5t-133.5 384.5zM250 627h631q-12 148 -90 228.5t-216 80.5q-141 0 -224.5 -79 t-100.5 -230zM444 1221l252 295h248l-326 -295h-174z" />
<glyph unicode="&#xea;" horiz-adv-x="1120" d="M78 506v39q0 238 133.5 384t363.5 146q245 0 367 -155t111 -426h-807q3 -182 90 -280.5t242 -98.5q123 0 199.5 54.5t103.5 156.5h166q-38 -167 -160.5 -259t-308.5 -92q-233 0 -366.5 146.5t-133.5 384.5zM250 627h631q-12 148 -90 228.5t-216 80.5q-141 0 -224.5 -79 t-100.5 -230zM299 1221l174 295h205l174 -295h-150l-127 182l-124 -182h-152z" />
<glyph unicode="&#xeb;" horiz-adv-x="1120" d="M78 506v39q0 238 133.5 384t363.5 146q245 0 367 -155t111 -426h-807q3 -182 90 -280.5t242 -98.5q123 0 199.5 54.5t103.5 156.5h166q-38 -167 -160.5 -259t-308.5 -92q-233 0 -366.5 146.5t-133.5 384.5zM250 627h631q-12 148 -90 228.5t-216 80.5q-141 0 -224.5 -79 t-100.5 -230zM307 1221v295h172v-295h-172zM674 1221v295h172v-295h-172z" />
<glyph unicode="&#xec;" horiz-adv-x="409" d="M-98 1516h229l160 -295h-162zM123 0v1051h164v-1051h-164z" />
<glyph unicode="&#xed;" horiz-adv-x="409" d="M115 1221l159 295h230l-228 -295h-161zM123 0v1051h164v-1051h-164z" />
<glyph unicode="&#xee;" horiz-adv-x="409" d="M-8 1221l104 295h219l105 -295h-129l-86 186l-84 -186h-129zM123 0v1051h164v-1051h-164z" />
<glyph unicode="&#xef;" horiz-adv-x="409" d="M-27 1221v295h162v-295h-162zM123 0v1051h164v-1051h-164zM274 1221v295h162v-295h-162z" />
<glyph unicode="&#xf0;" horiz-adv-x="1153" d="M78 485v19q0 236 122.5 382t327.5 146q123 0 213 -48.5t144 -127.5q-56 246 -203 371l-367 -137l-41 114l281 105q-120 58 -291 92l43 131q258 -51 422 -158l227 84l41 -112l-159 -60q120 -119 178.5 -292.5t58.5 -415.5v-17q0 -282 -134 -434t-366 -152 q-228 0 -362.5 139.5t-134.5 370.5zM246 485q0 -176 85 -273t244 -97q160 0 246 97t86 273v17q0 185 -91 287t-259 102q-147 0 -229 -102.5t-82 -284.5v-19z" />
<glyph unicode="&#xf1;" horiz-adv-x="1105" d="M123 0v1051h160l4 -170q48 90 133.5 142t206.5 52q183 0 273.5 -104t90.5 -291v-680h-162v641q0 293 -245 293q-135 0 -216 -91t-81 -247v-596h-164zM254 1249q6 115 49 170.5t129 55.5q33 0 68.5 -14t60 -31.5t52.5 -31.5t49 -14q31 0 43.5 20.5t15.5 65.5h131 q-6 -114 -49 -168.5t-129 -54.5q-43 0 -86.5 22t-80 44t-63.5 22q-30 0 -43.5 -20.5t-15.5 -65.5h-131z" />
<glyph unicode="&#xf2;" horiz-adv-x="1153" d="M78 506v39q0 242 134.5 386t362.5 144q229 0 364.5 -144t135.5 -386v-39q0 -242 -136 -386.5t-364 -144.5t-362.5 144.5t-134.5 386.5zM211 1516h246l254 -295h-176zM246 506q0 -186 85 -288.5t244 -102.5q160 0 246 102.5t86 288.5v39q0 186 -86 288.5t-246 102.5 q-159 0 -244 -102.5t-85 -288.5v-39z" />
<glyph unicode="&#xf3;" horiz-adv-x="1153" d="M78 506v39q0 242 134.5 386t362.5 144q229 0 364.5 -144t135.5 -386v-39q0 -242 -136 -386.5t-364 -144.5t-362.5 144.5t-134.5 386.5zM246 506q0 -186 85 -288.5t244 -102.5q160 0 246 102.5t86 288.5v39q0 186 -86 288.5t-246 102.5q-159 0 -244 -102.5t-85 -288.5v-39 zM442 1221l252 295h248l-326 -295h-174z" />
<glyph unicode="&#xf4;" horiz-adv-x="1153" d="M78 506v39q0 242 134.5 386t362.5 144q229 0 364.5 -144t135.5 -386v-39q0 -242 -136 -386.5t-364 -144.5t-362.5 144.5t-134.5 386.5zM246 506q0 -186 85 -288.5t244 -102.5q160 0 246 102.5t86 288.5v39q0 186 -86 288.5t-246 102.5q-159 0 -244 -102.5t-85 -288.5v-39 zM299 1221l174 295h205l174 -295h-150l-127 182l-124 -182h-152z" />
<glyph unicode="&#xf5;" horiz-adv-x="1153" d="M78 506v39q0 242 134.5 386t362.5 144q229 0 364.5 -144t135.5 -386v-39q0 -242 -136 -386.5t-364 -144.5t-362.5 144.5t-134.5 386.5zM246 506q0 -186 85 -288.5t244 -102.5q160 0 246 102.5t86 288.5v39q0 186 -86 288.5t-246 102.5q-159 0 -244 -102.5t-85 -288.5v-39 zM276 1249q6 115 49.5 170.5t129.5 55.5q33 0 68 -14t59.5 -31.5t52.5 -31.5t49 -14q31 0 43.5 20.5t15.5 65.5h131q-6 -114 -49 -168.5t-129 -54.5q-43 0 -86 22t-79.5 44t-63.5 22q-30 0 -43.5 -20.5t-15.5 -65.5h-132z" />
<glyph unicode="&#xf6;" horiz-adv-x="1153" d="M78 506v39q0 242 134.5 386t362.5 144q229 0 364.5 -144t135.5 -386v-39q0 -242 -136 -386.5t-364 -144.5t-362.5 144.5t-134.5 386.5zM246 506q0 -186 85 -288.5t244 -102.5q160 0 246 102.5t86 288.5v39q0 186 -86 288.5t-246 102.5q-159 0 -244 -102.5t-85 -288.5v-39 zM307 1221v295h172v-295h-172zM674 1221v295h172v-295h-172z" />
<glyph unicode="&#xf7;" horiz-adv-x="1126" d="M164 641v152h799v-152h-799zM475 291v198h178v-198h-178zM475 946v197h178v-197h-178z" />
<glyph unicode="&#xf8;" horiz-adv-x="1153" d="M20 0l152 170q-94 136 -94 336v39q0 242 134.5 386t362.5 144q186 0 314 -98l65 74h176l-151 -170q96 -138 96 -336v-39q0 -242 -136 -386.5t-364 -144.5q-184 0 -313 99l-65 -74h-177zM246 506q0 -125 37 -209l508 569q-86 70 -216 70q-159 0 -244 -102.5t-85 -288.5 v-39zM362 186q80 -71 213 -71q160 0 246 102.5t86 288.5v39q0 129 -39 211z" />
<glyph unicode="&#xf9;" horiz-adv-x="1091" d="M115 373v678h164v-648q0 -284 243 -284q133 0 208 93.5t75 248.5v590h164v-1051h-160l-2 166q-49 -88 -134.5 -139.5t-197.5 -51.5q-178 0 -269 104.5t-91 293.5zM182 1516h246l254 -295h-176z" />
<glyph unicode="&#xfa;" horiz-adv-x="1091" d="M115 373v678h164v-648q0 -284 243 -284q133 0 208 93.5t75 248.5v590h164v-1051h-160l-2 166q-49 -88 -134.5 -139.5t-197.5 -51.5q-178 0 -269 104.5t-91 293.5zM416 1221l252 295h247l-325 -295h-174z" />
<glyph unicode="&#xfb;" horiz-adv-x="1091" d="M115 373v678h164v-648q0 -284 243 -284q133 0 208 93.5t75 248.5v590h164v-1051h-160l-2 166q-49 -88 -134.5 -139.5t-197.5 -51.5q-178 0 -269 104.5t-91 293.5zM270 1221l174 295h205l174 -295h-149l-127 182l-125 -182h-152z" />
<glyph unicode="&#xfc;" horiz-adv-x="1091" d="M115 373v678h164v-648q0 -284 243 -284q133 0 208 93.5t75 248.5v590h164v-1051h-160l-2 166q-49 -88 -134.5 -139.5t-197.5 -51.5q-178 0 -269 104.5t-91 293.5zM279 1221v295h172v-295h-172zM645 1221v295h172v-295h-172z" />
<glyph unicode="&#xfd;" horiz-adv-x="1032" d="M31 1051h176l319 -861l305 861h170l-528 -1399h-168l135 350zM383 1221l252 295h248l-326 -295h-174z" />
<glyph unicode="&#xfe;" horiz-adv-x="1173" d="M123 -348v1864h164v-637q47 84 140 140t218 56q204 0 327.5 -146t123.5 -384v-39q0 -237 -124 -384t-329 -147q-126 0 -217.5 56t-138.5 141v-520h-164zM281 506q0 -185 87 -288t246 -103q149 0 231.5 103.5t82.5 287.5v39q0 184 -82.5 287.5t-229.5 103.5 q-161 0 -248 -103t-87 -288v-39z" />
<glyph unicode="&#xff;" horiz-adv-x="1032" d="M31 1051h176l319 -861l305 861h170l-528 -1399h-168l135 350zM246 1221v295h172v-295h-172zM612 1221v295h172v-295h-172z" />
<glyph unicode="&#x152;" horiz-adv-x="2316" d="M84 698v58q0 325 183.5 524t488.5 199q158 0 284.5 -62t210.5 -176v213h957v-151h-783v-484h721v-151h-721v-516h793v-152h-967v213q-84 -114 -210.5 -176t-284.5 -62q-201 0 -354 91t-235.5 255t-82.5 377zM264 698q0 -259 132 -413t362 -154t361.5 154t131.5 413v58 q0 259 -131.5 413t-361.5 154t-362 -154t-132 -413v-58z" />
<glyph unicode="&#x153;" horiz-adv-x="1951" d="M78 506v39q0 242 134.5 386t362.5 144q138 0 245 -55.5t171 -157.5q64 101 170.5 157t245.5 56q245 0 366.5 -155t110.5 -426h-807q3 -182 90 -280.5t242 -98.5q123 0 199.5 54.5t103.5 156.5h166q-38 -167 -160.5 -259t-308.5 -92q-283 0 -418 213q-64 -102 -171 -157.5 t-245 -55.5q-228 0 -362.5 144.5t-134.5 386.5zM246 506q0 -186 85 -288.5t244 -102.5q160 0 246 102.5t86 288.5v39q0 186 -86 288.5t-246 102.5q-159 0 -244 -102.5t-85 -288.5v-39zM1081 627h631q-12 149 -89 229t-216 80q-141 0 -225 -79t-101 -230z" />
<glyph unicode="&#x178;" horiz-adv-x="1273" d="M25 1454h192l422 -815l422 815h190l-528 -987v-467h-174v469zM346 1636v260h172v-260h-172zM754 1636v260h172v-260h-172z" />
<glyph unicode="&#x2c6;" horiz-adv-x="962" d="M205 1221l174 295h205l174 -295h-150l-127 182l-125 -182h-151z" />
<glyph unicode="&#x2dc;" horiz-adv-x="1007" d="M205 1249q6 115 49 170.5t129 55.5q33 0 68 -14t59.5 -31.5t52.5 -31.5t49 -14q31 0 44 20.5t16 65.5h131q-6 -114 -49 -168.5t-129 -54.5q-43 0 -86.5 22t-80 44t-63.5 22q-30 0 -43.5 -20.5t-15.5 -65.5h-131z" />
<glyph unicode="&#x2000;" horiz-adv-x="977" />
<glyph unicode="&#x2001;" horiz-adv-x="1954" />
<glyph unicode="&#x2002;" horiz-adv-x="977" />
<glyph unicode="&#x2003;" horiz-adv-x="1954" />
<glyph unicode="&#x2004;" horiz-adv-x="651" />
<glyph unicode="&#x2005;" horiz-adv-x="488" />
<glyph unicode="&#x2006;" horiz-adv-x="325" />
<glyph unicode="&#x2007;" horiz-adv-x="325" />
<glyph unicode="&#x2008;" horiz-adv-x="244" />
<glyph unicode="&#x2009;" horiz-adv-x="390" />
<glyph unicode="&#x200a;" horiz-adv-x="108" />
<glyph unicode="&#x2010;" horiz-adv-x="876" d="M121 514v152h633v-152h-633z" />
<glyph unicode="&#x2011;" horiz-adv-x="876" d="M121 514v152h633v-152h-633z" />
<glyph unicode="&#x2012;" horiz-adv-x="876" d="M121 514v152h633v-152h-633z" />
<glyph unicode="&#x2013;" horiz-adv-x="1257" d="M131 512v143h995v-143h-995z" />
<glyph unicode="&#x2014;" horiz-adv-x="1601" d="M20 508v151h1561v-151h-1561z" />
<glyph unicode="&#x2018;" horiz-adv-x="600" d="M203 971v260q0 135 74.5 212t203.5 77v-103q-168 0 -168 -176v-59h82v-211h-192z" />
<glyph unicode="&#x2019;" horiz-adv-x="600" d="M119 967v102q166 0 166 176v60h-82v211h192v-261q0 -135 -74 -211.5t-202 -76.5z" />
<glyph unicode="&#x201a;" horiz-adv-x="600" d="M119 -236q166 0 166 177v59h-82v211h192v-260q0 -135 -74 -212t-202 -77v102z" />
<glyph unicode="&#x201c;" horiz-adv-x="980" d="M203 971v260q0 135 74.5 212t203.5 77v-103q-168 0 -168 -176v-59h82v-211h-192zM584 971v260q0 135 74.5 212t203.5 77v-103q-168 0 -168 -176v-59h82v-211h-192z" />
<glyph unicode="&#x201d;" horiz-adv-x="980" d="M119 967v102q166 0 166 176v60h-82v211h192v-261q0 -135 -74 -211.5t-202 -76.5zM500 967v102q166 0 166 176v60h-82v211h192v-261q0 -135 -74 -211.5t-202 -76.5z" />
<glyph unicode="&#x201e;" horiz-adv-x="980" d="M119 -236q166 0 166 177v59h-82v211h192v-260q0 -135 -74 -212t-202 -77v102zM500 -236q166 0 166 177v59h-82v211h192v-260q0 -135 -74 -212t-202 -77v102z" />
<glyph unicode="&#x2022;" horiz-adv-x="851" d="M242 584q0 89 51 138.5t133 49.5q81 0 132.5 -50t51.5 -138q0 -86 -52 -136.5t-132 -50.5q-81 0 -132.5 50.5t-51.5 136.5z" />
<glyph unicode="&#x2026;" horiz-adv-x="1302" d="M203 0v211h192v-211h-192zM555 0v211h193v-211h-193zM905 0v211h193v-211h-193z" />
<glyph unicode="&#x202f;" horiz-adv-x="390" />
<glyph unicode="&#x2039;" horiz-adv-x="661" d="M61 494v14l336 410h185l-340 -416l340 -418h-185z" />
<glyph unicode="&#x203a;" horiz-adv-x="655" d="M80 84l342 418l-342 416h180l334 -410v-14l-334 -410h-180z" />
<glyph unicode="&#x205f;" horiz-adv-x="488" />
<glyph unicode="&#x20ac;" horiz-adv-x="1220" d="M0 506v147h154q-2 14 -2 45v58q0 46 2 69h-154v148h178q61 233 241 369.5t439 136.5q146 0 264 -43v-150q-109 37 -252 37q-195 0 -326.5 -92.5t-183.5 -257.5h496v-148h-524q-2 -23 -2 -69v-58q0 -31 2 -45h524v-147h-502q47 -176 180.5 -275.5t335.5 -99.5 q143 0 252 37v-148q-115 -45 -264 -45q-266 0 -448.5 143.5t-237.5 387.5h-172z" />
<glyph unicode="&#x2122;" horiz-adv-x="1337" d="M12 1346v108h508v-108h-196v-529h-117v529h-195zM598 817v637h162l176 -469l176 469h160v-637h-117v453l-172 -453h-96l-170 453v-453h-119z" />
<glyph unicode="&#x25fc;" horiz-adv-x="1054" d="M0 0v1055h1055v-1055h-1055z" />
</font>
</defs>
</svg>
