<?xml version="1.0" standalone="no"?>
<!DOCTYPE svg PUBLIC "-//W3C//DTD SVG 1.1//EN" "http://www.w3.org/Graphics/SVG/1.1/DTD/svg11.dtd" >
<svg xmlns="http://www.w3.org/2000/svg" xmlns:xlink="http://www.w3.org/1999/xlink" version="1.1">
<metadata></metadata>
<defs>
<font id="new_nordregular" horiz-adv-x="1337" >
<font-face units-per-em="2048" ascent="1638" descent="-410" />
<missing-glyph horiz-adv-x="540" />
<glyph horiz-adv-x="0" />
<glyph horiz-adv-x="682" />
<glyph unicode="&#xd;" horiz-adv-x="620" />
<glyph unicode=" "  horiz-adv-x="540" />
<glyph unicode="&#x09;" horiz-adv-x="540" />
<glyph unicode="&#xa0;" horiz-adv-x="540" />
<glyph unicode="!" horiz-adv-x="593" d="M199 0v285h196v-285h-196zM201 1464h192l-18 -964h-158z" />
<glyph unicode="&#x22;" horiz-adv-x="786" d="M164 1464h153l-16 -479h-121zM467 1464h156l-19 -479h-119z" />
<glyph unicode="#" horiz-adv-x="1810" d="M264 397l19 162h241l49 381h-243l20 162h244l45 362h164l-45 -362h409l45 362h164l-45 -362h236l-19 -162h-237l-49 -381h239l-20 -162h-240l-49 -397h-164l49 397h-409l-50 -397h-163l49 397h-240zM688 559h410l49 381h-410z" />
<glyph unicode="$" horiz-adv-x="1161" d="M121 1071q0 188 129 306t348 118h10l27 256h119l-27 -264q122 -17 240 -62v-192q-110 50 -258 70l-52 -498l33 -6q182 -33 266 -130.5t84 -267.5q0 -201 -126 -315.5t-343 -116.5l-26 -256h-121l27 262q-141 17 -273 70v193q139 -68 291 -82l51 485l-37 6 q-362 61 -362 424zM305 1073q0 -108 53.5 -164t180.5 -82l51 482q-138 -3 -211.5 -67t-73.5 -169zM590 152q264 12 264 243q0 95 -50 146.5t-167 76.5z" />
<glyph unicode="%" horiz-adv-x="1945" d="M164 1122q0 162 86 267.5t256 105.5q86 0 153 -29.5t107 -82t60 -118.5t20 -143q0 -80 -20.5 -148.5t-60.5 -122.5t-106.5 -85t-152.5 -31t-153 31t-107.5 85t-61 122.5t-20.5 148.5zM293 1120q0 -122 55.5 -188t157.5 -66q101 0 157 66t56 188q0 115 -56.5 178.5 t-156.5 63.5q-101 0 -157 -63.5t-56 -178.5zM494 -31l802 1526h148l-803 -1526h-147zM1100 356q0 77 20 143t60 118.5t107 82t153 29.5t153 -29.5t107 -82t60 -118.5t20 -143q0 -80 -20.5 -148.5t-60.5 -122.5t-106.5 -85t-152.5 -31t-152.5 31t-106.5 85t-60.5 122.5 t-20.5 148.5zM1227 354q0 -122 56 -188t157 -66t157 66t56 188q0 115 -56.5 178.5t-156.5 63.5t-156.5 -63.5t-56.5 -178.5z" />
<glyph unicode="&#x26;" horiz-adv-x="1400" d="M150 401q0 152 82.5 239.5t244.5 102.5v5q-148 24 -225.5 119.5t-77.5 244.5q0 185 110.5 284t338.5 99q96 0 200 -22v-181q-103 23 -194 23q-144 0 -209.5 -58.5t-65.5 -175.5q0 -125 74 -194.5t213 -69.5h180l72 227h90v-227h313v-164h-313v-338q0 -100 27 -138t94 -38 q99 0 190 60v-172q-94 -58 -219 -58q-100 0 -160 45q-137 -45 -299 -45q-234 0 -350 118t-116 314zM334 420q0 -132 71.5 -205.5t219.5 -73.5q105 0 204 27q-8 39 -8 92v393h-151q-178 0 -257 -60t-79 -173z" />
<glyph unicode="'" horiz-adv-x="481" d="M164 1464h153l-16 -479h-121z" />
<glyph unicode="(" horiz-adv-x="727" d="M170 639q0 550 254 897h172q-111 -159 -177.5 -395t-66.5 -502q0 -559 258 -905h-174q-266 355 -266 905z" />
<glyph unicode=")" horiz-adv-x="727" d="M117 -266q258 346 258 905q0 266 -67 502t-179 395h174q252 -344 252 -897q0 -554 -266 -905h-172z" />
<glyph unicode="*" horiz-adv-x="1015" d="M117 1122l47 148l291 -117l-25 311h158l-27 -311l291 117l49 -148l-305 -73l203 -240l-127 -92l-164 266l-164 -266l-127 92l205 240z" />
<glyph unicode="+" horiz-adv-x="1497" d="M240 559v164h428v428h161v-428h428v-164h-428v-428h-161v428h-428z" />
<glyph unicode="," horiz-adv-x="528" d="M78 -276l131 561h197l-189 -561h-139z" />
<glyph unicode="-" horiz-adv-x="802" d="M180 512v156h441v-156h-441z" />
<glyph unicode="." horiz-adv-x="524" d="M164 0v285h196v-285h-196z" />
<glyph unicode="/" horiz-adv-x="849" d="M10 -348l656 1812h170l-656 -1812h-170z" />
<glyph unicode="0" horiz-adv-x="1368" d="M156 770q0 373 132.5 549t395.5 176t395.5 -176t132.5 -549q0 -412 -133 -606.5t-395 -194.5t-395 194.5t-133 606.5zM336 768q0 -232 38.5 -370t113 -195.5t196.5 -57.5t196.5 57.5t113 195.5t38.5 370q0 537 -348 537t-348 -537z" />
<glyph unicode="1" horiz-adv-x="794" d="M127 1040v230l268 194h178v-1464h-182v1233h-4z" />
<glyph unicode="2" horiz-adv-x="1130" d="M109 1180v204q224 111 440 111q217 0 332.5 -106.5t115.5 -301.5q0 -116 -35.5 -214.5t-128.5 -219t-264 -284.5l-196 -189v-4h608v-176h-866v156l284 280q131 129 214 223.5t127 167.5t59.5 126t15.5 114q0 116 -72 177t-208 61q-111 0 -222.5 -32.5t-203.5 -92.5z" />
<glyph unicode="3" horiz-adv-x="1097" d="M98 55v181q162 -103 359 -103q172 0 267 79t95 218q0 127 -87.5 196.5t-266.5 69.5q-129 0 -252 -16v104l494 490v4h-609v186h869v-159l-492 -469v-5q54 5 98 5q204 0 314 -106.5t110 -283.5q0 -217 -142.5 -347t-391.5 -130q-182 0 -365 86z" />
<glyph unicode="4" horiz-adv-x="1144" d="M63 266v228l584 970h293v-1036h133v-162h-133v-266h-182v266h-695zM229 428h533v893h-4l-529 -889v-4z" />
<glyph unicode="5" horiz-adv-x="1183" d="M170 55v181q162 -103 365 -103q162 0 257 81.5t95 225.5q0 141 -84.5 217t-251.5 76q-157 0 -361 -59v790h816v-186h-654l-4 -434h4q115 43 277 43q207 0 321.5 -114.5t114.5 -323.5q0 -216 -144.5 -348t-381.5 -132q-189 0 -369 86z" />
<glyph unicode="6" horiz-adv-x="1257" d="M156 705q0 389 141.5 589.5t400.5 200.5q196 0 355 -84v-203q-63 49 -154.5 78t-185.5 29q-187 0 -280 -126t-105 -415h4q69 80 166.5 121t203.5 41q205 0 315.5 -121t110.5 -334q0 -250 -124 -380t-353 -130q-123 0 -212.5 38.5t-154 124.5t-96.5 228t-32 343zM338 594 q0 -241 79 -351t238 -110q145 0 227.5 84.5t82.5 245.5q0 151 -76 235t-215 84q-103 0 -191.5 -42.5t-144.5 -116.5v-29z" />
<glyph unicode="7" horiz-adv-x="1034" d="M47 1278v186h936v-161l-645 -1303h-193l623 1274v4h-721z" />
<glyph unicode="8" horiz-adv-x="1193" d="M100 375q0 304 258 373l11 2l-11 4q-116 37 -176.5 129.5t-60.5 236.5q0 175 132.5 275t346.5 100q228 0 353.5 -99.5t125.5 -285.5q0 -128 -72.5 -226t-177.5 -130l-10 -2l12 -4q128 -33 195.5 -128t67.5 -235q0 -206 -133.5 -311t-372.5 -105q-224 0 -356 106.5 t-132 299.5zM274 381q0 -128 82 -193t240 -65q167 0 244.5 64.5t77.5 199.5q0 100 -54 165t-184 103l-84 27l-102 -33q-121 -37 -170.5 -102t-49.5 -166zM295 1081q0 -99 58.5 -160t176.5 -92l64 -18l57 16q252 65 252 254q0 238 -301 238q-150 0 -228.5 -63t-78.5 -175z " />
<glyph unicode="9" horiz-adv-x="1257" d="M129 983q0 250 124.5 381t354.5 131q97 0 173.5 -24t138 -78t101.5 -139t61.5 -208t21.5 -284q0 -399 -140.5 -596t-402.5 -197q-197 0 -356 84v191q64 -50 155.5 -79.5t188.5 -29.5q185 0 277 127.5t104 419.5h-4q-68 -81 -166 -122.5t-205 -41.5q-204 0 -315 123 t-111 342zM293 991q0 -150 76 -234.5t215 -84.5q104 0 192 42t144 117v27q0 241 -78 351t-240 110q-148 0 -228.5 -83.5t-80.5 -244.5z" />
<glyph unicode=":" horiz-adv-x="524" d="M164 0v285h196v-285h-196zM164 754v284h196v-284h-196z" />
<glyph unicode=";" horiz-adv-x="555" d="M51 -276l131 563h197l-189 -563h-139zM195 754v284h196v-284h-196z" />
<glyph unicode="&#x3c;" horiz-adv-x="1456" d="M240 573v136l977 432v-176l-738 -322v-4l738 -322v-176z" />
<glyph unicode="=" horiz-adv-x="1538" d="M260 311v162h1018v-162h-1018zM260 809v162h1018v-162h-1018z" />
<glyph unicode="&#x3e;" horiz-adv-x="1456" d="M240 141v176l737 322v4l-737 322v176l977 -432v-136z" />
<glyph unicode="?" horiz-adv-x="1144" d="M154 1186v200q102 51 218.5 80t221.5 29q218 0 336.5 -106.5t118.5 -303.5q0 -205 -128.5 -327.5t-340.5 -122.5h-33l-8 -146h-158l-8 269h69q213 0 316.5 82.5t103.5 224.5q0 121 -74 182.5t-213 61.5q-106 0 -216.5 -32.5t-204.5 -90.5zM362 0v285h197v-285h-197z" />
<glyph unicode="@" horiz-adv-x="1902" d="M150 541q1 194 61.5 355.5t169.5 272.5t264.5 172.5t341.5 61.5q353 0 559.5 -197t206.5 -540q0 -243 -116 -393t-298 -150q-89 0 -141.5 32.5t-64.5 92.5q-134 -125 -281 -125q-129 0 -207 94t-78 254q0 201 114.5 337t285.5 136q65 0 128.5 -30t108.5 -80l17 65h137 l-74 -369q-27 -158 -27 -180q0 -43 26.5 -67.5t76.5 -24.5q100 0 168.5 110.5t68.5 274.5q0 295 -158.5 453.5t-451.5 158.5q-310 0 -494 -196t-184 -537q0 -332 185 -523.5t499 -191.5q118 0 213.5 22.5t204.5 74.5v-158q-189 -80 -426 -80q-252 0 -440.5 105t-291.5 303.5 t-103 466.5zM729 471q0 -102 44 -155.5t126 -53.5q109 0 207 88l68 369q-83 90 -189 90q-111 0 -183.5 -97t-72.5 -241z" />
<glyph unicode="A" horiz-adv-x="1222" d="M-10 0l483 1464h277l483 -1464h-191l-139 440h-581l-140 -440h-192zM373 608h481l-240 721h-4z" />
<glyph unicode="B" horiz-adv-x="1341" d="M215 0v1464h520q445 0 445 -362q0 -142 -77.5 -236.5t-225.5 -117.5v-5q161 -13 244 -101t83 -239q0 -194 -113 -298.5t-348 -104.5h-528zM399 178h342q144 0 211.5 58t67.5 186q0 109 -69 170t-210 61h-342v-475zM399 817h326q130 0 202 68.5t72 187.5q0 107 -64 159 t-206 52h-330v-467z" />
<glyph unicode="C" horiz-adv-x="1374" d="M147 750q0 355 173.5 550t470.5 195q221 0 434 -109v-210q-185 122 -430 122q-222 0 -339.5 -138t-117.5 -412q0 -294 116 -442t339 -148q115 0 229.5 31.5t202.5 89.5v-203q-97 -50 -214 -78.5t-225 -28.5q-296 0 -467.5 201.5t-171.5 579.5z" />
<glyph unicode="D" horiz-adv-x="1484" d="M215 0v1464h459q674 0 674 -692q0 -367 -182 -569.5t-511 -202.5h-440zM399 180h252q249 0 379.5 149.5t130.5 436.5q0 267 -125.5 390.5t-386.5 123.5h-250v-1100z" />
<glyph unicode="E" horiz-adv-x="1243" d="M215 0v1464h848v-184h-664v-471h654v-168h-654v-463h664v-178h-848z" />
<glyph unicode="F" horiz-adv-x="1241" d="M215 0v1464h875v-184h-691v-498h682v-170h-682v-612h-184z" />
<glyph unicode="G" horiz-adv-x="1452" d="M147 748q0 165 41 301t121 236t206.5 155t289.5 55q119 0 235 -28.5t205 -71.5v-211q-84 50 -201 82t-239 32q-100 0 -179.5 -27.5t-133 -76.5t-88.5 -119.5t-50.5 -152t-15.5 -177.5q0 -101 14.5 -185t49 -160t89 -128.5t138.5 -83t192 -30.5q160 0 256 41v510h183v-637 q-86 -45 -205 -74t-244 -29q-139 0 -251.5 41t-188.5 112.5t-127 171t-74 212.5t-23 242z" />
<glyph unicode="H" horiz-adv-x="1495" d="M215 0v1464h184v-604h697v604h184v-1464h-184v676h-697v-676h-184z" />
<glyph unicode="I" horiz-adv-x="614" d="M215 0v1464h184v-1464h-184z" />
<glyph unicode="J" horiz-adv-x="837" d="M88 -10v170q66 -15 148 -15q108 0 160.5 64t52.5 213v1042h186v-1044q0 -451 -379 -451q-88 0 -168 21z" />
<glyph unicode="K" horiz-adv-x="1243" d="M215 0v1464h184v-710h4l609 710h231l-649 -737l637 -727h-236l-592 670h-4v-670h-184z" />
<glyph unicode="L" horiz-adv-x="1046" d="M215 0v1464h186v-1278h580v-186h-766z" />
<glyph unicode="M" horiz-adv-x="1845" d="M215 0v1464h297l412 -1200h4l407 1200h295v-1464h-180v1290h-4l-430 -1290h-187l-430 1290h-4v-1290h-180z" />
<glyph unicode="N" horiz-adv-x="1607" d="M215 0v1464h260l733 -1245h4v1245h181v-1464h-252l-742 1245h-4v-1245h-180z" />
<glyph unicode="O" horiz-adv-x="1595" d="M147 750q0 357 171 551t479 194q309 0 479 -193.5t170 -551.5q0 -368 -173 -574.5t-476 -206.5q-304 0 -477 206t-173 575zM338 748q0 -294 117 -442t342 -148q226 0 343 148t117 442q0 274 -117 413t-343 139q-224 0 -341.5 -139.5t-117.5 -412.5z" />
<glyph unicode="P" horiz-adv-x="1341" d="M215 0v1464h524q245 0 372 -120q126 -119 126 -345q0 -522 -526 -522h-312v-477h-184zM399 649h306q190 0 268 85.5t78 250.5q0 144 -81 219.5t-261 75.5h-310v-631z" />
<glyph unicode="Q" horiz-adv-x="1595" d="M147 750q0 357 171 551t479 194q309 0 479 -193.5t170 -551.5q0 -282 -103.5 -472t-293.5 -264l194 -272h-215l-160 231q-50 -4 -71 -4q-304 0 -477 206t-173 575zM338 748q0 -294 117 -442t342 -148q226 0 343 148t117 442q0 274 -117 413t-343 139 q-224 0 -341.5 -139.5t-117.5 -412.5z" />
<glyph unicode="R" horiz-adv-x="1341" d="M215 0v1464h539q225 0 340.5 -102.5t115.5 -296.5q0 -198 -116 -310t-320 -112h-104l569 -643h-235l-601 690h-4v-690h-184zM399 780h289q179 0 256.5 64.5t77.5 199.5q0 240 -283 240h-340v-504z" />
<glyph unicode="S" horiz-adv-x="1161" d="M121 1071q0 188 129 306t348 118q176 0 369 -70v-192q-75 34 -176 55t-189 21q-145 0 -221 -64.5t-76 -171.5q0 -111 55.5 -165t190.5 -81l139 -28q183 -36 266.5 -133t83.5 -265q0 -203 -127.5 -317.5t-345.5 -114.5q-203 0 -391 78v191q172 -86 383 -86q295 0 295 243 q0 100 -55 152t-189 78l-127 22q-362 67 -362 424z" />
<glyph unicode="T" horiz-adv-x="1110" d="M31 1278v186h1048v-186h-432v-1278h-186v1278h-430z" />
<glyph unicode="U" horiz-adv-x="1486" d="M207 549v915h184v-897q0 -225 82 -321t270 -96q189 0 271 95.5t82 321.5v897h184v-911q0 -584 -537 -584q-269 0 -402.5 143t-133.5 437z" />
<glyph unicode="V" horiz-adv-x="1216" d="M-4 1464h192l418 -1292h4l418 1292h191l-484 -1464h-256z" />
<glyph unicode="W" horiz-adv-x="1882" d="M20 1464h191l293 -1220h4l328 1220h213l325 -1220h4l293 1220h191l-363 -1464h-235l-320 1182h-4l-319 -1182h-238z" />
<glyph unicode="X" horiz-adv-x="1236" d="M27 0l479 739l-467 725h213l364 -583h5l364 583h213l-465 -725l477 -739h-215l-374 602h-5l-372 -602h-217z" />
<glyph unicode="Y" horiz-adv-x="1112" d="M-4 1464h203l354 -735h4l356 735h201l-467 -913v-551h-184v551z" />
<glyph unicode="Z" horiz-adv-x="1138" d="M88 0v150l731 1118v4h-731v192h961v-168l-721 -1114v-4h721v-178h-961z" />
<glyph unicode="[" horiz-adv-x="798" d="M240 -266v1802h424v-154h-250v-1495h250v-153h-424z" />
<glyph unicode="\" horiz-adv-x="845" d="M10 1464h170l656 -1812h-170z" />
<glyph unicode="]" horiz-adv-x="798" d="M137 -113h248v1495h-248v154h424v-1802h-424v153z" />
<glyph unicode="^" horiz-adv-x="1310" d="M145 571l426 893h168l426 -893h-170l-338 736h-4l-338 -736h-170z" />
<glyph unicode="_" horiz-adv-x="1024" d="M0 -139h1024v-111h-1024v111z" />
<glyph unicode="`" horiz-adv-x="569" d="M61 1536h222l225 -270h-172z" />
<glyph unicode="a" d="M129 545q0 280 130 434t337 154q229 0 367 -179h4v148h172v-1102h-148l-16 141h-4q-66 -83 -167.5 -127.5t-223.5 -44.5q-214 0 -332.5 152.5t-118.5 423.5zM305 539q0 -199 82 -297.5t236 -98.5q188 0 340 111v559q-63 66 -150.5 103.5t-177.5 37.5q-161 0 -245.5 -108 t-84.5 -307z" />
<glyph unicode="b" horiz-adv-x="1335" d="M199 0v1536h176v-584h4q127 181 371 181q205 0 330.5 -149.5t125.5 -422.5q0 -279 -118.5 -435.5t-335.5 -156.5q-120 0 -219.5 44.5t-167.5 127.5h-5l-14 -141h-147zM375 254q153 -111 334 -111q321 0 321 412q0 190 -81.5 294.5t-237.5 104.5q-98 0 -187.5 -38.5 t-148.5 -108.5v-553z" />
<glyph unicode="c" horiz-adv-x="1136" d="M127 547q0 271 131.5 428.5t388.5 157.5q77 0 167.5 -21.5t168.5 -60.5v-191q-154 98 -330 98q-173 0 -263.5 -106.5t-90.5 -304.5q0 -196 91 -301t267 -105q172 0 326 101v-187q-174 -86 -336 -86q-260 0 -390 153.5t-130 424.5z" />
<glyph unicode="d" d="M129 545q0 280 129 434t334 154q229 0 366 -175h5v578h176v-1536h-148l-16 141h-4q-66 -83 -167.5 -127.5t-223.5 -44.5q-214 0 -332.5 152.5t-118.5 423.5zM305 539q0 -199 82 -297.5t236 -98.5q188 0 340 111v559q-63 66 -150.5 103.5t-177.5 37.5q-161 0 -245.5 -108 t-84.5 -307z" />
<glyph unicode="e" horiz-adv-x="1202" d="M127 549q0 272 130.5 428t358.5 156q213 0 335 -142.5t122 -386.5q0 -74 -4 -131h-768q14 -162 101 -247t260 -85q194 0 352 103v-187q-181 -88 -361 -88q-272 0 -399 152.5t-127 427.5zM301 623h602q0 161 -75.5 249.5t-213.5 88.5q-139 0 -218.5 -86.5t-94.5 -251.5z " />
<glyph unicode="f" horiz-adv-x="800" d="M31 942v160h209v127q0 164 82.5 251t226.5 87q126 0 225 -37v-170q-88 35 -188 35q-92 0 -131 -46t-39 -155v-92h356v-160h-354v-942h-176v942h-211z" />
<glyph unicode="g" d="M129 580q0 256 130 404.5t333 148.5q242 0 379 -189h4l16 158h148v-952q0 -275 -120.5 -402t-393.5 -127q-105 0 -218.5 25t-179.5 61v176q81 -51 188 -79.5t212 -28.5q190 0 263 75.5t73 272.5v72h-5q-139 -158 -378 -158q-213 0 -332 147t-119 396zM305 573 q0 -177 83 -269.5t235 -92.5q183 0 340 111v491q-63 66 -150.5 103.5t-177.5 37.5q-159 0 -244.5 -103t-85.5 -278z" />
<glyph unicode="h" horiz-adv-x="1347" d="M199 0v1536h176v-596h4q152 193 407 193q174 0 268.5 -108.5t94.5 -324.5v-700h-176v643q0 164 -60.5 237.5t-193.5 73.5q-100 0 -193.5 -42.5t-150.5 -102.5v-809h-176z" />
<glyph unicode="i" horiz-adv-x="573" d="M188 1280v195h195v-195h-195zM199 0v1102h176v-1102h-176z" />
<glyph unicode="j" horiz-adv-x="583" d="M-76 -174q65 -19 133 -19q85 0 118.5 45t33.5 162v1088h176v-1127q0 -180 -72.5 -260t-224.5 -80q-93 0 -164 19v172zM199 1280v195h194v-195h-194z" />
<glyph unicode="k" horiz-adv-x="1071" d="M199 0v1536h176v-979h4l459 545h219l-477 -559l499 -543h-237l-463 500h-4v-500h-176z" />
<glyph unicode="l" horiz-adv-x="573" d="M199 0v1536h176v-1536h-176z" />
<glyph unicode="m" horiz-adv-x="2037" d="M199 0v1102h147l16 -168h5q161 199 399 199q232 0 309 -215h4q79 100 186 157.5t234 57.5q162 0 252 -109t90 -324v-700h-176v643q0 166 -55.5 238.5t-175.5 72.5q-175 0 -332 -153q6 -47 6 -101v-700h-176v643q0 166 -56 238.5t-176 72.5q-176 0 -325 -145v-809h-176z " />
<glyph unicode="n" horiz-adv-x="1347" d="M199 0v1102h147l16 -168h5q161 199 419 199q174 0 268.5 -108.5t94.5 -324.5v-700h-176v643q0 164 -60.5 237.5t-193.5 73.5q-100 0 -193.5 -43t-150.5 -104v-807h-176z" />
<glyph unicode="o" horiz-adv-x="1329" d="M127 565q0 122 33 224t98 179.5t169 121t237 43.5q134 0 238 -43.5t168.5 -121t97 -179.5t32.5 -224q0 -128 -33.5 -236t-98.5 -188.5t-168.5 -126t-235.5 -45.5t-235.5 45.5t-168.5 126t-99 188.5t-34 236zM303 561q0 -200 93.5 -308t267.5 -108t268 108t94 308 q0 188 -94 290.5t-268 102.5q-173 0 -267 -102.5t-94 -290.5z" />
<glyph unicode="p" d="M199 -348v1450h147l16 -164h5q131 195 383 195q206 0 332 -149.5t126 -422.5q0 -279 -119 -435.5t-337 -156.5q-234 0 -373 158h-4v-475h-176zM375 254q153 -111 334 -111q323 0 323 412q0 190 -82.5 294.5t-238.5 104.5q-103 0 -192 -41t-144 -106v-553z" />
<glyph unicode="q" d="M129 545q0 280 129 434t334 154q246 0 379 -191h4l16 160h148v-1450h-176v475h-5q-139 -158 -378 -158q-214 0 -332.5 152.5t-118.5 423.5zM305 539q0 -199 82 -297.5t236 -98.5q188 0 340 111v559q-63 66 -150.5 103.5t-177.5 37.5q-161 0 -245.5 -108t-84.5 -307z" />
<glyph unicode="r" horiz-adv-x="927" d="M199 0v1102h147l16 -240h5q52 118 145 191t207 73q91 0 158 -24v-189q-77 25 -162 25q-124 0 -206.5 -74.5t-133.5 -222.5v-641h-176z" />
<glyph unicode="s" horiz-adv-x="1077" d="M141 803q0 157 104 243.5t292 86.5q163 0 327 -66v-178q-63 31 -152 51.5t-169 20.5q-120 0 -176 -38t-56 -118q0 -65 41 -102t137 -56l154 -29q157 -30 225 -102.5t68 -204.5q0 -155 -106 -248.5t-295 -93.5q-188 0 -351 78v178q157 -88 336 -88q121 0 184.5 45.5 t63.5 126.5q0 66 -39 102t-141 54l-162 27q-285 51 -285 311z" />
<glyph unicode="t" horiz-adv-x="927" d="M31 942v117q118 22 189 101t106 226h84v-284h393v-160h-393v-577q0 -127 35 -175.5t118 -48.5q122 0 238 80v-180q-54 -32 -128 -51t-147 -19q-149 0 -221 89t-72 272v610h-202z" />
<glyph unicode="u" horiz-adv-x="1331" d="M199 401v701h176v-651q0 -164 56.5 -236t174.5 -72q103 0 195.5 43t154.5 101v815h177v-1102h-148l-16 168h-4q-161 -199 -398 -199q-178 0 -273 108.5t-95 323.5z" />
<glyph unicode="v" horiz-adv-x="1073" d="M14 1102h183l338 -903h4l338 903h182l-416 -1102h-213z" />
<glyph unicode="w" horiz-adv-x="1640" d="M47 1102h184l252 -920h4l215 920h238l217 -920h4l248 920h184l-317 -1102h-227l-226 942h-4l-223 -942h-227z" />
<glyph unicode="x" horiz-adv-x="1081" d="M27 0l397 555l-383 547h205l289 -434h4l311 434h205l-406 -547l398 -555h-205l-303 451h-4l-304 -451h-204z" />
<glyph unicode="y" horiz-adv-x="1077" d="M14 1102h187l336 -858h4l340 858h182l-582 -1450h-188l149 385z" />
<glyph unicode="z" horiz-adv-x="1136" d="M160 0v158l600 770v4h-600v170h815v-160l-598 -770v-4h598v-168h-815z" />
<glyph unicode="{" horiz-adv-x="755" d="M43 545v178q90 0 128 34t38 109v465q0 100 51 152.5t150 52.5h215v-154h-154q-50 0 -72 -25t-22 -83v-426q0 -106 -46.5 -155.5t-164.5 -55.5v-4q118 -6 164.5 -55.5t46.5 -155.5v-426q0 -58 22 -83.5t72 -25.5h154v-153h-215q-99 0 -150 52.5t-51 152.5v462 q0 75 -38 109.5t-128 34.5z" />
<glyph unicode="|" horiz-adv-x="1009" d="M430 -246v1782h150v-1782h-150z" />
<glyph unicode="}" horiz-adv-x="751" d="M131 -113h154q50 0 72 25.5t22 83.5v426q0 107 46 156t165 55v4q-119 6 -165 55t-46 156v426q0 58 -22 83t-72 25h-154v154h203q100 0 155.5 -53t55.5 -152v-465q0 -75 38 -109t128 -34v-178q-90 0 -128 -34.5t-38 -109.5v-462q0 -205 -199 -205h-215v153z" />
<glyph unicode="~" horiz-adv-x="1556" d="M240 565q137 230 313 230q58 0 110 -15t90.5 -37t74.5 -44t78 -37t85 -15q114 0 207 152l119 -84q-137 -228 -313 -228q-57 0 -108.5 15.5t-90 37.5t-75 44t-79.5 37.5t-88 15.5q-112 0 -205 -152z" />
<glyph unicode="&#xa1;" horiz-adv-x="524" d="M164 817v285h196v-285h-196zM166 -362l18 962h156l18 -962h-192z" />
<glyph unicode="&#xa2;" horiz-adv-x="1136" d="M127 547q0 269 128.5 426t381.5 160l27 260h120l-28 -271q124 -20 227 -71v-191q-117 73 -244 92l-84 -811h2q172 0 326 101v-187q-174 -86 -336 -86h-10l-27 -256h-121l29 269q-196 36 -293.5 183.5t-97.5 381.5zM299 547q0 -159 59.5 -258t176.5 -131l83 798 q-157 -10 -238 -115.5t-81 -293.5z" />
<glyph unicode="&#xa3;" horiz-adv-x="1267" d="M123 633v129l199 2q-37 217 -37 330q0 192 111.5 296.5t320.5 104.5q212 0 432 -109v-202q-196 121 -420 121q-270 0 -270 -236q0 -123 39 -305h532v-129h-514q8 -57 8 -146q0 -90 -34 -173t-91 -136v-4h770v-176h-1017v156q117 93 159.5 163t42.5 166q0 79 -12 150z" />
<glyph unicode="&#xa4;" horiz-adv-x="1185" d="M143 311l109 109q-62 112 -62 266q0 144 60 246l-107 104l86 86l99 -98q103 86 266 86q159 0 264 -84l96 96l86 -86l-104 -104q59 -101 59 -246q0 -158 -63 -266l108 -109l-86 -86l-100 101q-97 -88 -260 -88q-165 0 -262 88l-103 -101zM328 682q0 -148 67.5 -227.5 t196.5 -79.5t197.5 79t68.5 228q0 138 -69.5 213.5t-196.5 75.5t-195.5 -75.5t-68.5 -213.5z" />
<glyph unicode="&#xa5;" horiz-adv-x="1112" d="M-4 1464h203l354 -739h4l356 739h201l-399 -770h231v-129h-297l-2 -2v-178h299v-129h-299v-256h-184v256h-299v129h299v178l-2 2h-297v129h231z" />
<glyph unicode="&#xa6;" horiz-adv-x="1009" d="M430 -246v758h150v-758h-150zM430 778v758h150v-758h-150z" />
<glyph unicode="&#xa7;" horiz-adv-x="1150" d="M164 645q0 193 168 260v4q-75 40 -107 106.5t-32 164.5q0 146 104 230.5t291 84.5q170 0 332 -65v-179q-65 30 -154.5 51t-171.5 21q-120 0 -176 -37.5t-56 -116.5q0 -77 42 -117t137 -59l151 -28q158 -31 226.5 -104.5t68.5 -209.5q0 -191 -172 -266v-4q79 -39 111 -100 t32 -160q0 -148 -107 -240t-298 -92q-187 0 -350 78v178q161 -90 336 -90q123 0 186 45.5t63 124.5q0 78 -37 116t-141 58l-161 27q-146 26 -215.5 105t-69.5 214zM334 647q0 -71 41 -109t137 -57l72 -14q233 9 233 182q0 71 -37.5 107.5t-140.5 54.5l-86 14 q-113 -1 -166 -44.5t-53 -133.5z" />
<glyph unicode="&#xa8;" horiz-adv-x="700" d="M61 1290v195h195v-195h-195zM444 1290v195h195v-195h-195z" />
<glyph unicode="&#xa9;" horiz-adv-x="1906" d="M193 723q0 219 95.5 395t269.5 276.5t396 100.5q221 0 395 -100.5t269.5 -276.5t95.5 -395t-95.5 -394.5t-269.5 -275.5t-395 -100q-222 0 -396 100t-269.5 275.5t-95.5 394.5zM319 723q0 -184 78.5 -331.5t222.5 -231.5t328 -84q185 0 331 84t226 231.5t80 331.5 q0 183 -79 331t-223.5 233t-328.5 85q-185 0 -330.5 -85t-225 -233t-79.5 -331zM602 735q0 195 97.5 301.5t267.5 106.5q123 0 245 -58v-137q-103 62 -235 62q-240 0 -240 -281q0 -295 238 -295q128 0 237 62v-134q-120 -57 -247 -57q-171 0 -267 111t-96 319z" />
<glyph unicode="&#xaa;" horiz-adv-x="964" d="M143 326v135h674v-135h-674zM184 940q0 116 65 180.5t185 65.5q142 0 221 -82h2v92q0 91 -41 131.5t-133 40.5q-136 0 -254 -72v138q119 61 265 61q155 0 223.5 -68t68.5 -206v-521h-108l-12 99h-4q-91 -121 -242 -121q-109 0 -172.5 69t-63.5 193zM311 940 q0 -137 131 -137q128 0 217 71v136q-90 63 -208 63q-140 -3 -140 -133z" />
<glyph unicode="&#xab;" horiz-adv-x="987" d="M158 563l188 359h141l-170 -359l170 -358h-141zM500 563l188 359h141l-170 -359l170 -358h-141z" />
<glyph unicode="&#xac;" horiz-adv-x="1497" d="M240 559v164h1017v-522h-161v358h-856z" />
<glyph unicode="&#xad;" horiz-adv-x="802" d="M180 512v156h441v-156h-441z" />
<glyph unicode="&#xae;" horiz-adv-x="1179" d="M129 1028q0 201 132.5 334t328.5 133t327.5 -132.5t131.5 -334.5q0 -201 -131.5 -332t-327.5 -131q-197 0 -329 131t-132 332zM205 1028q0 -169 110.5 -281t274.5 -112t274.5 112t110.5 281q0 171 -110.5 283t-274.5 112t-274.5 -112t-110.5 -283zM434 793v481h197 q155 0 155 -133q0 -64 -37 -102t-102 -40h-20l170 -206h-103l-174 221h-2v-221h-84zM518 1053h84q53 0 76.5 18t23.5 57q0 72 -84 72h-100v-147z" />
<glyph unicode="&#xaf;" horiz-adv-x="710" d="M61 1317v137h588v-137h-588z" />
<glyph unicode="&#xb0;" horiz-adv-x="854" d="M113 1182q0 -142 84.5 -232t230.5 -90q145 0 229 90.5t84 231.5q0 144 -83.5 228.5t-229.5 84.5q-148 0 -231.5 -84.5t-83.5 -228.5zM254 1178q0 86 44.5 133t129.5 47t128.5 -47t43.5 -133q0 -87 -43 -136t-129 -49t-130 49t-44 136z" />
<glyph unicode="&#xb1;" horiz-adv-x="1497" d="M240 0v162h1017v-162h-1017zM240 764v164h428v399h161v-399h428v-164h-428v-399h-161v399h-428z" />
<glyph unicode="&#xb2;" horiz-adv-x="806" d="M109 1548v154q139 63 278 63q138 0 212.5 -64.5t74.5 -180.5q0 -102 -52.5 -190t-197.5 -220l-105 -96v-2h345v-131h-553v116l168 154q150 136 196.5 207t46.5 135q0 59 -38.5 91t-116.5 32q-132 0 -258 -68z" />
<glyph unicode="&#xb3;" horiz-adv-x="768" d="M98 899v127q94 -57 217 -57q96 0 148.5 42.5t52.5 118.5q0 144 -199 144q-66 0 -149 -6v65l285 269v2h-353v143h545v-125l-283 -254v-4q18 2 56 2q120 1 184 -61.5t64 -167.5q0 -132 -88 -210.5t-244 -78.5q-119 0 -236 51z" />
<glyph unicode="&#xb4;" horiz-adv-x="569" d="M61 1266l224 270h223l-277 -270h-170z" />
<glyph unicode="&#xb5;" horiz-adv-x="1331" d="M199 -348v1450h176v-651q0 -164 56.5 -236t174.5 -72q103 0 195.5 43t154.5 101v815h177v-1102h-148l-16 168h-4q-75 -92 -173.5 -145.5t-209.5 -53.5q-121 0 -207 58v-375h-176z" />
<glyph unicode="&#xb6;" horiz-adv-x="1320" d="M61 1087q0 194 111.5 285.5t355.5 91.5h553v-1464h-176v1286h-233v-1286h-176v705q-206 0 -320.5 102t-114.5 280z" />
<glyph unicode="&#xb7;" horiz-adv-x="524" d="M164 455v284h196v-284h-196z" />
<glyph unicode="&#xb8;" horiz-adv-x="540" d="M88 -334q73 -43 166 -43q58 0 88.5 22t30.5 62q0 76 -109 76h-114l100 217h115l-70 -139h43q83 0 125.5 -41.5t42.5 -110.5q0 -91 -65.5 -144.5t-180.5 -53.5q-100 0 -172 34v121z" />
<glyph unicode="&#xb9;" horiz-adv-x="653" d="M127 1464v166l164 117h141v-866h-151v696h-2z" />
<glyph unicode="&#xba;" horiz-adv-x="1030" d="M137 1096q0 115 39.5 203t126.5 142t213 54q185 0 281 -111t96 -288q0 -118 -40.5 -211t-127 -150t-209.5 -57q-124 0 -211 57t-127.5 149.5t-40.5 211.5zM172 326v135h686v-135h-686zM266 1094q0 -137 65 -211t185 -74t184 74t64 211q0 128 -65 198t-183 70 q-120 0 -185 -70t-65 -198z" />
<glyph unicode="&#xbb;" horiz-adv-x="987" d="M158 205l170 358l-170 359h139l190 -359l-190 -358h-139zM500 205l170 358l-170 359h139l190 -359l-190 -358h-139z" />
<glyph unicode="&#xbc;" horiz-adv-x="1771" d="M131 1182v166l164 116h141v-866h-151v696h-2zM281 0l905 1464h147l-903 -1464h-149zM1001 156v168l326 542h234v-587h79v-123h-79v-156h-152v156h-408zM1126 276h287v482h-2l-285 -479v-3z" />
<glyph unicode="&#xbd;" horiz-adv-x="1839" d="M131 1182v166l164 116h141v-866h-151v696h-2zM281 0l905 1464h147l-903 -1464h-149zM1128 668v153q141 64 279 64t212.5 -64.5t74.5 -181.5q0 -102 -52.5 -190t-197.5 -220l-105 -96v-2h344v-131h-553v117l168 153q150 136 197 207t47 135q0 58 -39 90.5t-117 32.5 q-134 0 -258 -67z" />
<glyph unicode="&#xbe;" horiz-adv-x="1945" d="M147 616v127q94 -57 218 -57q96 0 148 43t52 119q0 143 -198 143q-67 0 -150 -6v66l285 268v2h-352v143h544v-125l-282 -254v-4q18 2 55 2q120 1 184 -61.5t64 -167.5q0 -132 -88 -210.5t-244 -78.5q-119 0 -236 51zM455 0l905 1464h147l-903 -1464h-149zM1176 156v168 l325 542h234v-587h80v-123h-80v-156h-152v156h-407zM1300 276h287v482h-2l-285 -479v-3z" />
<glyph unicode="&#xbf;" horiz-adv-x="1144" d="M154 25q0 205 128.5 327.5t340.5 122.5h32l9 146h157l8 -269h-69q-213 0 -316.5 -82.5t-103.5 -224.5q0 -121 74 -182.5t213 -61.5q106 0 217.5 32.5t204.5 90.5v-200q-101 -51 -218 -80t-223 -29q-218 0 -336 106.5t-118 303.5zM643 825v285h197v-285h-197z" />
<glyph unicode="&#xc0;" horiz-adv-x="1222" d="M-10 0l483 1464h277l483 -1464h-191l-139 440h-581l-140 -440h-192zM246 1825h233l223 -230h-182zM373 608h481l-240 721h-4z" />
<glyph unicode="&#xc1;" horiz-adv-x="1222" d="M-10 0l483 1464h277l483 -1464h-191l-139 440h-581l-140 -440h-192zM373 608h481l-240 721h-4zM508 1595l223 230h234l-275 -230h-182z" />
<glyph unicode="&#xc2;" horiz-adv-x="1222" d="M-10 0l483 1464h277l483 -1464h-191l-139 440h-581l-140 -440h-192zM285 1593l204 232h250l195 -232h-168l-152 160h-4l-157 -160h-168zM373 608h481l-240 721h-4z" />
<glyph unicode="&#xc3;" horiz-adv-x="1222" d="M-10 0l483 1464h277l483 -1464h-191l-139 440h-581l-140 -440h-192zM313 1622v133q37 43 75 60.5t93 17.5q57 0 143.5 -41t133.5 -41q84 0 151 82v-135q-37 -41 -75 -58.5t-93 -17.5q-45 0 -136 41t-140 41q-85 0 -152 -82zM373 608h481l-240 721h-4z" />
<glyph unicode="&#xc4;" horiz-adv-x="1222" d="M-10 0l483 1464h277l483 -1464h-191l-139 440h-581l-140 -440h-192zM322 1595v197h194v-197h-194zM373 608h481l-240 721h-4zM705 1595v197h194v-197h-194z" />
<glyph unicode="&#xc5;" horiz-adv-x="1222" d="M-10 0l483 1464h277l483 -1464h-191l-139 440h-581l-140 -440h-192zM373 608h481l-240 721h-4zM406 1786q0 95 55 151t151 56q94 0 149.5 -57t55.5 -150q0 -94 -58.5 -154.5t-146.5 -60.5q-90 0 -148 59.5t-58 155.5zM498 1782q0 -59 30 -90t84 -31q52 0 82.5 31t30.5 90 q0 53 -30.5 83.5t-82.5 30.5q-53 0 -83.5 -30t-30.5 -84z" />
<glyph unicode="&#xc6;" horiz-adv-x="1851" d="M-10 0l483 1464h928l57 -184h-647l156 -471h643l51 -168h-639l152 -461h634l54 -180h-820l-139 440h-581l-140 -440h-192zM373 608h481l-240 721h-4z" />
<glyph unicode="&#xc7;" horiz-adv-x="1374" d="M147 750q0 355 173.5 550t470.5 195q221 0 434 -109v-210q-185 122 -430 122q-222 0 -339.5 -138t-117.5 -412q0 -294 116 -442t339 -148q115 0 229.5 31.5t202.5 89.5v-203q-190 -97 -404 -107l-55 -108h43q83 0 125.5 -41.5t42.5 -110.5q0 -91 -65.5 -144.5 t-180.5 -53.5q-100 0 -172 34v121q73 -43 166 -43q58 0 88.5 22t30.5 62q0 76 -109 76h-114l88 190q-262 25 -412 225t-150 552z" />
<glyph unicode="&#xc8;" horiz-adv-x="1243" d="M215 0v1464h848v-184h-664v-471h654v-168h-654v-463h664v-178h-848zM291 1825h233l224 -230h-183z" />
<glyph unicode="&#xc9;" horiz-adv-x="1243" d="M215 0v1464h848v-184h-664v-471h654v-168h-654v-463h664v-178h-848zM551 1595l223 230h234l-275 -230h-182z" />
<glyph unicode="&#xca;" horiz-adv-x="1243" d="M215 0v1464h848v-184h-664v-471h654v-168h-654v-463h664v-178h-848zM330 1593l205 232h249l195 -232h-168l-152 160h-4l-157 -160h-168z" />
<glyph unicode="&#xcb;" horiz-adv-x="1243" d="M215 0v1464h848v-184h-664v-471h654v-168h-654v-463h664v-178h-848zM367 1595v197h194v-197h-194zM750 1595v197h194v-197h-194z" />
<glyph unicode="&#xcc;" horiz-adv-x="614" d="M-57 1825h233l223 -230h-182zM215 0v1464h184v-1464h-184z" />
<glyph unicode="&#xcd;" horiz-adv-x="614" d="M203 1595l223 230h233l-274 -230h-182zM215 0v1464h184v-1464h-184z" />
<glyph unicode="&#xce;" horiz-adv-x="614" d="M-18 1593l204 232h250l195 -232h-168l-152 160h-4l-157 -160h-168zM215 0v1464h184v-1464h-184z" />
<glyph unicode="&#xcf;" horiz-adv-x="614" d="M18 1595v197h195v-197h-195zM215 0v1464h184v-1464h-184zM401 1595v197h195v-197h-195z" />
<glyph unicode="&#xd0;" horiz-adv-x="1484" d="M29 641v168h186v655h459q674 0 674 -692q0 -367 -182 -569.5t-511 -202.5h-440v641h-186zM399 180h252q249 0 379.5 149.5t130.5 436.5q0 267 -125.5 390.5t-386.5 123.5h-250v-471h375v-168h-375v-461z" />
<glyph unicode="&#xd1;" horiz-adv-x="1607" d="M215 0v1464h260l733 -1245h4v1245h181v-1464h-252l-742 1245h-4v-1245h-180zM518 1622v133q37 43 75 60.5t93 17.5q57 0 143.5 -41t133.5 -41q84 0 151 82v-135q-37 -41 -75 -58.5t-93 -17.5q-46 0 -137 41t-139 41q-85 0 -152 -82z" />
<glyph unicode="&#xd2;" horiz-adv-x="1595" d="M147 750q0 357 171 551t479 194q309 0 479 -193.5t170 -551.5q0 -368 -173 -574.5t-476 -206.5q-304 0 -477 206t-173 575zM338 748q0 -294 117 -442t342 -148q226 0 343 148t117 442q0 274 -117 413t-343 139q-224 0 -341.5 -139.5t-117.5 -412.5zM432 1825h234 l223 -230h-182z" />
<glyph unicode="&#xd3;" horiz-adv-x="1595" d="M147 750q0 357 171 551t479 194q309 0 479 -193.5t170 -551.5q0 -368 -173 -574.5t-476 -206.5q-304 0 -477 206t-173 575zM338 748q0 -294 117 -442t342 -148q226 0 343 148t117 442q0 274 -117 413t-343 139q-224 0 -341.5 -139.5t-117.5 -412.5zM694 1595l224 230h233 l-274 -230h-183z" />
<glyph unicode="&#xd4;" horiz-adv-x="1595" d="M147 750q0 357 171 551t479 194q309 0 479 -193.5t170 -551.5q0 -368 -173 -574.5t-476 -206.5q-304 0 -477 206t-173 575zM338 748q0 -294 117 -442t342 -148q226 0 343 148t117 442q0 274 -117 413t-343 139q-224 0 -341.5 -139.5t-117.5 -412.5zM471 1593l205 232h250 l194 -232h-168l-151 160h-4l-158 -160h-168z" />
<glyph unicode="&#xd5;" horiz-adv-x="1595" d="M147 750q0 357 171 551t479 194q309 0 479 -193.5t170 -551.5q0 -368 -173 -574.5t-476 -206.5q-304 0 -477 206t-173 575zM338 748q0 -294 117 -442t342 -148q226 0 343 148t117 442q0 274 -117 413t-343 139q-224 0 -341.5 -139.5t-117.5 -412.5zM500 1622v133 q37 43 75 60.5t93 17.5q57 0 143 -41t133 -41q85 0 152 82v-135q-37 -41 -75 -58.5t-93 -17.5q-46 0 -137 41t-140 41q-84 0 -151 -82z" />
<glyph unicode="&#xd6;" horiz-adv-x="1595" d="M147 750q0 357 171 551t479 194q309 0 479 -193.5t170 -551.5q0 -368 -173 -574.5t-476 -206.5q-304 0 -477 206t-173 575zM338 748q0 -294 117 -442t342 -148q226 0 343 148t117 442q0 274 -117 413t-343 139q-224 0 -341.5 -139.5t-117.5 -412.5zM508 1595v197h194 v-197h-194zM891 1595v197h194v-197h-194z" />
<glyph unicode="&#xd7;" horiz-adv-x="1191" d="M164 954l115 115l317 -315l317 315l115 -115l-317 -317l317 -318l-115 -112l-317 315l-311 -311l-115 115l311 311z" />
<glyph unicode="&#xd8;" horiz-adv-x="1626" d="M156 750q0 357 170.5 551t478.5 194q244 0 401 -121l119 164h166l-188 -260q151 -193 151 -528q0 -368 -173 -574.5t-476 -206.5q-213 0 -367 105l-104 -144h-166l168 236q-180 205 -180 584zM346 748q0 -280 105 -424l641 890q-112 86 -287 86q-224 0 -341.5 -139.5 t-117.5 -412.5zM547 227q103 -69 258 -69q226 0 343.5 148t117.5 442q0 226 -82 362z" />
<glyph unicode="&#xd9;" horiz-adv-x="1486" d="M207 549v915h184v-897q0 -225 82 -321t270 -96q189 0 271 95.5t82 321.5v897h184v-911q0 -584 -537 -584q-269 0 -402.5 143t-133.5 437zM379 1825h233l224 -230h-183z" />
<glyph unicode="&#xda;" horiz-adv-x="1486" d="M207 549v915h184v-897q0 -225 82 -321t270 -96q189 0 271 95.5t82 321.5v897h184v-911q0 -584 -537 -584q-269 0 -402.5 143t-133.5 437zM641 1595l223 230h234l-275 -230h-182z" />
<glyph unicode="&#xdb;" horiz-adv-x="1486" d="M207 549v915h184v-897q0 -225 82 -321t270 -96q189 0 271 95.5t82 321.5v897h184v-911q0 -584 -537 -584q-269 0 -402.5 143t-133.5 437zM418 1593l205 232h249l195 -232h-168l-151 160h-5l-157 -160h-168z" />
<glyph unicode="&#xdc;" horiz-adv-x="1486" d="M207 549v915h184v-897q0 -225 82 -321t270 -96q189 0 271 95.5t82 321.5v897h184v-911q0 -584 -537 -584q-269 0 -402.5 143t-133.5 437zM455 1595v197h194v-197h-194zM838 1595v197h194v-197h-194z" />
<glyph unicode="&#xdd;" horiz-adv-x="1112" d="M-4 1464h203l354 -735h4l356 735h201l-467 -913v-551h-184v551zM453 1595l223 230h233l-274 -230h-182z" />
<glyph unicode="&#xde;" horiz-adv-x="1341" d="M215 0v1464h184v-225h340q245 0 372 -119.5t126 -349.5q-3 -518 -526 -518h-312v-252h-184zM399 426h306q190 0 268 85t78 249q0 144 -81 219.5t-261 75.5h-310v-629z" />
<glyph unicode="&#xdf;" horiz-adv-x="1249" d="M199 0v1128q0 207 106.5 323t315.5 116q438 0 438 -393q0 -174 -81.5 -275t-236.5 -123v-4q365 -24 365 -371q0 -191 -105 -311.5t-288 -120.5q-105 0 -185 25v164q90 -23 170 -23q111 0 174.5 69t63.5 199q0 283 -373 283h-24v154q169 0 258.5 77.5t89.5 223.5 q0 254 -258 254q-133 0 -194.5 -67.5t-61.5 -221.5v-1106h-174z" />
<glyph unicode="&#xe0;" d="M129 545q0 280 130 434t337 154q229 0 367 -179h4v148h172v-1102h-148l-16 141h-4q-66 -83 -167.5 -127.5t-223.5 -44.5q-214 0 -332.5 152.5t-118.5 423.5zM305 539q0 -199 82 -297.5t236 -98.5q188 0 340 111v559q-63 66 -150.5 103.5t-177.5 37.5q-161 0 -245.5 -108 t-84.5 -307zM315 1536h222l225 -270h-172z" />
<glyph unicode="&#xe1;" d="M129 545q0 280 130 434t337 154q229 0 367 -179h4v148h172v-1102h-148l-16 141h-4q-66 -83 -167.5 -127.5t-223.5 -44.5q-214 0 -332.5 152.5t-118.5 423.5zM305 539q0 -199 82 -297.5t236 -98.5q188 0 340 111v559q-63 66 -150.5 103.5t-177.5 37.5q-161 0 -245.5 -108 t-84.5 -307zM588 1266l223 270h223l-276 -270h-170z" />
<glyph unicode="&#xe2;" d="M129 545q0 280 130 434t337 154q229 0 367 -179h4v148h172v-1102h-148l-16 141h-4q-66 -83 -167.5 -127.5t-223.5 -44.5q-214 0 -332.5 152.5t-118.5 423.5zM305 539q0 -199 82 -297.5t236 -98.5q188 0 340 111v559q-63 66 -150.5 103.5t-177.5 37.5q-161 0 -245.5 -108 t-84.5 -307zM358 1266l205 270h230l192 -270h-156l-151 196h-4l-158 -196h-158z" />
<glyph unicode="&#xe3;" d="M129 545q0 280 130 434t337 154q229 0 367 -179h4v148h172v-1102h-148l-16 141h-4q-66 -83 -167.5 -127.5t-223.5 -44.5q-214 0 -332.5 152.5t-118.5 423.5zM305 539q0 -199 82 -297.5t236 -98.5q188 0 340 111v559q-63 66 -150.5 103.5t-177.5 37.5q-161 0 -245.5 -108 t-84.5 -307zM379 1284v135q37 41 75 58.5t93 17.5q57 0 143 -41t133 -41q85 0 152 82v-133q-37 -43 -75 -60.5t-93 -17.5q-45 0 -137 41t-140 41q-84 0 -151 -82z" />
<glyph unicode="&#xe4;" d="M129 545q0 280 130 434t337 154q229 0 367 -179h4v148h172v-1102h-148l-16 141h-4q-66 -83 -167.5 -127.5t-223.5 -44.5q-214 0 -332.5 152.5t-118.5 423.5zM305 539q0 -199 82 -297.5t236 -98.5q188 0 340 111v559q-63 66 -150.5 103.5t-177.5 37.5q-161 0 -245.5 -108 t-84.5 -307zM383 1290v195h195v-195h-195zM766 1290v195h195v-195h-195z" />
<glyph unicode="&#xe5;" d="M129 545q0 280 130 434t337 154q229 0 367 -179h4v148h172v-1102h-148l-16 141h-4q-66 -83 -167.5 -127.5t-223.5 -44.5q-214 0 -332.5 152.5t-118.5 423.5zM305 539q0 -199 82 -297.5t236 -98.5q188 0 340 111v559q-63 66 -150.5 103.5t-177.5 37.5q-161 0 -245.5 -108 t-84.5 -307zM467 1485q0 94 55.5 150.5t151.5 56.5q94 0 149.5 -57t55.5 -150q0 -94 -58.5 -154.5t-146.5 -60.5q-90 0 -148.5 59.5t-58.5 155.5zM559 1481q0 -59 30.5 -90t84.5 -31q52 0 82 31t30 90q0 53 -30 83.5t-82 30.5q-53 0 -84 -30t-31 -84z" />
<glyph unicode="&#xe6;" horiz-adv-x="1898" d="M158 342q0 165 92 257t262 93q206 0 319 -119h5v136q0 134 -59.5 193t-192.5 59q-202 0 -361 -103v189q169 86 373 86q139 0 224 -48t126 -153h4q110 201 363 201q213 0 334.5 -142.5t121.5 -386.5q0 -74 -4 -131h-766q14 -163 100.5 -247.5t258.5 -84.5q194 0 352 103 v-187q-181 -88 -360 -88q-311 0 -437 207h-6q-93 -108 -190.5 -157.5t-222.5 -49.5q-156 0 -246 97t-90 276zM330 340q0 -203 192 -203q99 0 178 30t166 105q-29 81 -37 174q-127 96 -297 93q-202 -3 -202 -199zM999 623h603q0 161 -76.5 249.5t-214.5 88.5 q-139 0 -218.5 -87t-93.5 -251z" />
<glyph unicode="&#xe7;" horiz-adv-x="1136" d="M127 547q0 271 131.5 428.5t388.5 157.5q77 0 167.5 -21.5t168.5 -60.5v-191q-154 98 -330 98q-173 0 -263.5 -106.5t-90.5 -304.5q0 -196 91 -301t267 -105q172 0 326 101v-187q-153 -75 -293 -84l-55 -110h43q83 0 125.5 -41.5t42.5 -110.5q0 -91 -65.5 -144.5 t-180.5 -53.5q-100 0 -172 34v121q73 -43 166 -43q58 0 88.5 22t30.5 62q0 76 -109 76h-115l89 190q-225 20 -338 171.5t-113 402.5z" />
<glyph unicode="&#xe8;" horiz-adv-x="1202" d="M127 549q0 272 130.5 428t358.5 156q213 0 335 -142.5t122 -386.5q0 -74 -4 -131h-768q14 -162 101 -247t260 -85q194 0 352 103v-187q-181 -88 -361 -88q-272 0 -399 152.5t-127 427.5zM244 1536h221l225 -270h-172zM301 623h602q0 161 -75.5 249.5t-213.5 88.5 q-139 0 -218.5 -86.5t-94.5 -251.5z" />
<glyph unicode="&#xe9;" horiz-adv-x="1202" d="M127 549q0 272 130.5 428t358.5 156q213 0 335 -142.5t122 -386.5q0 -74 -4 -131h-768q14 -162 101 -247t260 -85q194 0 352 103v-187q-181 -88 -361 -88q-272 0 -399 152.5t-127 427.5zM301 623h602q0 161 -75.5 249.5t-213.5 88.5q-139 0 -218.5 -86.5t-94.5 -251.5z M516 1266l223 270h224l-277 -270h-170z" />
<glyph unicode="&#xea;" horiz-adv-x="1202" d="M127 549q0 272 130.5 428t358.5 156q213 0 335 -142.5t122 -386.5q0 -74 -4 -131h-768q14 -162 101 -247t260 -85q194 0 352 103v-187q-181 -88 -361 -88q-272 0 -399 152.5t-127 427.5zM287 1266l205 270h229l192 -270h-155l-152 196h-4l-158 -196h-157zM301 623h602 q0 161 -75.5 249.5t-213.5 88.5q-139 0 -218.5 -86.5t-94.5 -251.5z" />
<glyph unicode="&#xeb;" horiz-adv-x="1202" d="M127 549q0 272 130.5 428t358.5 156q213 0 335 -142.5t122 -386.5q0 -74 -4 -131h-768q14 -162 101 -247t260 -85q194 0 352 103v-187q-181 -88 -361 -88q-272 0 -399 152.5t-127 427.5zM301 623h602q0 161 -75.5 249.5t-213.5 88.5q-139 0 -218.5 -86.5t-94.5 -251.5z M313 1290v195h195v-195h-195zM696 1290v195h195v-195h-195z" />
<glyph unicode="&#xec;" horiz-adv-x="573" d="M-72 1536h222l225 -270h-172zM199 0v1102h176v-1102h-176z" />
<glyph unicode="&#xed;" horiz-adv-x="573" d="M199 0v1102h176v-1102h-176zM201 1266l223 270h223l-276 -270h-170z" />
<glyph unicode="&#xee;" horiz-adv-x="573" d="M-29 1266l205 270h230l192 -270h-156l-151 196h-4l-158 -196h-158zM199 0v1102h176v-1102h-176z" />
<glyph unicode="&#xef;" horiz-adv-x="573" d="M-2 1290v195h195v-195h-195zM199 0v1102h176v-1102h-176zM381 1290v195h194v-195h-194z" />
<glyph unicode="&#xf0;" horiz-adv-x="1198" d="M129 512q0 256 129.5 405.5t329.5 149.5q235 0 370 -176h5q-30 123 -86.5 218t-176.5 202l-317 -109l-31 94l258 88q-94 75 -209 152h236q83 -50 137 -94l221 76l31 -95l-164 -55q186 -175 242 -403q35 -132 35 -340q0 -319 -131 -487.5t-394 -168.5q-240 0 -362.5 145 t-122.5 398zM305 506q0 -177 83 -270t235 -93q343 0 340 453v152q-63 65 -152 102t-182 37q-156 0 -240 -101t-84 -280z" />
<glyph unicode="&#xf1;" horiz-adv-x="1347" d="M199 0v1102h147l16 -168h5q161 199 419 199q174 0 268.5 -108.5t94.5 -324.5v-700h-176v643q0 164 -60.5 237.5t-193.5 73.5q-100 0 -193.5 -43t-150.5 -104v-807h-176zM379 1284v135q37 41 75 58.5t93 17.5q57 0 143 -41t133 -41q85 0 152 82v-133q-37 -43 -75 -60.5 t-93 -17.5q-45 0 -137 41t-140 41q-84 0 -151 -82z" />
<glyph unicode="&#xf2;" horiz-adv-x="1329" d="M127 565q0 122 33 224t98 179.5t169 121t237 43.5q134 0 238 -43.5t168.5 -121t97 -179.5t32.5 -224q0 -128 -33.5 -236t-98.5 -188.5t-168.5 -126t-235.5 -45.5t-235.5 45.5t-168.5 126t-99 188.5t-34 236zM303 561q0 -200 93.5 -308t267.5 -108t268 108t94 308 q0 188 -94 290.5t-268 102.5q-173 0 -267 -102.5t-94 -290.5zM307 1536h221l226 -270h-172z" />
<glyph unicode="&#xf3;" horiz-adv-x="1329" d="M127 565q0 122 33 224t98 179.5t169 121t237 43.5q134 0 238 -43.5t168.5 -121t97 -179.5t32.5 -224q0 -128 -33.5 -236t-98.5 -188.5t-168.5 -126t-235.5 -45.5t-235.5 45.5t-168.5 126t-99 188.5t-34 236zM303 561q0 -200 93.5 -308t267.5 -108t268 108t94 308 q0 188 -94 290.5t-268 102.5q-173 0 -267 -102.5t-94 -290.5zM580 1266l223 270h223l-276 -270h-170z" />
<glyph unicode="&#xf4;" horiz-adv-x="1329" d="M127 565q0 122 33 224t98 179.5t169 121t237 43.5q134 0 238 -43.5t168.5 -121t97 -179.5t32.5 -224q0 -128 -33.5 -236t-98.5 -188.5t-168.5 -126t-235.5 -45.5t-235.5 45.5t-168.5 126t-99 188.5t-34 236zM303 561q0 -200 93.5 -308t267.5 -108t268 108t94 308 q0 188 -94 290.5t-268 102.5q-173 0 -267 -102.5t-94 -290.5zM350 1266l205 270h229l193 -270h-156l-151 196h-4l-158 -196h-158z" />
<glyph unicode="&#xf5;" horiz-adv-x="1329" d="M127 565q0 122 33 224t98 179.5t169 121t237 43.5q134 0 238 -43.5t168.5 -121t97 -179.5t32.5 -224q0 -128 -33.5 -236t-98.5 -188.5t-168.5 -126t-235.5 -45.5t-235.5 45.5t-168.5 126t-99 188.5t-34 236zM303 561q0 -200 93.5 -308t267.5 -108t268 108t94 308 q0 188 -94 290.5t-268 102.5q-173 0 -267 -102.5t-94 -290.5zM369 1284v135q37 41 75 58.5t93 17.5q57 0 143 -41t133 -41q85 0 152 82v-133q-37 -43 -75 -60.5t-93 -17.5q-45 0 -137 41t-140 41q-84 0 -151 -82z" />
<glyph unicode="&#xf6;" horiz-adv-x="1329" d="M127 565q0 122 33 224t98 179.5t169 121t237 43.5q134 0 238 -43.5t168.5 -121t97 -179.5t32.5 -224q0 -128 -33.5 -236t-98.5 -188.5t-168.5 -126t-235.5 -45.5t-235.5 45.5t-168.5 126t-99 188.5t-34 236zM303 561q0 -200 93.5 -308t267.5 -108t268 108t94 308 q0 188 -94 290.5t-268 102.5q-173 0 -267 -102.5t-94 -290.5zM375 1290v195h194v-195h-194zM758 1290v195h194v-195h-194z" />
<glyph unicode="&#xf7;" horiz-adv-x="1497" d="M240 559v164h1017v-164h-1017zM657 150v227h183v-227h-183zM657 905v228h183v-228h-183z" />
<glyph unicode="&#xf8;" horiz-adv-x="1329" d="M127 565q0 122 33 224t98 179.5t169 121t237 43.5q177 0 301 -76l71 96h148l-127 -170q143 -155 143 -418q0 -128 -33.5 -236t-98.5 -188.5t-168.5 -126t-235.5 -45.5q-173 0 -297 78l-74 -98h-150l131 176q-147 159 -147 440zM303 561q0 -185 80 -291l473 641 q-79 43 -192 43q-173 0 -267 -102.5t-94 -290.5zM471 190q82 -45 193 -45q174 0 268 108t94 308q0 172 -78 273z" />
<glyph unicode="&#xf9;" horiz-adv-x="1331" d="M199 401v701h176v-651q0 -164 56.5 -236t174.5 -72q103 0 195.5 43t154.5 101v815h177v-1102h-148l-16 168h-4q-161 -199 -398 -199q-178 0 -273 108.5t-95 323.5zM305 1536h221l226 -270h-172z" />
<glyph unicode="&#xfa;" horiz-adv-x="1331" d="M199 401v701h176v-651q0 -164 56.5 -236t174.5 -72q103 0 195.5 43t154.5 101v815h177v-1102h-148l-16 168h-4q-161 -199 -398 -199q-178 0 -273 108.5t-95 323.5zM578 1266l223 270h223l-276 -270h-170z" />
<glyph unicode="&#xfb;" horiz-adv-x="1331" d="M199 401v701h176v-651q0 -164 56.5 -236t174.5 -72q103 0 195.5 43t154.5 101v815h177v-1102h-148l-16 168h-4q-161 -199 -398 -199q-178 0 -273 108.5t-95 323.5zM348 1266l205 270h229l193 -270h-156l-151 196h-4l-158 -196h-158z" />
<glyph unicode="&#xfc;" horiz-adv-x="1331" d="M199 401v701h176v-651q0 -164 56.5 -236t174.5 -72q103 0 195.5 43t154.5 101v815h177v-1102h-148l-16 168h-4q-161 -199 -398 -199q-178 0 -273 108.5t-95 323.5zM373 1290v195h194v-195h-194zM756 1290v195h194v-195h-194z" />
<glyph unicode="&#xfd;" horiz-adv-x="1077" d="M14 1102h187l336 -858h4l340 858h182l-582 -1450h-188l149 385zM455 1266l223 270h223l-276 -270h-170z" />
<glyph unicode="&#xfe;" d="M199 -348v1884h176v-584h4q127 181 371 181q206 0 332 -149.5t126 -422.5q0 -279 -119 -435.5t-337 -156.5q-234 0 -373 158h-4v-475h-176zM375 254q153 -111 334 -111q323 0 323 412q0 190 -81.5 294.5t-237.5 104.5q-99 0 -189 -38.5t-149 -108.5v-553z" />
<glyph unicode="&#xff;" horiz-adv-x="1077" d="M14 1102h187l336 -858h4l340 858h182l-582 -1450h-188l149 385zM250 1290v195h194v-195h-194zM633 1290v195h194v-195h-194z" />
<glyph unicode="&#x152;" horiz-adv-x="2205" d="M147 750q0 357 171 551t479 194q117 0 219 -31h1009v-184h-735q142 -178 154 -471h571v-168h-573q-24 -290 -168 -463h751v-178h-1017q-102 -31 -211 -31q-304 0 -477 206t-173 575zM338 748q0 -294 117 -442t342 -148q226 0 343 148t117 442q0 274 -117 413t-343 139 q-224 0 -341.5 -139.5t-117.5 -412.5z" />
<glyph unicode="&#x153;" horiz-adv-x="2101" d="M127 565q0 122 33 224t98 179.5t169 121t237 43.5q318 0 444 -246h4q123 246 404 246q211 0 332.5 -142.5t121.5 -386.5q0 -74 -4 -131h-766q28 -332 359 -332q194 0 352 103v-187q-181 -88 -361 -88q-326 0 -444 246h-4q-129 -246 -438 -246q-132 0 -235.5 45.5 t-168.5 126t-99 188.5t-34 236zM303 561q0 -200 93.5 -308t267.5 -108t268 108t94 308q0 188 -94 290.5t-268 102.5q-173 0 -267 -102.5t-94 -290.5zM1200 623h602q0 161 -76.5 249.5t-214.5 88.5t-217 -87t-94 -251z" />
<glyph unicode="&#x178;" horiz-adv-x="1112" d="M-4 1464h203l354 -735h4l356 735h201l-467 -913v-551h-184v551zM266 1595v197h195v-197h-195zM649 1595v197h195v-197h-195z" />
<glyph unicode="&#x2c6;" horiz-adv-x="749" d="M61 1266l205 270h230l192 -270h-156l-151 196h-4l-158 -196h-158z" />
<glyph unicode="&#x2dc;" horiz-adv-x="718" d="M61 1284v135q37 41 75 58.5t93 17.5q57 0 143.5 -41t133.5 -41q84 0 151 82v-133q-37 -43 -75 -60.5t-93 -17.5q-45 0 -136 41t-140 41q-85 0 -152 -82z" />
<glyph unicode="&#x2000;" horiz-adv-x="996" />
<glyph unicode="&#x2001;" horiz-adv-x="1993" />
<glyph unicode="&#x2002;" horiz-adv-x="996" />
<glyph unicode="&#x2003;" horiz-adv-x="1993" />
<glyph unicode="&#x2004;" horiz-adv-x="664" />
<glyph unicode="&#x2005;" horiz-adv-x="498" />
<glyph unicode="&#x2006;" horiz-adv-x="332" />
<glyph unicode="&#x2007;" horiz-adv-x="332" />
<glyph unicode="&#x2008;" horiz-adv-x="249" />
<glyph unicode="&#x2009;" horiz-adv-x="398" />
<glyph unicode="&#x200a;" horiz-adv-x="110" />
<glyph unicode="&#x2010;" horiz-adv-x="802" d="M180 512v156h441v-156h-441z" />
<glyph unicode="&#x2011;" horiz-adv-x="802" d="M180 512v156h441v-156h-441z" />
<glyph unicode="&#x2012;" horiz-adv-x="802" d="M180 512v156h441v-156h-441z" />
<glyph unicode="&#x2013;" horiz-adv-x="1024" d="M0 512v156h1024v-156h-1024z" />
<glyph unicode="&#x2014;" horiz-adv-x="2048" d="M0 512v156h2048v-156h-2048z" />
<glyph unicode="&#x2018;" horiz-adv-x="544" d="M147 948l170 516h129l-120 -516h-179z" />
<glyph unicode="&#x2019;" horiz-adv-x="544" d="M98 948l121 516h180l-172 -516h-129z" />
<glyph unicode="&#x201a;" horiz-adv-x="544" d="M98 -268l121 516h180l-172 -516h-129z" />
<glyph unicode="&#x201c;" horiz-adv-x="876" d="M147 948l170 516h129l-120 -516h-179zM477 948l172 516h127l-119 -516h-180z" />
<glyph unicode="&#x201d;" horiz-adv-x="876" d="M98 948l121 516h180l-172 -516h-129zM430 948l119 516h180l-172 -516h-127z" />
<glyph unicode="&#x201e;" horiz-adv-x="876" d="M98 -268l121 516h180l-172 -516h-129zM430 -268l119 516h180l-172 -516h-127z" />
<glyph unicode="&#x2022;" horiz-adv-x="1001" d="M195 709q0 -135 87.5 -222.5t219.5 -87.5q131 0 218 88t87 222t-87 220.5t-218 86.5q-133 0 -220 -86.5t-87 -220.5z" />
<glyph unicode="&#x2026;" horiz-adv-x="1574" d="M164 0v285h196v-285h-196zM688 0v285h197v-285h-197zM1214 0v285h195v-285h-195z" />
<glyph unicode="&#x202f;" horiz-adv-x="398" />
<glyph unicode="&#x2039;" horiz-adv-x="645" d="M158 563l188 359h141l-170 -359l170 -358h-141z" />
<glyph unicode="&#x203a;" horiz-adv-x="645" d="M158 207l170 358l-170 359h139l190 -359l-190 -358h-139z" />
<glyph unicode="&#x205f;" horiz-adv-x="498" />
<glyph unicode="&#x20ac;" horiz-adv-x="1423" d="M70 461l39 129h139q-8 68 -8 160q0 37 2 55h-172l39 129h145q41 269 200.5 415t395.5 146q211 0 424 -109v-206q-89 59 -200 91t-220 32q-161 0 -268.5 -93.5t-143.5 -275.5h598l-39 -129h-573q-2 -18 -2 -57q0 -76 10 -158h604l-39 -129h-538q45 -153 144.5 -230 t244.5 -77q109 0 221 31t201 89v-198q-97 -50 -211.5 -78.5t-216.5 -28.5q-216 0 -367 126t-209 366h-200z" />
<glyph unicode="&#x2122;" horiz-adv-x="1994" d="M109 1337v127h659v-127h-254v-708h-152v708h-253zM922 629v835h221l221 -622h4l221 622h219v-835h-147v657h-4l-232 -657h-120l-232 657h-4v-657h-147z" />
<glyph unicode="&#x25fc;" horiz-adv-x="1105" d="M0 0v1106h1106v-1106h-1106z" />
<glyph unicode="&#xfb01;" horiz-adv-x="1392" d="M31 942v160h209v127q0 164 82.5 251t226.5 87q126 0 225 -37v-170q-88 35 -188 35q-92 0 -131 -46t-39 -155v-92h356v-160h-354v-942h-176v942h-211zM1008 1280v195h194v-195h-194zM1018 0v1102h176v-1102h-176z" />
<glyph unicode="&#xfb02;" horiz-adv-x="1374" d="M31 942v160h209v127q0 164 82.5 251t226.5 87q126 0 225 -37v-170q-88 35 -188 35q-92 0 -131 -46t-39 -155v-92h356v-160h-354v-942h-176v942h-211zM999 0v1536h177v-1536h-177z" />
</font>
</defs>
</svg>
